Manjari-Bold.ufo
<glyph name="exclam" format="2">
	<unicode hex="0021"/>
	<advance width="352"/>
	<outline>
		<contour>
			<point x="176" y="221" type="curve" smooth="yes"/>
			<point x="243" y="221"/>
			<point x="297" y="167"/>
			<point x="297" y="100" type="curve" smooth="yes"/>
			<point x="297" y="33"/>
			<point x="243" y="-21"/>
			<point x="176" y="-21" type="curve" smooth="yes"/>
			<point x="109" y="-21"/>
			<point x="55" y="33"/>
			<point x="55" y="100" type="curve" smooth="yes"/>
			<point x="55" y="167"/>
			<point x="109" y="221"/>
		</contour>
		<contour>
			<point x="170" y="1360" type="curve" smooth="yes"/>
			<point x="171" y="1360" type="line" smooth="yes"/>
			<point x="220" y="1360"/>
			<point x="276" y="1323"/>
			<point x="276" y="1267" type="curve"/>
			<point x="248" y="416" type="line"/>
			<point x="248" y="368"/>
			<point x="225" y="323"/>
			<point x="171" y="323" type="curve" smooth="yes"/>
			<point x="117" y="323"/>
			<point x="95" y="368"/>
			<point x="95" y="416" type="curve" smooth="yes"/>
			<point x="65" y="1267" type="line" smooth="yes"/>
			<point x="65" y="1323"/>
			<point x="122" y="1359"/>
		</contour>
	</outline>
</glyph>
<glyph name="numbersign" format="2">
	<unicode hex="0023"/>
	<advance width="937"/>
	<outline>
		<contour>
			<point x="467" y="754" type="line"/>
			<point x="415" y="475" type="line"/>
			<point x="608" y="475" type="line"/>
			<point x="657" y="754" type="line"/>
		</contour>
		<contour>
			<point x="824" y="754" type="line"/>
			<point x="774" y="475" type="line"/>
			<point x="960" y="475" type="line"/>
			<point x="960" y="322" type="line"/>
			<point x="747" y="322" type="line"/>
			<point x="680" y="-55" type="line"/>
			<point x="514" y="-55" type="line"/>
			<point x="580" y="322" type="line"/>
			<point x="386" y="322" type="line"/>
			<point x="316" y="-55" type="line"/>
			<point x="152" y="-55" type="line"/>
			<point x="223" y="322" type="line"/>
			<point x="43" y="322" type="line"/>
			<point x="43" y="475" type="line"/>
			<point x="252" y="475" type="line"/>
			<point x="304" y="754" type="line"/>
			<point x="113" y="754" type="line"/>
			<point x="113" y="907" type="line"/>
			<point x="332" y="907" type="line"/>
			<point x="398" y="1256" type="line"/>
			<point x="561" y="1256" type="line"/>
			<point x="496" y="907" type="line"/>
			<point x="684" y="907" type="line"/>
			<point x="746" y="1256" type="line"/>
			<point x="913" y="1256" type="line"/>
			<point x="851" y="907" type="line"/>
			<point x="1016" y="907" type="line"/>
			<point x="1016" y="754" type="line"/>
		</contour>
	</outline>
</glyph>
<glyph name="dollar" format="2">
  <advance width="1452"/>
  <unicode hex="0024"/>
  <outline>
    <contour>
      <point x="743.0" y="-261.0" type="curve" smooth="yes"/>
      <point x="687.0" y="-261.0"/>
      <point x="640.0" y="-204.0"/>
      <point x="640.0" y="-135.0" type="curve" smooth="yes"/>
      <point x="640.0" y="-8.0" type="line"/>
      <point x="406.0" y="17.0"/>
      <point x="207.0" y="127.0"/>
      <point x="112.0" y="309.0" type="curve" smooth="yes"/>
      <point x="105.0" y="321.0"/>
      <point x="100.0" y="342.0"/>
      <point x="100.0" y="356.0" type="curve" smooth="yes"/>
      <point x="100.0" y="411.0"/>
      <point x="145.0" y="456.0"/>
      <point x="200.0" y="456.0" type="curve" smooth="yes"/>
      <point x="234.0" y="456.0"/>
      <point x="274.0" y="431.0"/>
      <point x="289.0" y="401.0" type="curve" smooth="yes"/>
      <point x="351.0" y="281.0"/>
      <point x="477.0" y="210.0"/>
      <point x="640.0" y="191.0" type="curve"/>
      <point x="640.0" y="614.0" type="line"/>
      <point x="386.0" y="655.0"/>
      <point x="120.0" y="746.0"/>
      <point x="120.0" y="1013.0" type="curve" smooth="yes"/>
      <point x="120.0" y="1282.0"/>
      <point x="382.0" y="1415.0"/>
      <point x="639.0" y="1442.0" type="curve"/>
      <point x="639.0" y="1446.0" type="line" smooth="yes"/>
      <point x="639.0" y="1510.0"/>
      <point x="683.0" y="1572.0"/>
      <point x="736.0" y="1572.0" type="curve" smooth="yes"/>
      <point x="799.0" y="1572.0"/>
      <point x="844.0" y="1518.0"/>
      <point x="844.0" y="1446.0" type="curve" smooth="yes"/>
      <point x="844.0" y="1444.0"/>
      <point x="844.0" y="1442.0"/>
      <point x="844.0" y="1440.0" type="curve"/>
      <point x="1040.0" y="1412.0"/>
      <point x="1208.0" y="1305.0"/>
      <point x="1290.0" y="1154.0" type="curve" smooth="yes"/>
      <point x="1297.0" y="1142.0"/>
      <point x="1302.0" y="1119.0"/>
      <point x="1302.0" y="1105.0" type="curve" smooth="yes"/>
      <point x="1302.0" y="1050.0"/>
      <point x="1257.0" y="1005.0"/>
      <point x="1202.0" y="1005.0" type="curve" smooth="yes"/>
      <point x="1168.0" y="1005.0"/>
      <point x="1128.0" y="1029.0"/>
      <point x="1113.0" y="1059.0" type="curve" smooth="yes"/>
      <point x="1061.0" y="1154.0"/>
      <point x="967.0" y="1216.0"/>
      <point x="844.0" y="1238.0" type="curve"/>
      <point x="844.0" y="790.0" type="line"/>
      <point x="1089.0" y="764.0"/>
      <point x="1352.0" y="700.0"/>
      <point x="1352.0" y="421.0" type="curve" smooth="yes"/>
      <point x="1352.0" y="154.0"/>
      <point x="1106.0" y="20.0"/>
      <point x="845.0" y="-8.0" type="curve"/>
      <point x="845.0" y="-135.0" type="line" smooth="yes"/>
      <point x="845.0" y="-204.0"/>
      <point x="799.0" y="-261.0"/>
    </contour>
    <contour>
      <point x="845.0" y="193.0" type="line"/>
      <point x="997.0" y="214.0"/>
      <point x="1152.0" y="281.0"/>
      <point x="1152.0" y="420.0" type="curve" smooth="yes"/>
      <point x="1152.0" y="559.0"/>
      <point x="985.0" y="575.0"/>
      <point x="845.0" y="589.0" type="curve"/>
    </contour>
    <contour>
      <point x="639.0" y="1241.0" type="line"/>
      <point x="486.0" y="1221.0"/>
      <point x="323.0" y="1152.0"/>
      <point x="323.0" y="1020.0" type="curve" smooth="yes"/>
      <point x="323.0" y="899.0"/>
      <point x="484.0" y="844.0"/>
      <point x="639.0" y="816.0" type="curve"/>
    </contour>
  </outline>
</glyph>
<glyph name="percent" format="2">
  <advance width="1584"/>
  <unicode hex="0025"/>
  <outline>
    <contour>
      <point x="1309.790626829196" y="1421.718520701891" type="curve" smooth="yes"/>
      <point x="1262.7481799365676" y="1454.3836120128642"/>
      <point x="1204.7231496546558" y="1432.8550223998723"/>
      <point x="1175.8639851356322" y="1393.5466438619685" type="curve" smooth="yes"/>
      <point x="245.79552816686632" y="126.72261821822747" type="line" smooth="yes"/>
      <point x="209.79263751807537" y="77.6839409842903"/>
      <point x="228.31654777419453" y="16.076853525526303"/>
      <point x="276.34380241983524" y="-16.761885963113997" type="curve" smooth="yes"/>
      <point x="316.20237999903384" y="-44.09856084070309"/>
      <point x="379.74861648611704" y="-34.99494461814169"/>
      <point x="409.45928453805385" y="12.56844680748759" type="curve"/>
      <point x="1339.52774150682" y="1279.3924724512285" type="line" smooth="yes"/>
      <point x="1368.6707041980349" y="1319.0874056994692"/>
      <point x="1364.1905912129214" y="1384.7098207105455"/>
    </contour>
    <contour>
      <point x="533.0366154473558" y="1071.4689680502354" type="curve" smooth="yes"/>
      <point x="533.0366154473558" y="976.4689680502354"/>
      <point x="461.03661544735576" y="900.4689680502354"/>
      <point x="363.03661544735576" y="900.4689680502354" type="curve" smooth="yes"/>
      <point x="273.03661544735576" y="900.4689680502354"/>
      <point x="195.03661544735576" y="979.4689680502354"/>
      <point x="195.03661544735576" y="1067.4689680502354" type="curve" smooth="yes"/>
      <point x="195.03661544735576" y="1156.4689680502354"/>
      <point x="272.03661544735576" y="1238.4689680502354"/>
      <point x="366.03661544735576" y="1238.4689680502354" type="curve" smooth="yes"/>
      <point x="458.03661544735576" y="1238.4689680502354"/>
      <point x="533.0366154473558" y="1158.4689680502354"/>
    </contour>
    <contour>
      <point x="369.03661544735576" y="1429.4689680502354" type="curve" smooth="yes"/>
      <point x="150.03661544735576" y="1429.4689680502354"/>
      <point x="6.036615447355757" y="1263.4689680502354"/>
      <point x="6.036615447355757" y="1053.4689680502354" type="curve" smooth="yes"/>
      <point x="6.036615447355757" y="861.4689680502354"/>
      <point x="173.03661544735576" y="709.4689680502354"/>
      <point x="364.03661544735576" y="709.4689680502354" type="curve" smooth="yes"/>
      <point x="565.0366154473558" y="709.4689680502354"/>
      <point x="722.0366154473558" y="871.4689680502354"/>
      <point x="722.0366154473558" y="1070.4689680502354" type="curve" smooth="yes"/>
      <point x="722.0366154473558" y="1263.4689680502354"/>
      <point x="569.0366154473558" y="1429.4689680502354"/>
    </contour>
    <contour>
      <point x="1396.936218101212" y="364.1634810136569" type="curve" smooth="yes"/>
      <point x="1396.936218101212" y="269.1634810136569"/>
      <point x="1324.936218101212" y="193.1634810136569"/>
      <point x="1226.936218101212" y="193.1634810136569" type="curve" smooth="yes"/>
      <point x="1136.936218101212" y="193.1634810136569"/>
      <point x="1058.936218101212" y="272.1634810136569"/>
      <point x="1058.936218101212" y="360.1634810136569" type="curve" smooth="yes"/>
      <point x="1058.936218101212" y="449.1634810136569"/>
      <point x="1135.936218101212" y="531.1634810136569"/>
      <point x="1229.936218101212" y="531.1634810136569" type="curve" smooth="yes"/>
      <point x="1321.936218101212" y="531.1634810136569"/>
      <point x="1396.936218101212" y="451.1634810136569"/>
    </contour>
    <contour>
      <point x="1232.936218101212" y="722.1634810136569" type="curve" smooth="yes"/>
      <point x="1013.9362181012119" y="722.1634810136569"/>
      <point x="869.9362181012119" y="556.1634810136569"/>
      <point x="869.9362181012119" y="346.1634810136569" type="curve" smooth="yes"/>
      <point x="869.9362181012119" y="154.1634810136569"/>
      <point x="1036.936218101212" y="2.163481013656906"/>
      <point x="1227.936218101212" y="2.163481013656906" type="curve" smooth="yes"/>
      <point x="1428.936218101212" y="2.163481013656906"/>
      <point x="1585.936218101212" y="164.1634810136569"/>
      <point x="1585.936218101212" y="363.1634810136569" type="curve" smooth="yes"/>
      <point x="1585.936218101212" y="556.1634810136569"/>
      <point x="1432.936218101212" y="722.1634810136569"/>
    </contour>
  </outline>
</glyph>
<glyph name="ampersand" format="2">
	<unicode hex="0026"/>
	<advance width="1216"/>
	<outline>
		<contour>
			<point x="486" y="630" type="curve"/>
			<point x="369" y="569"/>
			<point x="264" y="493"/>
			<point x="264" y="393" type="curve" smooth="yes"/>
			<point x="264" y="275"/>
			<point x="362" y="185"/>
			<point x="495" y="185" type="curve" smooth="yes"/>
			<point x="598" y="185"/>
			<point x="691" y="249"/>
			<point x="744" y="311" type="curve"/>
			<point x="660" y="415"/>
			<point x="575" y="521"/>
		</contour>
		<contour>
			<point x="536" y="864" type="curve"/>
			<point x="646" y="931"/>
			<point x="693" y="996"/>
			<point x="693" y="1062" type="curve" smooth="yes"/>
			<point x="693" y="1133"/>
			<point x="634" y="1189"/>
			<point x="560" y="1189" type="curve" smooth="yes"/>
			<point x="483" y="1189"/>
			<point x="420" y="1138"/>
			<point x="420" y="1060" type="curve" smooth="yes"/>
			<point x="420" y="1004"/>
			<point x="456" y="963"/>
		</contour>
		<contour>
			<point x="883" y="1061" type="curve" smooth="yes"/>
			<point x="883" y="923"/>
			<point x="801" y="812"/>
			<point x="653" y="720" type="curve"/>
			<point x="724" y="632"/>
			<point x="785" y="558"/>
			<point x="837" y="494" type="curve"/>
			<point x="851" y="544"/>
			<point x="859" y="593"/>
			<point x="861" y="646" type="curve" smooth="yes"/>
			<point x="862" y="693"/>
			<point x="904" y="735"/>
			<point x="956" y="735" type="curve" smooth="yes"/>
			<point x="995" y="735"/>
			<point x="1051" y="703"/>
			<point x="1051" y="657" type="curve" smooth="yes"/>
			<point x="1051" y="540"/>
			<point x="1026" y="429"/>
			<point x="975" y="325" type="curve"/>
			<point x="1074" y="200"/>
			<point x="1121" y="140"/>
			<point x="1128" y="131" type="curve" smooth="yes"/>
			<point x="1138" y="117"/>
			<point x="1141" y="99"/>
			<point x="1141" y="79" type="curve" smooth="yes"/>
			<point x="1141" y="26"/>
			<point x="1095" y="-13"/>
			<point x="1043" y="-13" type="curve" smooth="yes"/>
			<point x="1014" y="-13"/>
			<point x="987" y="2"/>
			<point x="968" y="27" type="curve" smooth="yes"/>
			<point x="927" y="83"/>
			<point x="890" y="130"/>
			<point x="863" y="165" type="curve"/>
			<point x="775" y="70"/>
			<point x="653" y="-6"/>
			<point x="494" y="-6" type="curve" smooth="yes"/>
			<point x="264" y="-6"/>
			<point x="76" y="157"/>
			<point x="76" y="379" type="curve" smooth="yes"/>
			<point x="76" y="580"/>
			<point x="193" y="681"/>
			<point x="369" y="776" type="curve"/>
			<point x="310" y="853"/>
			<point x="231" y="949"/>
			<point x="231" y="1068" type="curve" smooth="yes"/>
			<point x="231" y="1241"/>
			<point x="384" y="1381"/>
			<point x="551" y="1381" type="curve" smooth="yes"/>
			<point x="738" y="1381"/>
			<point x="883" y="1243"/>
		</contour>
	</outline>
</glyph>
<glyph name="quotesingle" format="2">
	<unicode hex="0027"/>
	<advance width="382"/>
	<outline>
		<contour>
			<point x="185" y="930" type="curve" smooth="yes"/>
			<point x="129" y="930"/>
			<point x="107" y="977"/>
			<point x="105" y="1031" type="curve"/>
			<point x="75" y="1351" type="line"/>
			<point x="73" y="1412"/>
			<point x="137" y="1450"/>
			<point x="187" y="1451" type="curve" smooth="yes"/>
			<point x="240" y="1452"/>
			<point x="311" y="1412"/>
			<point x="307" y="1348" type="curve"/>
			<point x="265" y="1031" type="line"/>
			<point x="261" y="975"/>
			<point x="239" y="930"/>
		</contour>
	</outline>
</glyph>
<glyph name="parenleft" format="2">
	<unicode hex="0028"/>
	<advance width="705"/>
	<outline>
		<contour>
			<point x="631" y="-276" type="curve" smooth="yes"/>
			<point x="631" y="-331"/>
			<point x="589" y="-380"/>
			<point x="533" y="-380" type="curve" smooth="yes"/>
			<point x="509" y="-380"/>
			<point x="486" y="-372"/>
			<point x="469" y="-358" type="curve" smooth="yes"/>
			<point x="258" y="-196"/>
			<point x="75" y="91"/>
			<point x="75" y="440" type="curve" smooth="yes"/>
			<point x="75" y="788"/>
			<point x="253" y="1076"/>
			<point x="463" y="1238" type="curve" smooth="yes"/>
			<point x="480" y="1252"/>
			<point x="503" y="1260"/>
			<point x="527" y="1260" type="curve" smooth="yes"/>
			<point x="583" y="1260"/>
			<point x="625" y="1211"/>
			<point x="625" y="1157" type="curve" smooth="yes"/>
			<point x="625" y="1126"/>
			<point x="610" y="1098"/>
			<point x="585" y="1080" type="curve" smooth="yes"/>
			<point x="420" y="951"/>
			<point x="275" y="717"/>
			<point x="275" y="441" type="curve" smooth="yes"/>
			<point x="275" y="164"/>
			<point x="424" y="-72"/>
			<point x="590" y="-200" type="curve" smooth="yes"/>
			<point x="617" y="-219"/>
			<point x="631" y="-245"/>
		</contour>
	</outline>
</glyph>
<glyph name="asterisk" format="2">
	<unicode hex="002A"/>
	<advance width="955"/>
	<outline>
		<contour>
			<point x="-24" y="1236" type="curve" smooth="yes"/>
			<point x="-24" y="1286"/>
			<point x="13" y="1337"/>
			<point x="67" y="1337" type="curve" smooth="yes"/>
			<point x="89" y="1337"/>
			<point x="107" y="1331"/>
			<point x="122" y="1322" type="curve" smooth="yes"/>
			<point x="390" y="1159" type="line"/>
			<point x="386" y="1362" type="line"/>
			<point x="386" y="1378" type="line" smooth="yes"/>
			<point x="386" y="1424"/>
			<point x="441" y="1459"/>
			<point x="481" y="1459" type="curve" smooth="yes"/>
			<point x="533" y="1459"/>
			<point x="576" y="1415"/>
			<point x="576" y="1364" type="curve" smooth="yes"/>
			<point x="580" y="1160" type="line"/>
			<point x="834" y="1323" type="line" smooth="yes"/>
			<point x="850" y="1333"/>
			<point x="868" y="1339"/>
			<point x="890" y="1339" type="curve" smooth="yes"/>
			<point x="933" y="1339"/>
			<point x="981" y="1299"/>
			<point x="981" y="1253" type="curve" smooth="yes"/>
			<point x="981" y="1215"/>
			<point x="966" y="1182"/>
			<point x="936" y="1163" type="curve" smooth="yes"/>
			<point x="666" y="990" type="line"/>
			<point x="935" y="827" type="line" smooth="yes"/>
			<point x="963" y="810"/>
			<point x="981" y="783"/>
			<point x="981" y="750" type="curve" smooth="yes"/>
			<point x="981" y="700"/>
			<point x="945" y="650"/>
			<point x="890" y="650" type="curve" smooth="yes"/>
			<point x="869" y="650"/>
			<point x="851" y="656"/>
			<point x="836" y="665" type="curve" smooth="yes"/>
			<point x="583" y="818" type="line"/>
			<point x="588" y="549" type="line"/>
			<point x="588" y="533" type="line" smooth="yes"/>
			<point x="588" y="486"/>
			<point x="533" y="452"/>
			<point x="493" y="452" type="curve" smooth="yes"/>
			<point x="441" y="452"/>
			<point x="398" y="496"/>
			<point x="398" y="547" type="curve" smooth="yes"/>
			<point x="393" y="817" type="line"/>
			<point x="122" y="643" type="line" smooth="yes"/>
			<point x="105" y="632"/>
			<point x="86" y="628"/>
			<point x="66" y="628" type="curve" smooth="yes"/>
			<point x="11" y="628"/>
			<point x="-25" y="678"/>
			<point x="-25" y="728" type="curve" smooth="yes"/>
			<point x="-25" y="761"/>
			<point x="-7" y="786"/>
			<point x="20" y="803" type="curve" smooth="yes"/>
			<point x="307" y="987" type="line"/>
			<point x="23" y="1160" type="line" smooth="yes"/>
			<point x="-5" y="1177"/>
			<point x="-24" y="1203"/>
		</contour>
	</outline>
</glyph>
<glyph name="plus" format="2">
	<unicode hex="002B"/>
	<advance width="1162"/>
	<outline>
		<contour>
			<point x="574" y="969" type="curve" smooth="yes"/>
			<point x="576" y="969" type="line" smooth="yes"/>
			<point x="631" y="969"/>
			<point x="676" y="924"/>
			<point x="676" y="869" type="curve" smooth="yes"/>
			<point x="676" y="868" type="line"/>
			<point x="680" y="586" type="line"/>
			<point x="963" y="586" type="line" smooth="yes"/>
			<point x="1018" y="586"/>
			<point x="1063" y="541"/>
			<point x="1063" y="486" type="curve" smooth="yes"/>
			<point x="1063" y="431"/>
			<point x="1018" y="386"/>
			<point x="963" y="386" type="curve" smooth="yes"/>
			<point x="682" y="386" type="line"/>
			<point x="685" y="103" type="line"/>
			<point x="685" y="100" type="line" smooth="yes"/>
			<point x="685" y="45"/>
			<point x="640" y="0"/>
			<point x="585" y="0" type="curve" smooth="yes"/>
			<point x="530" y="0"/>
			<point x="485" y="45"/>
			<point x="485" y="100" type="curve" smooth="yes"/>
			<point x="482" y="386" type="line"/>
			<point x="200" y="386" type="line" smooth="yes"/>
			<point x="145" y="386"/>
			<point x="100" y="431"/>
			<point x="100" y="486" type="curve" smooth="yes"/>
			<point x="100" y="541"/>
			<point x="145" y="586"/>
			<point x="200" y="586" type="curve" smooth="yes"/>
			<point x="480" y="586" type="line"/>
			<point x="476" y="866" type="line"/>
			<point x="476" y="869" type="line" smooth="yes"/>
			<point x="476" y="923"/>
			<point x="520" y="968"/>
		</contour>
	</outline>
</glyph>
<glyph name="comma" format="2">
  <advance width="505"/>
  <unicode hex="002C"/>
  <outline>
    <contour>
      <point x="75.0" y="139.0" type="curve" smooth="yes"/>
      <point x="75.0" y="223.0"/>
      <point x="145.0" y="308.0"/>
      <point x="231.0" y="308.0" type="curve" smooth="yes"/>
      <point x="264.0" y="308.0"/>
      <point x="295.0" y="303.0"/>
      <point x="321.0" y="289.0" type="curve" smooth="yes"/>
      <point x="431.0" y="230.0"/>
      <point x="456.0" y="114.0"/>
      <point x="409.0" y="-37.0" type="curve" smooth="yes"/>
      <point x="374.0" y="-151.0"/>
      <point x="313.0" y="-238.0"/>
      <point x="225.0" y="-296.0" type="curve" smooth="yes"/>
      <point x="209.0" y="-307.0"/>
      <point x="190.0" y="-314.0"/>
      <point x="172.0" y="-314.0" type="curve" smooth="yes"/>
      <point x="119.0" y="-314.0"/>
      <point x="77.0" y="-268.0"/>
      <point x="77.0" y="-214.0" type="curve" smooth="yes"/>
      <point x="77.0" y="-182.0"/>
      <point x="95.0" y="-155.0"/>
      <point x="123.0" y="-136.0" type="curve" smooth="yes"/>
      <point x="164.0" y="-109.0"/>
      <point x="193.0" y="-73.0"/>
      <point x="212.0" y="-28.0" type="curve"/>
      <point x="134.0" y="-13.0"/>
      <point x="75.0" y="57.0"/>
    </contour>
  </outline>
</glyph>
<glyph name="hyphen" format="2">
	<unicode hex="002D"/>
	<advance width="1162"/>
	<outline>
		<contour>
			<point x="200" y="674" type="curve" smooth="yes"/>
			<point x="963" y="674" type="line" smooth="yes"/>
			<point x="1018" y="674"/>
			<point x="1063" y="629"/>
			<point x="1063" y="574" type="curve" smooth="yes"/>
			<point x="1063" y="519"/>
			<point x="1018" y="474"/>
			<point x="963" y="474" type="curve" smooth="yes"/>
			<point x="200" y="474" type="line" smooth="yes"/>
			<point x="145" y="474"/>
			<point x="100" y="519"/>
			<point x="100" y="574" type="curve" smooth="yes"/>
			<point x="100" y="629"/>
			<point x="145" y="674"/>
		</contour>
	</outline>
</glyph>
<glyph name="period" format="2">
  <advance width="489"/>
  <unicode hex="002E"/>
  <outline>
    <contour>
      <point x="244.0" y="-4.0" type="curve" smooth="yes"/>
      <point x="153.0" y="-4.0"/>
      <point x="75.0" y="69.0"/>
      <point x="75.0" y="161.0" type="curve" smooth="yes"/>
      <point x="75.0" y="253.0"/>
      <point x="153.0" y="325.0"/>
      <point x="244.0" y="325.0" type="curve" smooth="yes"/>
      <point x="335.0" y="325.0"/>
      <point x="414.0" y="253.0"/>
      <point x="414.0" y="161.0" type="curve" smooth="yes"/>
      <point x="414.0" y="69.0"/>
      <point x="335.0" y="-4.0"/>
    </contour>
  </outline>
</glyph>
<glyph name="slash" format="2">
  <advance width="1011"/>
  <unicode hex="002F"/>
  <outline>
    <contour>
      <point x="874.0" y="1447.0" type="curve" smooth="yes"/>
      <point x="934.0" y="1420.0"/>
      <point x="948.0" y="1357.0"/>
      <point x="928.0" y="1312.0" type="curve" smooth="yes"/>
      <point x="266.0" y="-19.0" type="line"/>
      <point x="245.0" y="-71.0"/>
      <point x="184.0" y="-91.0"/>
      <point x="140.0" y="-71.0" type="curve" smooth="yes"/>
      <point x="87.0" y="-47.0"/>
      <point x="59.0" y="10.0"/>
      <point x="85.0" y="65.0" type="curve" smooth="yes"/>
      <point x="747.0" y="1396.0" type="line" smooth="yes"/>
      <point x="770.0" y="1439.0"/>
      <point x="822.0" y="1471.0"/>
    </contour>
  </outline>
</glyph>
<glyph name="zero" format="2">
  <advance width="1200"/>
  <unicode hex="0030"/>
  <outline>
    <contour>
      <point x="600.5" y="175.0" type="curve" smooth="yes"/>
      <point x="838.5" y="175.0"/>
      <point x="934.5" y="418.0"/>
      <point x="934.5" y="696.0" type="curve" smooth="yes"/>
      <point x="934.5" y="956.0"/>
      <point x="835.5" y="1185.0"/>
      <point x="603.5" y="1185.0" type="curve" smooth="yes"/>
      <point x="366.5" y="1185.0"/>
      <point x="265.5" y="953.0"/>
      <point x="265.5" y="682.0" type="curve" smooth="yes"/>
      <point x="265.5" y="409.0"/>
      <point x="363.5" y="175.0"/>
    </contour>
    <contour>
      <point x="596.5" y="-25.0" type="curve" smooth="yes"/>
      <point x="222.5" y="-25.0"/>
      <point x="65.5" y="328.0"/>
      <point x="65.5" y="680.0" type="curve" smooth="yes"/>
      <point x="65.5" y="1038.0"/>
      <point x="225.5" y="1379.0"/>
      <point x="597.5" y="1385.0" type="curve" smooth="yes"/>
      <point x="614.5" y="1385.0" type="line" smooth="yes"/>
      <point x="979.5" y="1377.0"/>
      <point x="1134.5" y="1036.0"/>
      <point x="1134.5" y="688.0" type="curve" smooth="yes"/>
      <point x="1134.5" y="321.0"/>
      <point x="975.5" y="-25.0"/>
    </contour>
  </outline>
</glyph>
<glyph name="one" format="2">
	<unicode hex="0031"/>
	<advance width="822"/>
	<outline>
		<contour>
			<point x="191" y="983" type="curve" smooth="yes"/>
			<point x="146" y="983"/>
			<point x="103" y="1033"/>
			<point x="103" y="1076" type="curve" smooth="yes"/>
			<point x="103" y="1118"/>
			<point x="126" y="1171"/>
			<point x="175" y="1180" type="curve" smooth="yes"/>
			<point x="226" y="1190"/>
			<point x="281" y="1237"/>
			<point x="332" y="1331" type="curve" smooth="yes"/>
			<point x="350" y="1365"/>
			<point x="379" y="1387"/>
			<point x="415" y="1387" type="curve" smooth="yes"/>
			<point x="472" y="1387"/>
			<point x="523" y="1351"/>
			<point x="523" y="1292" type="curve" smooth="yes"/>
			<point x="522" y="186" type="line"/>
			<point x="641" y="186" type="line" smooth="yes"/>
			<point x="688" y="186"/>
			<point x="722" y="131"/>
			<point x="722" y="91" type="curve" smooth="yes"/>
			<point x="722" y="39"/>
			<point x="679" y="-4"/>
			<point x="627" y="-4" type="curve" smooth="yes"/>
			<point x="195" y="-4" type="line" smooth="yes"/>
			<point x="143" y="-4"/>
			<point x="100" y="39"/>
			<point x="100" y="91" type="curve" smooth="yes"/>
			<point x="100" y="131"/>
			<point x="134" y="186"/>
			<point x="181" y="186" type="curve" smooth="yes"/>
			<point x="322" y="186" type="line"/>
			<point x="322" y="1025" type="line"/>
			<point x="284.711" y="1003.14"/>
			<point x="248.762" y="983"/>
		</contour>
	</outline>
</glyph>
<glyph name="two" format="2">
  <advance width="1200"/>
  <unicode hex="0032"/>
  <outline>
    <contour>
      <point x="214.0" y="-3.0" type="line" smooth="yes"/>
      <point x="159.0" y="-3.0"/>
      <point x="114.0" y="42.0"/>
      <point x="114.0" y="97.0" type="curve" smooth="yes"/>
      <point x="114.0" y="113.0"/>
      <point x="118.0" y="131.0"/>
      <point x="126.0" y="145.0" type="curve" smooth="yes"/>
      <point x="196.0" y="269.0"/>
      <point x="286.0" y="380.0"/>
      <point x="394.0" y="474.0" type="curve" smooth="yes"/>
      <point x="561.0" y="620.0"/>
      <point x="817.0" y="708.0"/>
      <point x="817.0" y="957.0" type="curve" smooth="yes"/>
      <point x="817.0" y="1102.0"/>
      <point x="709.0" y="1215.0"/>
      <point x="569.0" y="1215.0" type="curve" smooth="yes"/>
      <point x="453.0" y="1215.0"/>
      <point x="362.0" y="1128.0"/>
      <point x="342.0" y="1035.0" type="curve" smooth="yes"/>
      <point x="332.0" y="992.0"/>
      <point x="290.0" y="955.0"/>
      <point x="243.0" y="955.0" type="curve" smooth="yes"/>
      <point x="188.0" y="955.0"/>
      <point x="143.0" y="1000.0"/>
      <point x="143.0" y="1053.0" type="curve" smooth="yes"/>
      <point x="143.0" y="1061.0"/>
      <point x="144.0" y="1068.0"/>
      <point x="145.0" y="1075.0" type="curve"/>
      <point x="183.0" y="1256.0"/>
      <point x="346.0" y="1415.0"/>
      <point x="571.0" y="1415.0" type="curve" smooth="yes"/>
      <point x="830.0" y="1415.0"/>
      <point x="1017.0" y="1215.0"/>
      <point x="1017.0" y="961.0" type="curve" smooth="yes"/>
      <point x="1017.0" y="610.0"/>
      <point x="700.0" y="477.0"/>
      <point x="528.0" y="328.0" type="curve" smooth="yes"/>
      <point x="483.0" y="288.0"/>
      <point x="438.0" y="242.0"/>
      <point x="401.0" y="197.0" type="curve"/>
      <point x="986.0" y="197.0" type="line" smooth="yes"/>
      <point x="1041.0" y="197.0"/>
      <point x="1086.0" y="152.0"/>
      <point x="1086.0" y="97.0" type="curve" smooth="yes"/>
      <point x="1086.0" y="42.0"/>
      <point x="1041.0" y="-3.0"/>
      <point x="986.0" y="-3.0" type="curve" smooth="yes"/>
    </contour>
  </outline>
</glyph>
<glyph name="three" format="2">
	<unicode hex="0033"/>
	<advance width="1200"/>
	<outline>
		<contour>
			<point x="813" y="990" type="curve" smooth="yes"/>
			<point x="813" y="1090"/>
			<point x="716" y="1177"/>
			<point x="603" y="1177" type="curve" smooth="yes"/>
			<point x="514" y="1177"/>
			<point x="429" y="1117"/>
			<point x="408" y="1061" type="curve" smooth="yes"/>
			<point x="389" y="1011"/>
			<point x="359" y="980"/>
			<point x="298" y="980" type="curve" smooth="yes"/>
			<point x="254" y="980"/>
			<point x="207" y="1026"/>
			<point x="207" y="1069" type="curve" smooth="yes"/>
			<point x="207" y="1087"/>
			<point x="211" y="1101"/>
			<point x="214" y="1111" type="curve" smooth="yes"/>
			<point x="268" y="1255"/>
			<point x="409" y="1376"/>
			<point x="603" y="1376" type="curve" smooth="yes"/>
			<point x="825" y="1376"/>
			<point x="1014" y="1209"/>
			<point x="1014" y="982" type="curve" smooth="yes"/>
			<point x="1014" y="866"/>
			<point x="957" y="774"/>
			<point x="893" y="712" type="curve"/>
			<point x="986" y="648"/>
			<point x="1045" y="548"/>
			<point x="1045" y="419" type="curve" smooth="yes"/>
			<point x="1045" y="164"/>
			<point x="826" y="-17"/>
			<point x="579" y="-17" type="curve" smooth="yes"/>
			<point x="400" y="-17"/>
			<point x="255" y="83"/>
			<point x="174" y="195" type="curve" smooth="yes"/>
			<point x="162" y="212"/>
			<point x="155" y="233"/>
			<point x="155" y="254" type="curve" smooth="yes"/>
			<point x="155" y="308"/>
			<point x="207" y="345"/>
			<point x="260" y="345" type="curve" smooth="yes"/>
			<point x="293" y="345"/>
			<point x="319" y="329"/>
			<point x="337" y="305" type="curve" smooth="yes"/>
			<point x="383" y="245"/>
			<point x="473" y="184"/>
			<point x="573" y="184" type="curve" smooth="yes"/>
			<point x="720" y="184"/>
			<point x="845" y="286"/>
			<point x="845" y="415" type="curve" smooth="yes"/>
			<point x="845" y="550"/>
			<point x="751" y="591"/>
			<point x="584" y="592" type="curve" smooth="yes"/>
			<point x="532" y="592"/>
			<point x="488" y="633"/>
			<point x="488" y="691" type="curve" smooth="yes"/>
			<point x="488" y="764"/>
			<point x="549" y="797"/>
			<point x="601" y="797" type="curve" smooth="yes"/>
			<point x="723" y="797"/>
			<point x="813" y="856"/>
		</contour>
	</outline>
</glyph>
<glyph name="four" format="2">
  <advance width="1200"/>
  <unicode hex="0034"/>
  <outline>
    <contour>
      <point x="676.5" y="573.0" type="line"/>
      <point x="674.5" y="989.0" type="line"/>
      <point x="330.5" y="575.0" type="line"/>
    </contour>
    <contour>
      <point x="877.5" y="74.0" type="line" smooth="yes"/>
      <point x="877.5" y="21.0"/>
      <point x="832.5" y="-21.0"/>
      <point x="777.5" y="-21.0" type="curve" smooth="yes"/>
      <point x="722.5" y="-21.0"/>
      <point x="677.5" y="21.0"/>
      <point x="677.5" y="74.0" type="curve" smooth="yes"/>
      <point x="677.5" y="75.0" type="line"/>
      <point x="676.5" y="371.0" type="line"/>
      <point x="123.5" y="373.0" type="line" smooth="yes"/>
      <point x="70.5" y="373.0"/>
      <point x="23.5" y="417.0"/>
      <point x="23.5" y="470.0" type="curve" smooth="yes"/>
      <point x="23.5" y="493.0"/>
      <point x="29.5" y="515.0"/>
      <point x="44.5" y="534.0" type="curve" smooth="yes"/>
      <point x="695.5" y="1322.0" type="line" smooth="yes"/>
      <point x="714.5" y="1346.0"/>
      <point x="741.5" y="1359.0"/>
      <point x="771.5" y="1359.0" type="curve" smooth="yes"/>
      <point x="827.5" y="1359.0"/>
      <point x="873.5" y="1317.0"/>
      <point x="873.5" y="1262.0" type="curve" smooth="yes"/>
      <point x="876.5" y="573.0" type="line"/>
      <point x="1075.5" y="572.0" type="line"/>
      <point x="1076.5" y="572.0" type="line" smooth="yes"/>
      <point x="1131.5" y="572.0"/>
      <point x="1176.5" y="528.0"/>
      <point x="1176.5" y="472.0" type="curve" smooth="yes"/>
      <point x="1176.5" y="417.0"/>
      <point x="1132.5" y="370.0"/>
      <point x="1076.5" y="370.0" type="curve" smooth="yes"/>
      <point x="1074.5" y="370.0" type="line"/>
      <point x="876.5" y="371.0" type="line"/>
      <point x="877.5" y="75.0" type="line"/>
    </contour>
  </outline>
</glyph>
<glyph name="five" format="2">
  <advance width="1200"/>
  <unicode hex="0035"/>
  <outline>
    <contour>
      <point x="261.5" y="590.0" type="curve" smooth="yes"/>
      <point x="215.5" y="590.0"/>
      <point x="157.5" y="622.0"/>
      <point x="157.5" y="673.0" type="curve" smooth="yes"/>
      <point x="157.5" y="685.0"/>
      <point x="159.5" y="696.0"/>
      <point x="160.5" y="701.0" type="curve" smooth="yes"/>
      <point x="264.5" y="1293.0" type="line" smooth="yes"/>
      <point x="272.5" y="1342.0"/>
      <point x="314.5" y="1377.0"/>
      <point x="362.5" y="1377.0" type="curve" smooth="yes"/>
      <point x="974.5" y="1377.0" type="line" smooth="yes"/>
      <point x="1023.5" y="1377.0"/>
      <point x="1074.5" y="1336.0"/>
      <point x="1074.5" y="1285.0" type="curve" smooth="yes"/>
      <point x="1074.5" y="1226.0"/>
      <point x="1034.5" y="1177.0"/>
      <point x="974.5" y="1177.0" type="curve" smooth="yes"/>
      <point x="446.5" y="1177.0" type="line"/>
      <point x="400.5" y="918.0" type="line"/>
      <point x="463.5" y="945.0"/>
      <point x="524.5" y="957.0"/>
      <point x="590.5" y="957.0" type="curve" smooth="yes"/>
      <point x="871.5" y="957.0"/>
      <point x="1092.5" y="747.0"/>
      <point x="1092.5" y="469.0" type="curve" smooth="yes"/>
      <point x="1092.5" y="188.0"/>
      <point x="866.5" y="-25.0"/>
      <point x="581.5" y="-25.0" type="curve" smooth="yes"/>
      <point x="363.5" y="-25.0"/>
      <point x="193.5" y="105.0"/>
      <point x="117.5" y="258.0" type="curve" smooth="yes"/>
      <point x="110.5" y="273.0"/>
      <point x="107.5" y="289.0"/>
      <point x="107.5" y="307.0" type="curve" smooth="yes"/>
      <point x="107.5" y="352.0"/>
      <point x="154.5" y="395.0"/>
      <point x="201.5" y="395.0" type="curve" smooth="yes"/>
      <point x="243.5" y="395.0"/>
      <point x="278.5" y="377.0"/>
      <point x="297.5" y="341.0" type="curve" smooth="yes"/>
      <point x="345.5" y="250.0"/>
      <point x="444.5" y="175.0"/>
      <point x="582.5" y="175.0" type="curve" smooth="yes"/>
      <point x="757.5" y="175.0"/>
      <point x="892.5" y="301.0"/>
      <point x="892.5" y="467.0" type="curve" smooth="yes"/>
      <point x="892.5" y="632.0"/>
      <point x="763.5" y="755.0"/>
      <point x="577.5" y="755.0" type="curve" smooth="yes"/>
      <point x="483.5" y="755.0"/>
      <point x="382.5" y="689.0"/>
      <point x="340.5" y="631.0" type="curve" smooth="yes"/>
      <point x="322.5" y="605.0"/>
      <point x="294.5" y="590.0"/>
    </contour>
  </outline>
</glyph>
<glyph name="six" format="2">
  <advance width="1200"/>
  <unicode hex="0036"/>
  <outline>
    <contour>
      <point x="642" y="-18" type="curve" smooth="yes"/>
      <point x="259" y="-18"/>
      <point x="77" y="353"/>
      <point x="77" y="713" type="curve" smooth="yes"/>
      <point x="77" y="1067"/>
      <point x="271" y="1411"/>
      <point x="646" y="1411" type="curve" smooth="yes"/>
      <point x="837" y="1411"/>
      <point x="982" y="1305"/>
      <point x="1057" y="1179" type="curve" smooth="yes"/>
      <point x="1067" y="1164"/>
      <point x="1071" y="1144"/>
      <point x="1071" y="1124" type="curve" smooth="yes"/>
      <point x="1071" y="1080"/>
      <point x="1028" y="1031"/>
      <point x="980" y="1031" type="curve" smooth="yes"/>
      <point x="938" y="1031"/>
      <point x="903" y="1048"/>
      <point x="883" y="1080" type="curve" smooth="yes"/>
      <point x="840" y="1151"/>
      <point x="755" y="1212"/>
      <point x="646" y="1212" type="curve" smooth="yes"/>
      <point x="418" y="1212"/>
      <point x="302" y="1015"/>
      <point x="281" y="783" type="curve"/>
      <point x="362" y="868"/>
      <point x="489" y="937"/>
      <point x="624" y="937" type="curve" smooth="yes"/>
      <point x="908" y="937"/>
      <point x="1124" y="728"/>
      <point x="1124" y="450" type="curve" smooth="yes"/>
      <point x="1124" y="201"/>
      <point x="925" y="-18"/>
    </contour>
    <contour>
      <point x="646" y="181" type="curve" smooth="yes"/>
      <point x="810" y="181"/>
      <point x="924" y="300"/>
      <point x="924" y="460" type="curve" smooth="yes"/>
      <point x="924" y="609"/>
      <point x="793" y="739"/>
      <point x="636" y="739" type="curve" smooth="yes"/>
      <point x="477" y="739"/>
      <point x="349" y="608"/>
      <point x="349" y="457" type="curve" smooth="yes"/>
      <point x="349" y="305"/>
      <point x="495" y="181"/>
    </contour>
  </outline>
</glyph>
<glyph name="seven" format="2">
	<unicode hex="0037"/>
	<advance width="1223"/>
	<outline>
		<contour>
			<point x="1023" y="1380" type="line" smooth="yes"/>
			<point x="1074" y="1380"/>
			<point x="1123" y="1341"/>
			<point x="1123" y="1284" type="curve" smooth="yes"/>
			<point x="1123" y="1268"/>
			<point x="1119" y="1253"/>
			<point x="1112" y="1239" type="curve" smooth="yes"/>
			<point x="911" y="853"/>
			<point x="743" y="454"/>
			<point x="606" y="44" type="curve" smooth="yes"/>
			<point x="592" y="-2"/>
			<point x="553" y="-25"/>
			<point x="503" y="-25" type="curve" smooth="yes"/>
			<point x="459" y="-25"/>
			<point x="411" y="18"/>
			<point x="411" y="62" type="curve" smooth="yes"/>
			<point x="411" y="76"/>
			<point x="412" y="91"/>
			<point x="417" y="102" type="curve" smooth="yes"/>
			<point x="541" y="472"/>
			<point x="689" y="832"/>
			<point x="863" y="1180" type="curve"/>
			<point x="200" y="1180" type="line" smooth="yes"/>
			<point x="145" y="1180"/>
			<point x="100" y="1225"/>
			<point x="100" y="1280" type="curve" smooth="yes"/>
			<point x="100" y="1335"/>
			<point x="145" y="1380"/>
			<point x="200" y="1380" type="curve" smooth="yes"/>
		</contour>
	</outline>
</glyph>
<glyph name="eight" format="2">
	<unicode hex="0038"/>
	<advance width="1121"/>
	<outline>
		<contour>
			<point x="976" y="984" type="curve" smooth="yes"/>
			<point x="976" y="871"/>
			<point x="929" y="779"/>
			<point x="838" y="707" type="curve"/>
			<point x="938" y="640"/>
			<point x="1021" y="528"/>
			<point x="1021" y="382" type="curve" smooth="yes"/>
			<point x="1021" y="140"/>
			<point x="796" y="-19"/>
			<point x="560" y="-19" type="curve" smooth="yes"/>
			<point x="322" y="-19"/>
			<point x="100" y="138"/>
			<point x="100" y="384" type="curve" smooth="yes"/>
			<point x="100" y="533"/>
			<point x="183" y="643"/>
			<point x="281" y="708" type="curve"/>
			<point x="200" y="774"/>
			<point x="145" y="873"/>
			<point x="145" y="999" type="curve" smooth="yes"/>
			<point x="145" y="1214"/>
			<point x="342" y="1380"/>
			<point x="558" y="1380" type="curve" smooth="yes"/>
			<point x="782" y="1380"/>
			<point x="976" y="1212"/>
		</contour>
		<contour>
			<point x="344" y="996" type="curve" smooth="yes"/>
			<point x="344" y="891"/>
			<point x="444" y="807"/>
			<point x="561" y="807" type="curve" smooth="yes"/>
			<point x="676" y="807"/>
			<point x="776" y="881"/>
			<point x="776" y="995" type="curve" smooth="yes"/>
			<point x="776" y="1097"/>
			<point x="670" y="1181"/>
			<point x="564" y="1181" type="curve" smooth="yes"/>
			<point x="445" y="1181"/>
			<point x="344" y="1101"/>
		</contour>
		<contour>
			<point x="819" y="386" type="curve" smooth="yes"/>
			<point x="819" y="502"/>
			<point x="695" y="590"/>
			<point x="558" y="590" type="curve" smooth="yes"/>
			<point x="423" y="590"/>
			<point x="300" y="509"/>
			<point x="300" y="386" type="curve" smooth="yes"/>
			<point x="300" y="267"/>
			<point x="421" y="181"/>
			<point x="560" y="181" type="curve" smooth="yes"/>
			<point x="699" y="181"/>
			<point x="819" y="267"/>
		</contour>
	</outline>
</glyph>
<glyph name="nine" format="2">
  <advance width="1217.8102192601466"/>
  <unicode hex="0039"/>
  <outline>
    <contour>
      <point x="67" y="915" type="curve" smooth="yes"/>
      <point x="67" y="1160"/>
      <point x="261" y="1383"/>
      <point x="556" y="1383" type="curve" smooth="yes"/>
      <point x="928" y="1383"/>
      <point x="1133" y="1009"/>
      <point x="1133" y="626" type="curve" smooth="yes"/>
      <point x="1133" y="291"/>
      <point x="954" y="-45"/>
      <point x="576" y="-45" type="curve" smooth="yes"/>
      <point x="402" y="-45"/>
      <point x="263" y="46"/>
      <point x="185" y="160" type="curve" smooth="yes"/>
      <point x="173" y="175"/>
      <point x="167" y="196"/>
      <point x="167" y="219" type="curve" smooth="yes"/>
      <point x="167" y="266"/>
      <point x="207" y="313"/>
      <point x="261" y="313" type="curve" smooth="yes"/>
      <point x="299" y="313"/>
      <point x="331" y="298"/>
      <point x="351" y="270" type="curve" smooth="yes"/>
      <point x="396" y="207"/>
      <point x="476" y="154"/>
      <point x="576" y="154" type="curve" smooth="yes"/>
      <point x="820" y="154"/>
      <point x="927" y="372"/>
      <point x="932" y="608" type="curve"/>
      <point x="849" y="507"/>
      <point x="722" y="430"/>
      <point x="560" y="430" type="curve" smooth="yes"/>
      <point x="290" y="430"/>
      <point x="67" y="629"/>
    </contour>
    <contour>
      <point x="545" y="1185" type="curve" smooth="yes"/>
      <point x="376" y="1185"/>
      <point x="267" y="1059"/>
      <point x="267" y="907" type="curve" smooth="yes"/>
      <point x="267" y="750"/>
      <point x="403" y="626"/>
      <point x="557" y="626" type="curve" smooth="yes"/>
      <point x="721" y="626"/>
      <point x="843" y="764"/>
      <point x="843" y="910" type="curve" smooth="yes"/>
      <point x="843" y="1069"/>
      <point x="693" y="1185"/>
    </contour>
  </outline>
</glyph>
<glyph name="semicolon" format="2">
	<unicode hex="003B"/>
	<advance width="476"/>
	<outline>
		<contour>
			<point x="216" y="306" type="curve" smooth="yes"/>
			<point x="347" y="306"/>
			<point x="416" y="205"/>
			<point x="416" y="95" type="curve" smooth="yes"/>
			<point x="416" y="55"/>
			<point x="409" y="11"/>
			<point x="394" y="-37" type="curve" smooth="yes"/>
			<point x="359" y="-150"/>
			<point x="298" y="-239"/>
			<point x="210" y="-297" type="curve" smooth="yes"/>
			<point x="193" y="-308"/>
			<point x="174" y="-314"/>
			<point x="156" y="-314" type="curve" smooth="yes"/>
			<point x="103" y="-314"/>
			<point x="62" y="-267"/>
			<point x="62" y="-214" type="curve" smooth="yes"/>
			<point x="62" y="-182"/>
			<point x="80" y="-156"/>
			<point x="108" y="-137" type="curve" smooth="yes"/>
			<point x="148" y="-110"/>
			<point x="177" y="-73"/>
			<point x="196" y="-29" type="curve"/>
			<point x="117" y="-13"/>
			<point x="60" y="55"/>
			<point x="60" y="137" type="curve" smooth="yes"/>
			<point x="60" y="221"/>
			<point x="130" y="306"/>
		</contour>
		<contour>
			<point x="239" y="574" type="curve" smooth="yes"/>
			<point x="148" y="574"/>
			<point x="70" y="646"/>
			<point x="70" y="738" type="curve" smooth="yes"/>
			<point x="70" y="830"/>
			<point x="148" y="905"/>
			<point x="239" y="905" type="curve" smooth="yes"/>
			<point x="330" y="905"/>
			<point x="409" y="830"/>
			<point x="409" y="738" type="curve" smooth="yes"/>
			<point x="409" y="646"/>
			<point x="330" y="574"/>
		</contour>
	</outline>
</glyph>
<glyph name="less" format="2">
	<unicode hex="003C"/>
	<advance width="1227"/>
	<outline>
		<contour>
			<point x="1021" y="963" type="line" smooth="yes"/>
			<point x="1032" y="968"/>
			<point x="1046" y="970"/>
			<point x="1058" y="970" type="curve" smooth="yes"/>
			<point x="1110" y="970"/>
			<point x="1153" y="927"/>
			<point x="1153" y="875" type="curve" smooth="yes"/>
			<point x="1153" y="838"/>
			<point x="1127" y="799"/>
			<point x="1092" y="786" type="curve" smooth="yes"/>
			<point x="423" y="521" type="line"/>
			<point x="1093" y="244" type="line" smooth="yes"/>
			<point x="1127" y="231"/>
			<point x="1153" y="194"/>
			<point x="1153" y="156" type="curve" smooth="yes"/>
			<point x="1153" y="104"/>
			<point x="1110" y="61"/>
			<point x="1058" y="61" type="curve" smooth="yes"/>
			<point x="1046" y="61"/>
			<point x="1032" y="63"/>
			<point x="1020" y="68" type="curve" smooth="yes"/>
			<point x="133" y="435" type="line" smooth="yes"/>
			<point x="99" y="450"/>
			<point x="75" y="487"/>
			<point x="75" y="523" type="curve" smooth="yes"/>
			<point x="75" y="560"/>
			<point x="100" y="598"/>
			<point x="135" y="611" type="curve" smooth="yes"/>
		</contour>
	</outline>
</glyph>
<glyph name="equal" format="2">
	<unicode hex="003D"/>
	<advance width="1109"/>
	<outline>
		<contour>
			<point x="75" y="702" type="curve" smooth="yes"/>
			<point x="75" y="742"/>
			<point x="110" y="797"/>
			<point x="156" y="797" type="curve" smooth="yes"/>
			<point x="163" y="797"/>
			<point x="168" y="797"/>
			<point x="175" y="796" type="curve"/>
			<point x="956" y="796" type="line" smooth="yes"/>
			<point x="1004" y="796"/>
			<point x="1035" y="739"/>
			<point x="1035" y="702" type="curve" smooth="yes"/>
			<point x="1035" y="662"/>
			<point x="1002" y="604"/>
			<point x="954" y="604" type="curve" smooth="yes"/>
			<point x="156" y="604" type="line" smooth="yes"/>
			<point x="108" y="604"/>
			<point x="75" y="663"/>
		</contour>
		<contour>
			<point x="75" y="378" type="curve" smooth="yes"/>
			<point x="75" y="409"/>
			<point x="100" y="476"/>
			<point x="148" y="476" type="curve" smooth="yes"/>
			<point x="171" y="475" type="line"/>
			<point x="939" y="475" type="line"/>
			<point x="954" y="476" type="line"/>
			<point x="1002" y="476"/>
			<point x="1035" y="417"/>
			<point x="1035" y="378" type="curve" smooth="yes"/>
			<point x="1035" y="338"/>
			<point x="1000" y="283"/>
			<point x="954" y="283" type="curve" smooth="yes"/>
			<point x="156" y="283" type="line" smooth="yes"/>
			<point x="110" y="283"/>
			<point x="75" y="338"/>
		</contour>
	</outline>
</glyph>
<glyph name="greater" format="2">
	<unicode hex="003E"/>
	<advance width="1227"/>
	<outline>
		<contour>
			<point x="207" y="963" type="curve" smooth="yes"/>
			<point x="1093" y="611" type="line" smooth="yes"/>
			<point x="1128" y="598"/>
			<point x="1153" y="560"/>
			<point x="1153" y="523" type="curve" smooth="yes"/>
			<point x="1153" y="487"/>
			<point x="1129" y="450"/>
			<point x="1095" y="435" type="curve" smooth="yes"/>
			<point x="208" y="68" type="line" smooth="yes"/>
			<point x="196" y="63"/>
			<point x="182" y="61"/>
			<point x="170" y="61" type="curve" smooth="yes"/>
			<point x="118" y="61"/>
			<point x="75" y="104"/>
			<point x="75" y="156" type="curve" smooth="yes"/>
			<point x="75" y="194"/>
			<point x="101" y="231"/>
			<point x="135" y="244" type="curve" smooth="yes"/>
			<point x="805" y="521" type="line"/>
			<point x="136" y="786" type="line" smooth="yes"/>
			<point x="101" y="799"/>
			<point x="75" y="838"/>
			<point x="75" y="875" type="curve" smooth="yes"/>
			<point x="75" y="927"/>
			<point x="118" y="970"/>
			<point x="170" y="970" type="curve" smooth="yes"/>
			<point x="182" y="970"/>
			<point x="196" y="968"/>
		</contour>
	</outline>
</glyph>
<glyph name="question" format="2">
  <advance width="949"/>
  <unicode hex="003F"/>
  <outline>
    <contour>
      <point x="75.0" y="958.0" type="curve" smooth="yes"/>
      <point x="75.0" y="1172.0"/>
      <point x="253.0" y="1312.0"/>
      <point x="458.0" y="1312.0" type="curve" smooth="yes"/>
      <point x="650.0" y="1312.0"/>
      <point x="802.0" y="1210.0"/>
      <point x="855.0" y="1058.0" type="curve" smooth="yes"/>
      <point x="868.0" y="1022.0"/>
      <point x="874.0" y="986.0"/>
      <point x="874.0" y="949.0" type="curve" smooth="yes"/>
      <point x="874.0" y="756.0"/>
      <point x="730.0" y="647.0"/>
      <point x="638.0" y="568.0" type="curve" smooth="yes"/>
      <point x="581.0" y="519.0"/>
      <point x="540.0" y="487.0"/>
      <point x="540.0" y="413.0" type="curve" smooth="yes"/>
      <point x="540.0" y="400.0"/>
      <point x="546.0" y="382.0"/>
      <point x="546.0" y="359.0" type="curve" smooth="yes"/>
      <point x="546.0" y="310.0"/>
      <point x="506.0" y="271.0"/>
      <point x="456.0" y="271.0" type="curve" smooth="yes"/>
      <point x="372.0" y="271.0"/>
      <point x="360.0" y="359.0"/>
      <point x="360.0" y="414.0" type="curve" smooth="yes"/>
      <point x="360.0" y="647.0"/>
      <point x="590.0" y="728.0"/>
      <point x="661.0" y="843.0" type="curve" smooth="yes"/>
      <point x="681.0" y="876.0"/>
      <point x="694.0" y="906.0"/>
      <point x="694.0" y="949.0" type="curve" smooth="yes"/>
      <point x="694.0" y="1063.0"/>
      <point x="589.0" y="1132.0"/>
      <point x="460.0" y="1132.0" type="curve" smooth="yes"/>
      <point x="344.0" y="1132.0"/>
      <point x="255.0" y="1066.0"/>
      <point x="255.0" y="957.0" type="curve" smooth="yes"/>
      <point x="255.0" y="951.0"/>
      <point x="256.0" y="943.0"/>
      <point x="256.0" y="933.0" type="curve" smooth="yes"/>
      <point x="256.0" y="884.0"/>
      <point x="216.0" y="846.0"/>
      <point x="166.0" y="846.0" type="curve" smooth="yes"/>
      <point x="98.0" y="846.0"/>
      <point x="75.0" y="905.0"/>
    </contour>
    <contour>
      <point x="474.0" y="221.0" type="curve" smooth="yes"/>
      <point x="541.0" y="221.0"/>
      <point x="595.0" y="167.0"/>
      <point x="595.0" y="100.0" type="curve" smooth="yes"/>
      <point x="595.0" y="33.0"/>
      <point x="541.0" y="-21.0"/>
      <point x="474.0" y="-21.0" type="curve" smooth="yes"/>
      <point x="407.0" y="-21.0"/>
      <point x="353.0" y="33.0"/>
      <point x="353.0" y="100.0" type="curve" smooth="yes"/>
      <point x="353.0" y="167.0"/>
      <point x="407.0" y="221.0"/>
    </contour>
  </outline>
</glyph>
<glyph name="at" format="2">
  <advance width="1783"/>
  <unicode hex="0040"/>
  <outline>
    <contour>
      <point x="858.0" y="707.0" type="curve" smooth="yes"/>
      <point x="739.0" y="707.0"/>
      <point x="640.0" y="604.0"/>
      <point x="640.0" y="483.0" type="curve" smooth="yes"/>
      <point x="640.0" y="363.0"/>
      <point x="728.0" y="257.0"/>
      <point x="858.0" y="257.0" type="curve" smooth="yes"/>
      <point x="984.0" y="257.0"/>
      <point x="1077.0" y="355.0"/>
      <point x="1079.0" y="480.0" type="curve" smooth="yes"/>
      <point x="1078.0" y="606.0"/>
      <point x="981.0" y="707.0"/>
    </contour>
    <contour>
      <point x="866.0" y="56.0" type="curve" smooth="yes"/>
      <point x="624.0" y="56.0"/>
      <point x="440.0" y="249.0"/>
      <point x="440.0" y="491.0" type="curve" smooth="yes"/>
      <point x="440.0" y="708.0"/>
      <point x="631.0" y="909.0"/>
      <point x="846.0" y="909.0" type="curve" smooth="yes"/>
      <point x="935.0" y="909.0"/>
      <point x="1015.0" y="886.0"/>
      <point x="1082.0" y="843.0" type="curve"/>
      <point x="1096.0" y="883.0"/>
      <point x="1133.0" y="911.0"/>
      <point x="1176.0" y="911.0" type="curve" smooth="yes"/>
      <point x="1231.0" y="911.0"/>
      <point x="1276.0" y="866.0"/>
      <point x="1276.0" y="811.0" type="curve" smooth="yes"/>
      <point x="1276.0" y="321.0" type="line" smooth="yes"/>
      <point x="1276.0" y="286.0"/>
      <point x="1320.0" y="252.0"/>
      <point x="1369.0" y="252.0" type="curve" smooth="yes"/>
      <point x="1462.0" y="252.0"/>
      <point x="1506.0" y="357.0"/>
      <point x="1506.0" y="462.0" type="curve" smooth="yes"/>
      <point x="1506.0" y="804.0"/>
      <point x="1210.0" y="1084.0"/>
      <point x="900.0" y="1084.0" type="curve" smooth="yes"/>
      <point x="537.0" y="1084.0"/>
      <point x="273.0" y="793.0"/>
      <point x="273.0" y="480.0" type="curve" smooth="yes"/>
      <point x="273.0" y="148.0"/>
      <point x="519.0" y="-137.0"/>
      <point x="869.0" y="-137.0" type="curve" smooth="yes"/>
      <point x="940.0" y="-137.0"/>
      <point x="1012.0" y="-123.0"/>
      <point x="1088.0" y="-97.0" type="curve" smooth="yes"/>
      <point x="1112.0" y="-89.0"/>
      <point x="1133.0" y="-83.0"/>
      <point x="1153.0" y="-83.0" type="curve" smooth="yes"/>
      <point x="1206.0" y="-83.0"/>
      <point x="1233.0" y="-123.0"/>
      <point x="1233.0" y="-176.0" type="curve" smooth="yes"/>
      <point x="1233.0" y="-228.0"/>
      <point x="1205.0" y="-268.0"/>
      <point x="1157.0" y="-286.0" type="curve" smooth="yes"/>
      <point x="1060.0" y="-323.0"/>
      <point x="964.0" y="-341.0"/>
      <point x="869.0" y="-341.0" type="curve" smooth="yes"/>
      <point x="407.0" y="-341.0"/>
      <point x="74.0" y="44.0"/>
      <point x="74.0" y="477.0" type="curve" smooth="yes"/>
      <point x="74.0" y="884.0"/>
      <point x="415.0" y="1292.0"/>
      <point x="900.0" y="1292.0" type="curve" smooth="yes"/>
      <point x="1304.0" y="1292.0"/>
      <point x="1658.0" y="942.0"/>
      <point x="1704.0" y="537.0" type="curve" smooth="yes"/>
      <point x="1707.0" y="511.0"/>
      <point x="1708.0" y="486.0"/>
      <point x="1708.0" y="463.0" type="curve" smooth="yes"/>
      <point x="1708.0" y="255.0"/>
      <point x="1590.0" y="49.0"/>
      <point x="1369.0" y="49.0" type="curve" smooth="yes"/>
      <point x="1271.0" y="49.0"/>
      <point x="1192.0" y="90.0"/>
      <point x="1136.0" y="162.0" type="curve"/>
      <point x="1068.0" y="102.0"/>
      <point x="976.0" y="56.0"/>
    </contour>
  </outline>
</glyph>
<glyph name="A" format="2">
	<unicode hex="0041"/>
	<advance width="1400"/>
	<outline>
		<contour>
			<point x="608" y="1395" type="line" smooth="yes"/>
			<point x="622" y="1428"/>
			<point x="663" y="1455"/>
			<point x="700" y="1455" type="curve" smooth="yes"/>
			<point x="736" y="1455"/>
			<point x="778" y="1428"/>
			<point x="792" y="1395" type="curve" smooth="yes"/>
			<point x="1342" y="119" type="line" smooth="yes"/>
			<point x="1347" y="108"/>
			<point x="1351" y="90"/>
			<point x="1351" y="78" type="curve" smooth="yes"/>
			<point x="1351" y="23"/>
			<point x="1306" y="-22"/>
			<point x="1251" y="-22" type="curve" smooth="yes"/>
			<point x="1214" y="-22"/>
			<point x="1172" y="5"/>
			<point x="1158" y="39" type="curve" smooth="yes"/>
			<point x="987" y="436" type="line"/>
			<point x="417" y="444" type="line"/>
			<point x="242" y="38" type="line" smooth="yes"/>
			<point x="228" y="4"/>
			<point x="187" y="-24"/>
			<point x="150" y="-24" type="curve" smooth="yes"/>
			<point x="95" y="-24"/>
			<point x="50" y="21"/>
			<point x="50" y="76" type="curve" smooth="yes"/>
			<point x="50" y="88"/>
			<point x="54" y="106"/>
			<point x="59" y="117" type="curve" smooth="yes"/>
		</contour>
		<contour>
			<point x="700" y="1102" type="line"/>
			<point x="503" y="643" type="line"/>
			<point x="900" y="638" type="line"/>
		</contour>
	</outline>
</glyph>
<glyph name="B" format="2">
	<unicode hex="0042"/>
	<advance width="1283"/>
	<outline>
		<contour>
			<point x="101" y="740" type="line"/>
			<point x="101" y="753" type="line"/>
			<point x="100" y="1330" type="line" smooth="yes"/>
			<point x="100" y="1384"/>
			<point x="144" y="1429"/>
			<point x="198" y="1430" type="curve" smooth="yes"/>
			<point x="461" y="1435" type="line" smooth="yes"/>
			<point x="490" y="1436"/>
			<point x="518" y="1436"/>
			<point x="545" y="1436" type="curve" smooth="yes"/>
			<point x="839" y="1436"/>
			<point x="1125" y="1314"/>
			<point x="1125" y="1018" type="curve" smooth="yes"/>
			<point x="1125" y="926"/>
			<point x="1089" y="836"/>
			<point x="1026" y="770" type="curve"/>
			<point x="1119" y="702"/>
			<point x="1184" y="589"/>
			<point x="1184" y="442" type="curve" smooth="yes"/>
			<point x="1184" y="158"/>
			<point x="987" y="5"/>
			<point x="709" y="0" type="curve" smooth="yes"/>
			<point x="204" y="-1" type="line"/>
			<point x="202" y="-1" type="line" smooth="yes"/>
			<point x="147" y="-1"/>
			<point x="102" y="44"/>
			<point x="102" y="99" type="curve" smooth="yes"/>
		</contour>
		<contour>
			<point x="925" y="1012" type="curve" smooth="yes"/>
			<point x="925" y="1194"/>
			<point x="710" y="1236"/>
			<point x="523" y="1236" type="curve" smooth="yes"/>
			<point x="504" y="1236"/>
			<point x="484" y="1235"/>
			<point x="465" y="1235" type="curve" smooth="yes"/>
			<point x="300" y="1232" type="line"/>
			<point x="301" y="847" type="line"/>
			<point x="686" y="853" type="line" smooth="yes"/>
			<point x="808" y="855"/>
			<point x="925" y="887"/>
		</contour>
		<contour>
			<point x="705" y="200" type="line" smooth="yes"/>
			<point x="883" y="203"/>
			<point x="984" y="268"/>
			<point x="984" y="447" type="curve" smooth="yes"/>
			<point x="984" y="605"/>
			<point x="867" y="653"/>
			<point x="703" y="653" type="curve" smooth="yes"/>
			<point x="690" y="653" type="line"/>
			<point x="301" y="647" type="line"/>
			<point x="302" y="201" type="line"/>
		</contour>
	</outline>
</glyph>
<glyph name="C" format="2">
  <advance width="1430"/>
  <unicode hex="0043"/>
  <outline>
    <contour>
      <point x="1286.0" y="531.0" type="curve" smooth="yes"/>
      <point x="1334.0" y="531.0"/>
      <point x="1381.0" y="486.0"/>
      <point x="1381.0" y="439.0" type="curve" smooth="yes"/>
      <point x="1381.0" y="421.0"/>
      <point x="1378.0" y="405.0"/>
      <point x="1371.0" y="391.0" type="curve" smooth="yes"/>
      <point x="1270.0" y="170.0"/>
      <point x="1042.0" y="-22.0"/>
      <point x="729.0" y="-22.0" type="curve" smooth="yes"/>
      <point x="316.0" y="-22.0"/>
      <point x="52.0" y="319.0"/>
      <point x="52.0" y="717.0" type="curve" smooth="yes"/>
      <point x="52.0" y="1110.0"/>
      <point x="321.0" y="1453.0"/>
      <point x="726.0" y="1453.0" type="curve" smooth="yes"/>
      <point x="1033.0" y="1453.0"/>
      <point x="1263.0" y="1271.0"/>
      <point x="1368.0" y="1055.0" type="curve" smooth="yes"/>
      <point x="1376.0" y="1040.0"/>
      <point x="1379.0" y="1027.0"/>
      <point x="1379.0" y="1011.0" type="curve" smooth="yes"/>
      <point x="1379.0" y="962.0"/>
      <point x="1338.0" y="913.0"/>
      <point x="1291.0" y="913.0" type="curve" smooth="yes"/>
      <point x="1245.0" y="913.0"/>
      <point x="1206.0" y="932.0"/>
      <point x="1188.0" y="971.0" type="curve" smooth="yes"/>
      <point x="1113.0" y="1125.0"/>
      <point x="948.0" y="1253.0"/>
      <point x="726.0" y="1253.0" type="curve" smooth="yes"/>
      <point x="435.0" y="1253.0"/>
      <point x="252.0" y="1005.0"/>
      <point x="252.0" y="715.0" type="curve" smooth="yes"/>
      <point x="252.0" y="423.0"/>
      <point x="433.0" y="179.0"/>
      <point x="727.0" y="179.0" type="curve" smooth="yes"/>
      <point x="946.0" y="179.0"/>
      <point x="1118.0" y="316.0"/>
      <point x="1189.0" y="471.0" type="curve" smooth="yes"/>
      <point x="1206.0" y="509.0"/>
      <point x="1242.0" y="531.0"/>
    </contour>
  </outline>
</glyph>
<glyph name="D" format="2">
  <advance width="1384"/>
  <unicode hex="0044"/>
  <outline>
    <contour>
      <point x="1106.0" y="717.0" type="curve" smooth="yes"/>
      <point x="1106.0" y="1088.0"/>
      <point x="854.0" y="1236.0"/>
      <point x="469.0" y="1236.0" type="curve" smooth="yes"/>
      <point x="414.0" y="1236.0"/>
      <point x="360.0" y="1234.0"/>
      <point x="306.0" y="1232.0" type="curve"/>
      <point x="300.0" y="203.0" type="line"/>
      <point x="429.0" y="201.0" type="line" smooth="yes"/>
      <point x="831.0" y="201.0"/>
      <point x="1106.0" y="330.0"/>
    </contour>
    <contour>
      <point x="557.0" y="1437.0" type="line" smooth="yes"/>
      <point x="562.0" y="1437.0"/>
      <point x="567.0" y="1437.0"/>
      <point x="572.0" y="1437.0" type="curve" smooth="yes"/>
      <point x="1041.0" y="1437.0"/>
      <point x="1284.0" y="1072.0"/>
      <point x="1284.0" y="711.0" type="curve" smooth="yes"/>
      <point x="1284.0" y="298.0"/>
      <point x="1002.0" y="-1.0"/>
      <point x="474.0" y="-1.0" type="curve" smooth="yes"/>
      <point x="427.0" y="-1.0" type="line"/>
      <point x="199.0" y="1.0" type="line" smooth="yes"/>
      <point x="146.0" y="2.0"/>
      <point x="100.0" y="48.0"/>
      <point x="100.0" y="104.0" type="curve" smooth="yes"/>
      <point x="107.0" y="1331.0" type="line" smooth="yes"/>
      <point x="107.0" y="1384.0"/>
      <point x="151.0" y="1430.0"/>
      <point x="205.0" y="1431.0" type="curve" smooth="yes"/>
    </contour>
  </outline>
</glyph>
<glyph name="E" format="2">
	<unicode hex="0045"/>
	<advance width="1183"/>
	<outline>
		<contour>
			<point x="75" y="1336" type="line" smooth="yes"/>
			<point x="75" y="1389"/>
			<point x="120" y="1433"/>
			<point x="175" y="1433" type="curve" smooth="yes"/>
			<point x="1032" y="1432" type="line"/>
			<point x="1033" y="1432" type="line" smooth="yes"/>
			<point x="1088" y="1432"/>
			<point x="1133" y="1387"/>
			<point x="1133" y="1332" type="curve" smooth="yes"/>
			<point x="1133" y="1277"/>
			<point x="1088" y="1232"/>
			<point x="1033" y="1232" type="curve" smooth="yes"/>
			<point x="1032" y="1232" type="line"/>
			<point x="275" y="1233" type="line"/>
			<point x="276" y="823" type="line"/>
			<point x="950" y="818" type="line" smooth="yes"/>
			<point x="1007" y="818"/>
			<point x="1050" y="773"/>
			<point x="1050" y="711" type="curve" smooth="yes"/>
			<point x="1050" y="657"/>
			<point x="1000" y="616"/>
			<point x="950" y="616" type="curve" smooth="yes"/>
			<point x="949" y="616" type="line"/>
			<point x="277" y="621" type="line"/>
			<point x="278" y="198" type="line"/>
			<point x="1032" y="199" type="line"/>
			<point x="1033" y="199" type="line" smooth="yes"/>
			<point x="1088" y="199"/>
			<point x="1133" y="154"/>
			<point x="1133" y="99" type="curve" smooth="yes"/>
			<point x="1133" y="44"/>
			<point x="1088" y="-1"/>
			<point x="1033" y="-1" type="curve" smooth="yes"/>
			<point x="1032" y="-1" type="line"/>
			<point x="178" y="-2" type="line" smooth="yes"/>
			<point x="123" y="-2"/>
			<point x="78" y="43"/>
			<point x="78" y="97" type="curve" smooth="yes"/>
		</contour>
	</outline>
</glyph>
<glyph name="F" format="2">
  <advance width="1166"/>
  <unicode hex="0046"/>
  <outline>
    <contour>
      <point x="75.0" y="1336.0" type="line" smooth="yes"/>
      <point x="75.0" y="1390.0"/>
      <point x="120.0" y="1434.0"/>
      <point x="175.0" y="1434.0" type="curve" smooth="yes"/>
      <point x="990.0" y="1435.0" type="line"/>
      <point x="991.0" y="1435.0" type="line" smooth="yes"/>
      <point x="1046.0" y="1435.0"/>
      <point x="1091.0" y="1390.0"/>
      <point x="1091.0" y="1335.0" type="curve" smooth="yes"/>
      <point x="1091.0" y="1280.0"/>
      <point x="1046.0" y="1235.0"/>
      <point x="991.0" y="1235.0" type="curve" smooth="yes"/>
      <point x="990.0" y="1235.0" type="line"/>
      <point x="275.0" y="1234.0" type="line"/>
      <point x="276.0" y="870.0" type="line"/>
      <point x="797.0" y="875.0" type="line"/>
      <point x="808.0" y="875.0" type="line" smooth="yes"/>
      <point x="861.0" y="875.0"/>
      <point x="898.0" y="821.0"/>
      <point x="898.0" y="781.0" type="curve" smooth="yes"/>
      <point x="898.0" y="723.0"/>
      <point x="857.0" y="675.0"/>
      <point x="798.0" y="675.0" type="curve" smooth="yes"/>
      <point x="277.0" y="670.0" type="line"/>
      <point x="278.0" y="88.0" type="line"/>
      <point x="278.0" y="86.0" type="line" smooth="yes"/>
      <point x="278.0" y="32.0"/>
      <point x="233.0" y="-12.0"/>
      <point x="178.0" y="-12.0" type="curve" smooth="yes"/>
      <point x="123.0" y="-12.0"/>
      <point x="78.0" y="32.0"/>
      <point x="78.0" y="86.0" type="curve" smooth="yes"/>
      <point x="78.0" y="87.0" type="line"/>
    </contour>
  </outline>
</glyph>
<glyph name="G" format="2">
	<unicode hex="0047"/>
	<advance width="1398"/>
	<outline>
		<contour>
			<point x="55" y="699" type="curve" smooth="yes"/>
			<point x="55" y="1092"/>
			<point x="350" y="1455"/>
			<point x="782" y="1455" type="curve" smooth="yes"/>
			<point x="981" y="1455"/>
			<point x="1139" y="1398"/>
			<point x="1280" y="1298" type="curve" smooth="yes"/>
			<point x="1305" y="1281"/>
			<point x="1323" y="1248"/>
			<point x="1323" y="1218" type="curve" smooth="yes"/>
			<point x="1323" y="1164"/>
			<point x="1278" y="1119"/>
			<point x="1223" y="1119" type="curve" smooth="yes"/>
			<point x="1203" y="1119"/>
			<point x="1181" y="1126"/>
			<point x="1164" y="1138" type="curve" smooth="yes"/>
			<point x="1060" y="1209"/>
			<point x="924" y="1254"/>
			<point x="787" y="1254" type="curve" smooth="yes"/>
			<point x="476" y="1254"/>
			<point x="253" y="994"/>
			<point x="253" y="703" type="curve" smooth="yes"/>
			<point x="253" y="404"/>
			<point x="463" y="190"/>
			<point x="775" y="190" type="curve" smooth="yes"/>
			<point x="889" y="190"/>
			<point x="1007" y="216"/>
			<point x="1100" y="246" type="curve"/>
			<point x="1097" y="587" type="line"/>
			<point x="792" y="587" type="line" smooth="yes"/>
			<point x="737" y="587"/>
			<point x="692" y="632"/>
			<point x="692" y="687" type="curve" smooth="yes"/>
			<point x="692" y="742"/>
			<point x="737" y="787"/>
			<point x="792" y="787" type="curve" smooth="yes"/>
			<point x="1197" y="787" type="line" smooth="yes"/>
			<point x="1251" y="787"/>
			<point x="1297" y="743"/>
			<point x="1297" y="688" type="curve" smooth="yes"/>
			<point x="1301" y="177" type="line"/>
			<point x="1301" y="176" type="line" smooth="yes"/>
			<point x="1301" y="138"/>
			<point x="1274" y="99"/>
			<point x="1238" y="86" type="curve" smooth="yes"/>
			<point x="1110" y="35"/>
			<point x="953" y="-11"/>
			<point x="782" y="-11" type="curve" smooth="yes"/>
			<point x="361" y="-11"/>
			<point x="55" y="284"/>
		</contour>
	</outline>
</glyph>
<glyph name="H" format="2">
	<unicode hex="0048"/>
	<advance width="1300"/>
	<outline>
		<contour>
			<point x="75" y="1369" type="curve" smooth="yes"/>
			<point x="75" y="1358" type="line" smooth="yes"/>
			<point x="75.9992446899" y="933.6658935547"/>
			<point x="77.0046691895" y="509.3380126953"/>
			<point x="78" y="85" type="curve" smooth="yes"/>
			<point x="78" y="32"/>
			<point x="123" y="-12"/>
			<point x="178" y="-12" type="curve" smooth="yes"/>
			<point x="234.2509002686" y="-12"/>
			<point x="278" y="30.5609970093"/>
			<point x="278" y="85" type="curve" smooth="yes"/>
			<point x="277" y="595" type="line"/>
			<point x="1024" y="596" type="line"/>
			<point x="1024" y="86" type="line" smooth="yes"/>
			<point x="1024" y="33"/>
			<point x="1069" y="-9"/>
			<point x="1124" y="-9" type="curve" smooth="yes"/>
			<point x="1179" y="-9"/>
			<point x="1224" y="35"/>
			<point x="1224" y="88" type="curve" smooth="yes"/>
			<point x="1225" y="1359" type="line" smooth="yes"/>
			<point x="1225" y="1413"/>
			<point x="1178" y="1456"/>
			<point x="1124" y="1456" type="curve" smooth="yes"/>
			<point x="1069" y="1456"/>
			<point x="1020.7841796875" y="1411.83203125"/>
			<point x="1025" y="1359" type="curve"/>
			<point x="1024" y="798" type="line"/>
			<point x="276" y="797" type="line"/>
			<point x="275" y="1359" type="line" smooth="yes"/>
			<point x="275" y="1417"/>
			<point x="225" y="1455"/>
			<point x="169" y="1456" type="curve" smooth="yes"/>
			<point x="129" y="1456"/>
			<point x="75" y="1421"/>
		</contour>
	</outline>
</glyph>
<glyph name="I" format="2">
  <advance width="401"/>
  <unicode hex="0049"/>
  <outline>
    <contour>
      <point x="201.0" y="-10.0" type="curve" smooth="yes"/>
      <point x="146.0" y="-10.0"/>
      <point x="101.0" y="35.0"/>
      <point x="101.0" y="90.0" type="curve" smooth="yes"/>
      <point x="100.0" y="1341.0" type="line" smooth="yes"/>
      <point x="100.0" y="1392.0"/>
      <point x="143.0" y="1441.0"/>
      <point x="195.0" y="1441.0" type="curve" smooth="yes"/>
      <point x="256.0" y="1441.0"/>
      <point x="300.0" y="1398.0"/>
      <point x="300.0" y="1341.0" type="curve" smooth="yes"/>
      <point x="301.0" y="90.0" type="line" smooth="yes"/>
      <point x="301.0" y="35.0"/>
      <point x="256.0" y="-10.0"/>
    </contour>
  </outline>
</glyph>
<glyph name="J" format="2">
  <advance width="923"/>
  <unicode hex="004A"/>
  <outline>
    <contour>
      <point x="120.0" y="454.0" type="curve" smooth="yes"/>
      <point x="181.0" y="454.0"/>
      <point x="225.0" y="413.0"/>
      <point x="225.0" y="358.0" type="curve" smooth="yes"/>
      <point x="225.0" y="357.0" type="line" smooth="yes"/>
      <point x="225.0" y="266.0"/>
      <point x="306.0" y="188.0"/>
      <point x="404.0" y="188.0" type="curve" smooth="yes"/>
      <point x="591.0" y="188.0"/>
      <point x="649.0" y="352.0"/>
      <point x="649.0" y="574.0" type="curve" smooth="yes"/>
      <point x="649.0" y="607.0" type="line"/>
      <point x="639.0" y="1356.0" type="line"/>
      <point x="639.0" y="1358.0" type="line" smooth="yes"/>
      <point x="639.0" y="1410.0"/>
      <point x="685.0" y="1455.0"/>
      <point x="739.0" y="1455.0" type="curve" smooth="yes"/>
      <point x="794.0" y="1455.0"/>
      <point x="839.0" y="1411.0"/>
      <point x="839.0" y="1358.0" type="curve" smooth="yes"/>
      <point x="849.0" y="606.0" type="line"/>
      <point x="849.0" y="570.0" type="line" smooth="yes"/>
      <point x="849.0" y="251.0"/>
      <point x="726.0" y="-11.0"/>
      <point x="406.0" y="-11.0" type="curve" smooth="yes"/>
      <point x="194.0" y="-11.0"/>
      <point x="25.0" y="148.0"/>
      <point x="25.0" y="357.0" type="curve" smooth="yes"/>
      <point x="25.0" y="407.0"/>
      <point x="69.0" y="454.0"/>
    </contour>
  </outline>
</glyph>
<glyph name="K" format="2">
	<unicode hex="004B"/>
	<advance width="1194"/>
	<outline>
		<contour>
			<point x="75" y="115" type="curve" smooth="yes"/>
			<point x="75" y="170"/>
			<point x="77" y="244"/>
			<point x="77" y="364" type="curve" smooth="yes"/>
			<point x="78" y="1344" type="line" smooth="yes"/>
			<point x="78" y="1398"/>
			<point x="121" y="1441"/>
			<point x="177" y="1441" type="curve" smooth="yes"/>
			<point x="232" y="1441"/>
			<point x="278" y="1396"/>
			<point x="278" y="1342" type="curve" smooth="yes"/>
			<point x="279" y="1172"/>
			<point x="279" y="999"/>
			<point x="280" y="831" type="curve"/>
			<point x="965" y="1405" type="line" smooth="yes"/>
			<point x="985" y="1423"/>
			<point x="1009" y="1433"/>
			<point x="1032" y="1433" type="curve" smooth="yes"/>
			<point x="1089" y="1433"/>
			<point x="1131" y="1382"/>
			<point x="1131" y="1331" type="curve" smooth="yes"/>
			<point x="1131" y="1305"/>
			<point x="1120" y="1280"/>
			<point x="1097" y="1260" type="curve" smooth="yes"/>
			<point x="539" y="796" type="line"/>
			<point x="1141" y="149" type="line" smooth="yes"/>
			<point x="1160" y="129"/>
			<point x="1170" y="108"/>
			<point x="1170" y="85" type="curve" smooth="yes"/>
			<point x="1170" y="32"/>
			<point x="1121" y="-12"/>
			<point x="1067" y="-12" type="curve" smooth="yes"/>
			<point x="1044" y="-12"/>
			<point x="1017" y="-5"/>
			<point x="997" y="14" type="curve"/>
			<point x="388" y="667" type="line"/>
			<point x="279" y="574" type="line"/>
			<point x="277" y="325"/>
			<point x="276" y="129"/>
			<point x="275" y="78" type="curve"/>
			<point x="275" y="21"/>
			<point x="222" y="-14"/>
			<point x="173" y="-14" type="curve" smooth="yes"/>
			<point x="98" y="-14"/>
			<point x="75" y="46"/>
		</contour>
	</outline>
</glyph>
<glyph name="L" format="2">
  <advance width="1181"/>
  <unicode hex="004C"/>
  <outline>
    <contour>
      <point x="198.0" y="-8.0" type="line" smooth="yes"/>
      <point x="143.0" y="-8.0"/>
      <point x="98.0" y="37.0"/>
      <point x="98.0" y="91.0" type="curve" smooth="yes"/>
      <point x="95.0" y="1360.0" type="line"/>
      <point x="95.0" y="1361.0" type="line" smooth="yes"/>
      <point x="95.0" y="1414.0"/>
      <point x="140.0" y="1458.0"/>
      <point x="195.0" y="1458.0" type="curve" smooth="yes"/>
      <point x="250.0" y="1458.0"/>
      <point x="295.0" y="1414.0"/>
      <point x="295.0" y="1361.0" type="curve" smooth="yes"/>
      <point x="298.0" y="192.0" type="line"/>
      <point x="1055.0" y="194.0" type="line"/>
      <point x="1056.0" y="194.0" type="line" smooth="yes"/>
      <point x="1111.0" y="194.0"/>
      <point x="1156.0" y="149.0"/>
      <point x="1156.0" y="94.0" type="curve" smooth="yes"/>
      <point x="1156.0" y="39.0"/>
      <point x="1111.0" y="-6.0"/>
      <point x="1056.0" y="-6.0" type="curve" smooth="yes"/>
      <point x="1055.0" y="-6.0" type="line"/>
    </contour>
  </outline>
</glyph>
<glyph name="M" format="2">
  <advance width="1558"/>
  <unicode hex="004D"/>
  <outline>
    <contour>
      <point x="179.0" y="0.0" type="curve" smooth="yes"/>
      <point x="124.0" y="0.0"/>
      <point x="79.0" y="45.0"/>
      <point x="79.0" y="100.0" type="curve" smooth="yes"/>
      <point x="76.0" y="1341.0" type="line"/>
      <point x="75.0" y="1350.0"/>
      <point x="75.0" y="1352.0"/>
      <point x="75.0" y="1359.0" type="curve" smooth="yes"/>
      <point x="75.0" y="1377.0"/>
      <point x="85.0" y="1394.0"/>
      <point x="97.0" y="1413.0" type="curve" smooth="yes"/>
      <point x="112.0" y="1437.0"/>
      <point x="136.0" y="1452.0"/>
      <point x="166.0" y="1452.0" type="curve" smooth="yes"/>
      <point x="212.0" y="1452.0"/>
      <point x="247.0" y="1433.0"/>
      <point x="265.0" y="1396.0" type="curve"/>
      <point x="800.0" y="523.0" type="line"/>
      <point x="1295.0" y="1397.0" type="line" smooth="yes"/>
      <point x="1313.0" y="1427.0"/>
      <point x="1341.0" y="1447.0"/>
      <point x="1376.0" y="1447.0" type="curve" smooth="yes"/>
      <point x="1433.0" y="1447.0"/>
      <point x="1483.0" y="1406.0"/>
      <point x="1483.0" y="1347.0" type="curve" smooth="yes"/>
      <point x="1483.0" y="96.0" type="line" smooth="yes"/>
      <point x="1483.0" y="41.0"/>
      <point x="1438.0" y="-4.0"/>
      <point x="1383.0" y="-4.0" type="curve" smooth="yes"/>
      <point x="1328.0" y="-4.0"/>
      <point x="1283.0" y="41.0"/>
      <point x="1283.0" y="96.0" type="curve" smooth="yes"/>
      <point x="1283.0" y="990.0" type="line"/>
      <point x="890.0" y="276.0" type="line"/>
      <point x="875.0" y="252.0"/>
      <point x="842.0" y="225.0"/>
      <point x="806.0" y="225.0" type="curve" smooth="yes"/>
      <point x="768.0" y="225.0"/>
      <point x="737.0" y="242.0"/>
      <point x="717.0" y="273.0" type="curve" smooth="yes"/>
      <point x="276.0" y="994.0" type="line"/>
      <point x="279.0" y="101.0" type="line"/>
      <point x="279.0" y="100.0" type="line" smooth="yes"/>
      <point x="279.0" y="45.0"/>
      <point x="234.0" y="0.0"/>
    </contour>
  </outline>
</glyph>
<glyph name="N" format="2">
	<unicode hex="004E"/>
	<advance width="1285"/>
	<outline>
		<contour>
			<point x="75" y="1336" type="line" smooth="yes"/>
			<point x="75" y="1392"/>
			<point x="122" y="1433"/>
			<point x="178" y="1433" type="curve" smooth="yes"/>
			<point x="209" y="1433"/>
			<point x="235" y="1420"/>
			<point x="255" y="1395" type="curve" smooth="yes"/>
			<point x="1010" y="370" type="line"/>
			<point x="1010" y="1333" type="line" smooth="yes"/>
			<point x="1010" y="1386"/>
			<point x="1055" y="1430"/>
			<point x="1110" y="1430" type="curve" smooth="yes"/>
			<point x="1165" y="1430"/>
			<point x="1210" y="1386"/>
			<point x="1210" y="1333" type="curve"/>
			<point x="1209" y="79" type="line"/>
			<point x="1209" y="23"/>
			<point x="1162" y="-18"/>
			<point x="1106" y="-18" type="curve" smooth="yes"/>
			<point x="1075" y="-18"/>
			<point x="1048" y="-3"/>
			<point x="1029" y="22" type="curve" smooth="yes"/>
			<point x="275" y="1046" type="line"/>
			<point x="275" y="80" type="line" smooth="yes"/>
			<point x="275" y="27"/>
			<point x="230" y="-17"/>
			<point x="175" y="-17" type="curve" smooth="yes"/>
			<point x="120" y="-17"/>
			<point x="75" y="27"/>
			<point x="75" y="80" type="curve" smooth="yes"/>
		</contour>
	</outline>
</glyph>
<glyph name="O" format="2">
  <advance width="1503"/>
  <unicode hex="004F"/>
  <outline>
    <contour>
      <point x="754.0" y="1248.0" type="curve" smooth="yes"/>
      <point x="458.0" y="1248.0"/>
      <point x="250.0" y="990.0"/>
      <point x="250.0" y="691.0" type="curve" smooth="yes"/>
      <point x="250.0" y="418.0"/>
      <point x="475.0" y="175.0"/>
      <point x="750.0" y="175.0" type="curve" smooth="yes"/>
      <point x="1024.0" y="175.0"/>
      <point x="1257.0" y="429.0"/>
      <point x="1257.0" y="686.0" type="curve" smooth="yes"/>
      <point x="1257.0" y="996.0"/>
      <point x="1034.0" y="1248.0"/>
    </contour>
    <contour>
      <point x="750.0" y="1451.0" type="curve" smooth="yes"/>
      <point x="1158.0" y="1451.0"/>
      <point x="1454.0" y="1107.0"/>
      <point x="1454.0" y="705.0" type="curve" smooth="yes"/>
      <point x="1454.0" y="302.0"/>
      <point x="1164.0" y="-27.0"/>
      <point x="751.0" y="-27.0" type="curve" smooth="yes"/>
      <point x="330.0" y="-27.0"/>
      <point x="50.0" y="304.0"/>
      <point x="50.0" y="711.0" type="curve" smooth="yes"/>
      <point x="50.0" y="1107.0"/>
      <point x="348.0" y="1451.0"/>
    </contour>
  </outline>
</glyph>
<glyph name="P" format="2">
	<unicode hex="0050"/>
	<advance width="1069"/>
	<outline>
		<contour>
			<point x="815" y="999" type="curve" smooth="yes"/>
			<point x="815" y="1166"/>
			<point x="690" y="1234"/>
			<point x="482" y="1234" type="curve" smooth="yes"/>
			<point x="275" y="1234" type="line"/>
			<point x="276" y="722" type="line"/>
			<point x="443" y="726" type="line" smooth="yes"/>
			<point x="678" y="731"/>
			<point x="815" y="790"/>
		</contour>
		<contour>
			<point x="177" y="-15" type="curve" smooth="yes"/>
			<point x="122" y="-15"/>
			<point x="77" y="29"/>
			<point x="77" y="82" type="curve" smooth="yes"/>
			<point x="77" y="83" type="line"/>
			<point x="75" y="1336" type="line" smooth="yes"/>
			<point x="75" y="1372"/>
			<point x="110" y="1432"/>
			<point x="174" y="1433" type="curve" smooth="yes"/>
			<point x="489" y="1435" type="line" smooth="yes"/>
			<point x="781" y="1435"/>
			<point x="1015" y="1295"/>
			<point x="1015" y="1000" type="curve" smooth="yes"/>
			<point x="1015" y="661"/>
			<point x="774" y="533"/>
			<point x="446" y="524" type="curve" smooth="yes"/>
			<point x="276" y="520" type="line"/>
			<point x="277" y="81" type="line"/>
			<point x="277" y="80" type="line" smooth="yes"/>
			<point x="277" y="27"/>
			<point x="232" y="-15"/>
		</contour>
	</outline>
</glyph>
<glyph name="Q" format="2">
	<unicode hex="0051"/>
	<advance width="1560"/>
	<outline>
		<contour>
			<point x="1412" y="-122" type="curve" smooth="yes"/>
			<point x="1462" y="-122"/>
			<point x="1499" y="-178"/>
			<point x="1499" y="-221" type="curve" smooth="yes"/>
			<point x="1499" y="-330"/>
			<point x="1368" y="-332"/>
			<point x="1293" y="-332" type="curve" smooth="yes"/>
			<point x="1244" y="-332" type="line" smooth="yes"/>
			<point x="990" y="-332"/>
			<point x="774" y="-247"/>
			<point x="685" y="-72" type="curve"/>
			<point x="310" y="-35"/>
			<point x="50" y="278"/>
			<point x="50" y="682" type="curve" smooth="yes"/>
			<point x="50" y="1105"/>
			<point x="345" y="1455"/>
			<point x="783" y="1455" type="curve" smooth="yes"/>
			<point x="1220" y="1455"/>
			<point x="1510" y="1114"/>
			<point x="1510" y="690" type="curve" smooth="yes"/>
			<point x="1510" y="306"/>
			<point x="1274" y="-2"/>
			<point x="939" y="-63" type="curve"/>
			<point x="1010" y="-115"/>
			<point x="1101" y="-142"/>
			<point x="1212" y="-142" type="curve" smooth="yes"/>
			<point x="1268" y="-142"/>
			<point x="1336" y="-122"/>
		</contour>
		<contour>
			<point x="264" y="678" type="curve" smooth="yes"/>
			<point x="264" y="369"/>
			<point x="461" y="110"/>
			<point x="780" y="110" type="curve" smooth="yes"/>
			<point x="1103" y="110"/>
			<point x="1292" y="372"/>
			<point x="1292" y="688" type="curve" smooth="yes"/>
			<point x="1292" y="1003"/>
			<point x="1105" y="1263"/>
			<point x="784" y="1263" type="curve" smooth="yes"/>
			<point x="468" y="1263"/>
			<point x="264" y="985"/>
		</contour>
	</outline>
</glyph>
<glyph name="R" format="2">
  <advance width="1203"/>
  <unicode hex="0052"/>
  <outline>
    <contour>
      <point x="468.0" y="1236.0" type="curve" smooth="yes"/>
      <point x="275.0" y="1236.0" type="line"/>
      <point x="277.0" y="758.0" type="line"/>
      <point x="470.0" y="760.0" type="line" smooth="yes"/>
      <point x="715.0" y="762.0"/>
      <point x="863.0" y="830.0"/>
      <point x="863.0" y="989.0" type="curve" smooth="yes"/>
      <point x="863.0" y="1152.0"/>
      <point x="698.0" y="1236.0"/>
    </contour>
    <contour>
      <point x="1149.0" y="72.0" type="curve" smooth="yes"/>
      <point x="1149.0" y="20.0"/>
      <point x="1103.0" y="-24.0"/>
      <point x="1059.0" y="-24.0" type="curve" smooth="yes"/>
      <point x="1021.0" y="-24.0"/>
      <point x="991.0" y="12.0"/>
      <point x="981.0" y="25.0" type="curve"/>
      <point x="859.0" y="110.0"/>
      <point x="772.0" y="220.0"/>
      <point x="710.0" y="348.0" type="curve" smooth="yes"/>
      <point x="627.0" y="519.0"/>
      <point x="560.0" y="569.0"/>
      <point x="368.0" y="571.0" type="curve" smooth="yes"/>
      <point x="277.0" y="572.0" type="line"/>
      <point x="278.0" y="88.0" type="line"/>
      <point x="278.0" y="86.0" type="line" smooth="yes"/>
      <point x="278.0" y="32.0"/>
      <point x="232.0" y="-14.0"/>
      <point x="178.0" y="-14.0" type="curve" smooth="yes"/>
      <point x="123.0" y="-14.0"/>
      <point x="78.0" y="35.0"/>
      <point x="78.0" y="94.0" type="curve" smooth="yes"/>
      <point x="75.0" y="1335.0" type="line" smooth="yes"/>
      <point x="75.0" y="1391.0"/>
      <point x="121.0" y="1434.0"/>
      <point x="174.0" y="1435.0" type="curve" smooth="yes"/>
      <point x="440.0" y="1436.0" type="line"/>
      <point x="463.0" y="1436.0" type="line" smooth="yes"/>
      <point x="806.0" y="1436.0"/>
      <point x="1061.0" y="1283.0"/>
      <point x="1061.0" y="985.0" type="curve" smooth="yes"/>
      <point x="1061.0" y="792.0"/>
      <point x="928.0" y="664.0"/>
      <point x="780.0" y="606.0" type="curve"/>
      <point x="804.0" y="576.0"/>
      <point x="825.0" y="543.0"/>
      <point x="848.0" y="500.0" type="curve" smooth="yes"/>
      <point x="925.0" y="352.0"/>
      <point x="986.0" y="239.0"/>
      <point x="1106.0" y="153.0" type="curve" smooth="yes"/>
      <point x="1130.0" y="137.0"/>
      <point x="1149.0" y="107.0"/>
    </contour>
  </outline>
</glyph>
<glyph name="S" format="2">
	<unicode hex="0053"/>
	<advance width="1357"/>
	<outline>
		<contour>
			<point x="684" y="1453" type="curve" smooth="yes"/>
			<point x="914" y="1453"/>
			<point x="1118" y="1327"/>
			<point x="1198" y="1146" type="curve" smooth="yes"/>
			<point x="1203" y="1135"/>
			<point x="1207" y="1117"/>
			<point x="1207" y="1105" type="curve" smooth="yes"/>
			<point x="1207" y="1050"/>
			<point x="1162" y="1005"/>
			<point x="1107" y="1005" type="curve" smooth="yes"/>
			<point x="1071" y="1005"/>
			<point x="1029" y="1032"/>
			<point x="1015" y="1065" type="curve" smooth="yes"/>
			<point x="964" y="1180"/>
			<point x="839" y="1253"/>
			<point x="684" y="1253" type="curve" smooth="yes"/>
			<point x="533" y="1253"/>
			<point x="318" y="1177"/>
			<point x="318" y="1025" type="curve" smooth="yes"/>
			<point x="318" y="964"/>
			<point x="366" y="918"/>
			<point x="415" y="893" type="curve" smooth="yes"/>
			<point x="588" y="806"/>
			<point x="835" y="824"/>
			<point x="1022" y="744" type="curve" smooth="yes"/>
			<point x="1140" y="693"/>
			<point x="1257" y="589"/>
			<point x="1257" y="420" type="curve" smooth="yes"/>
			<point x="1257" y="126"/>
			<point x="937" y="-21"/>
			<point x="682" y="-21" type="curve" smooth="yes"/>
			<point x="421" y="-21"/>
			<point x="198" y="111"/>
			<point x="109" y="318" type="curve" smooth="yes"/>
			<point x="104" y="329"/>
			<point x="100" y="346"/>
			<point x="100" y="358" type="curve" smooth="yes"/>
			<point x="100" y="413"/>
			<point x="145" y="458"/>
			<point x="200" y="458" type="curve" smooth="yes"/>
			<point x="237" y="458"/>
			<point x="278" y="431"/>
			<point x="292" y="397" type="curve" smooth="yes"/>
			<point x="350" y="262"/>
			<point x="501" y="179"/>
			<point x="682" y="179" type="curve" smooth="yes"/>
			<point x="851" y="179"/>
			<point x="1056" y="254"/>
			<point x="1056" y="420" type="curve" smooth="yes"/>
			<point x="1056" y="490"/>
			<point x="999" y="536"/>
			<point x="943" y="560" type="curve" smooth="yes"/>
			<point x="753" y="641"/>
			<point x="511" y="620"/>
			<point x="325" y="714" type="curve" smooth="yes"/>
			<point x="219" y="767"/>
			<point x="117" y="867"/>
			<point x="117" y="1025" type="curve" smooth="yes"/>
			<point x="117" y="1302"/>
			<point x="420" y="1453"/>
		</contour>
	</outline>
</glyph>
<glyph name="T" format="2">
  <advance width="1251"/>
  <unicode hex="0054"/>
  <outline>
    <contour>
      <point x="25.0" y="1331.0" type="curve" smooth="yes"/>
      <point x="25.0" y="1386.0"/>
      <point x="70.0" y="1431.0"/>
      <point x="125.0" y="1431.0" type="curve" smooth="yes"/>
      <point x="126.0" y="1431.0" type="line"/>
      <point x="1125.0" y="1437.0" type="line"/>
      <point x="1127.0" y="1437.0" type="line" smooth="yes"/>
      <point x="1182.0" y="1437.0"/>
      <point x="1227.0" y="1392.0"/>
      <point x="1227.0" y="1337.0" type="curve" smooth="yes"/>
      <point x="1227.0" y="1282.0"/>
      <point x="1182.0" y="1237.0"/>
      <point x="1127.0" y="1237.0" type="curve" smooth="yes"/>
      <point x="1126.0" y="1237.0" type="line"/>
      <point x="728.0" y="1235.0" type="line"/>
      <point x="723.0" y="87.0" type="line"/>
      <point x="723.0" y="86.0" type="line" smooth="yes"/>
      <point x="723.0" y="32.0"/>
      <point x="678.0" y="-12.0"/>
      <point x="623.0" y="-12.0" type="curve" smooth="yes"/>
      <point x="568.0" y="-12.0"/>
      <point x="523.0" y="32.0"/>
      <point x="523.0" y="86.0" type="curve" smooth="yes"/>
      <point x="523.0" y="88.0" type="line"/>
      <point x="528.0" y="1234.0" type="line"/>
      <point x="126.0" y="1231.0" type="line"/>
      <point x="125.0" y="1231.0" type="line" smooth="yes"/>
      <point x="70.0" y="1231.0"/>
      <point x="25.0" y="1276.0"/>
    </contour>
  </outline>
</glyph>
<glyph name="U" format="2">
	<unicode hex="0055"/>
	<advance width="1326"/>
	<outline>
		<contour>
			<point x="75" y="1336" type="line" smooth="yes"/>
			<point x="75" y="1386"/>
			<point x="119" y="1434"/>
			<point x="170" y="1434" type="curve" smooth="yes"/>
			<point x="233" y="1434"/>
			<point x="274" y="1398"/>
			<point x="275" y="1336" type="curve" smooth="yes"/>
			<point x="282" y="613" type="line" smooth="yes"/>
			<point x="284" y="325"/>
			<point x="388" y="147"/>
			<point x="651" y="147" type="curve" smooth="yes"/>
			<point x="943" y="147"/>
			<point x="1051" y="331"/>
			<point x="1051" y="598" type="curve" smooth="yes"/>
			<point x="1049" y="1337" type="line"/>
			<point x="1049" y="1338" type="line" smooth="yes"/>
			<point x="1049" y="1392"/>
			<point x="1093" y="1436"/>
			<point x="1148" y="1436" type="curve" smooth="yes"/>
			<point x="1202" y="1436"/>
			<point x="1249" y="1392"/>
			<point x="1249" y="1338" type="curve" smooth="yes"/>
			<point x="1249" y="1337" type="line"/>
			<point x="1251" y="598" type="line" smooth="yes"/>
			<point x="1251" y="198"/>
			<point x="1054" y="-52"/>
			<point x="655" y="-52" type="curve" smooth="yes"/>
			<point x="270" y="-52"/>
			<point x="86" y="226"/>
			<point x="82" y="610" type="curve" smooth="yes"/>
			<point x="75" y="1335" type="line"/>
		</contour>
	</outline>
</glyph>
<glyph name="V" format="2">
  <advance width="1353"/>
  <unicode hex="0056"/>
  <outline>
    <contour>
      <point x="25.0" y="1340.0" type="curve" smooth="yes"/>
      <point x="25.0" y="1387.0"/>
      <point x="72.0" y="1433.0"/>
      <point x="120.0" y="1433.0" type="curve" smooth="yes"/>
      <point x="165.0" y="1433.0"/>
      <point x="201.0" y="1411.0"/>
      <point x="217.0" y="1373.0" type="curve" smooth="yes"/>
      <point x="700.0" y="275.0" type="line"/>
      <point x="1135.0" y="1384.0" type="line" smooth="yes"/>
      <point x="1151.0" y="1426.0"/>
      <point x="1188.0" y="1447.0"/>
      <point x="1233.0" y="1447.0" type="curve" smooth="yes"/>
      <point x="1282.0" y="1447.0"/>
      <point x="1328.0" y="1402.0"/>
      <point x="1328.0" y="1354.0" type="curve" smooth="yes"/>
      <point x="1328.0" y="1336.0"/>
      <point x="1326.0" y="1321.0"/>
      <point x="1321.0" y="1308.0" type="curve" smooth="yes"/>
      <point x="799.0" y="-16.0" type="line" smooth="yes"/>
      <point x="786.0" y="-50.0"/>
      <point x="749.0" y="-80.0"/>
      <point x="706.0" y="-80.0" type="curve" smooth="yes"/>
      <point x="664.0" y="-80.0"/>
      <point x="632.0" y="-57.0"/>
      <point x="615.0" y="-20.0" type="curve" smooth="yes"/>
      <point x="34.0" y="1291.0" type="line" smooth="yes"/>
      <point x="27.0" y="1305.0"/>
      <point x="25.0" y="1322.0"/>
    </contour>
  </outline>
</glyph>
<glyph name="W" format="2">
  <advance width="1805"/>
  <unicode hex="0057"/>
  <outline>
    <contour>
      <point x="813.0" y="1380.0" type="line" smooth="yes"/>
      <point x="825.0" y="1417.0"/>
      <point x="866.0" y="1446.0"/>
      <point x="908.0" y="1446.0" type="curve" smooth="yes"/>
      <point x="953.0" y="1446.0"/>
      <point x="992.0" y="1413.0"/>
      <point x="1003.0" y="1376.0" type="curve" smooth="yes"/>
      <point x="1310.0" y="398.0" type="line"/>
      <point x="1583.0" y="1339.0" type="line"/>
      <point x="1594.0" y="1395.0"/>
      <point x="1634.0" y="1442.0"/>
      <point x="1680.0" y="1442.0" type="curve" smooth="yes"/>
      <point x="1737.0" y="1442.0"/>
      <point x="1780.0" y="1386.0"/>
      <point x="1780.0" y="1321.0" type="curve" smooth="yes"/>
      <point x="1780.0" y="1311.0"/>
      <point x="1779.0" y="1298.0"/>
      <point x="1775.0" y="1286.0" type="curve" smooth="yes"/>
      <point x="1412.0" y="53.0" type="line" smooth="yes"/>
      <point x="1400.0" y="13.0"/>
      <point x="1360.0" y="-16.0"/>
      <point x="1317.0" y="-16.0" type="curve" smooth="yes"/>
      <point x="1277.0" y="-16.0"/>
      <point x="1233.0" y="11.0"/>
      <point x="1221.0" y="50.0" type="curve" smooth="yes"/>
      <point x="905.0" y="957.0" type="line"/>
      <point x="571.0" y="20.0" type="line"/>
      <point x="550.0" y="-1.0"/>
      <point x="519.0" y="-16.0"/>
      <point x="476.0" y="-16.0" type="curve" smooth="yes"/>
      <point x="433.0" y="-16.0"/>
      <point x="391.0" y="13.0"/>
      <point x="379.0" y="53.0" type="curve" smooth="yes"/>
      <point x="29.0" y="1273.0" type="line" smooth="yes"/>
      <point x="26.0" y="1285.0"/>
      <point x="25.0" y="1298.0"/>
      <point x="25.0" y="1308.0" type="curve" smooth="yes"/>
      <point x="25.0" y="1373.0"/>
      <point x="68.0" y="1429.0"/>
      <point x="125.0" y="1429.0" type="curve" smooth="yes"/>
      <point x="172.0" y="1429.0"/>
      <point x="212.0" y="1380.0"/>
      <point x="222.0" y="1324.0" type="curve"/>
      <point x="485.0" y="392.0" type="line"/>
    </contour>
  </outline>
</glyph>
<glyph name="X" format="2">
	<unicode hex="0058"/>
	<advance width="1284"/>
	<outline>
		<contour>
			<point x="1091" y="1429" type="curve" smooth="yes"/>
			<point x="1147" y="1429"/>
			<point x="1191" y="1383"/>
			<point x="1191" y="1329" type="curve" smooth="yes"/>
			<point x="1191" y="1310"/>
			<point x="1182" y="1283"/>
			<point x="1170" y="1268" type="curve" smooth="yes"/>
			<point x="766" y="730" type="line"/>
			<point x="1214" y="137" type="line" smooth="yes"/>
			<point x="1226" y="122"/>
			<point x="1235" y="95"/>
			<point x="1235" y="76" type="curve" smooth="yes"/>
			<point x="1235" y="21"/>
			<point x="1190" y="-24"/>
			<point x="1135" y="-24" type="curve" smooth="yes"/>
			<point x="1107" y="-24"/>
			<point x="1071" y="-6"/>
			<point x="1054" y="17" type="curve" smooth="yes"/>
			<point x="641" y="564" type="line"/>
			<point x="231" y="19" type="line" smooth="yes"/>
			<point x="214" y="-4"/>
			<point x="178" y="-23"/>
			<point x="150" y="-23" type="curve" smooth="yes"/>
			<point x="95" y="-23"/>
			<point x="50" y="22"/>
			<point x="50" y="77" type="curve" smooth="yes"/>
			<point x="50" y="96"/>
			<point x="59" y="124"/>
			<point x="71" y="139" type="curve" smooth="yes"/>
			<point x="515" y="730" type="line"/>
			<point x="107" y="1271" type="line" smooth="yes"/>
			<point x="95" y="1286"/>
			<point x="86" y="1313"/>
			<point x="86" y="1332" type="curve" smooth="yes"/>
			<point x="86" y="1387"/>
			<point x="131" y="1432"/>
			<point x="186" y="1432" type="curve" smooth="yes"/>
			<point x="215" y="1432"/>
			<point x="251" y="1413"/>
			<point x="267" y="1391" type="curve" smooth="yes"/>
			<point x="641" y="896" type="line"/>
			<point x="1010" y="1388" type="line" smooth="yes"/>
			<point x="1027" y="1411"/>
			<point x="1063" y="1429"/>
		</contour>
	</outline>
</glyph>
<glyph name="Y" format="2">
  <advance width="1129"/>
  <unicode hex="0059"/>
  <outline>
    <contour>
      <point x="25.0" y="1363.0" type="curve" smooth="yes"/>
      <point x="25.0" y="1418.0"/>
      <point x="78.0" y="1456.0"/>
      <point x="131.0" y="1456.0" type="curve" smooth="yes"/>
      <point x="166.0" y="1456.0"/>
      <point x="194.0" y="1437.0"/>
      <point x="211.0" y="1408.0" type="curve" smooth="yes"/>
      <point x="568.0" y="793.0" type="line"/>
      <point x="917.0" y="1402.0" type="line" smooth="yes"/>
      <point x="930.0" y="1423.0"/>
      <point x="964.0" y="1448.0"/>
      <point x="996.0" y="1448.0" type="curve" smooth="yes"/>
      <point x="1027.0" y="1448.0"/>
      <point x="1049.0" y="1446.0"/>
      <point x="1076.0" y="1418.0" type="curve" smooth="yes"/>
      <point x="1093.0" y="1400.0"/>
      <point x="1104.0" y="1379.0"/>
      <point x="1104.0" y="1355.0" type="curve" smooth="yes"/>
      <point x="1104.0" y="1335.0"/>
      <point x="1100.0" y="1316.0"/>
      <point x="1089.0" y="1298.0" type="curve" smooth="yes"/>
      <point x="664.0" y="576.0" type="line"/>
      <point x="657.0" y="78.0" type="line"/>
      <point x="657.0" y="25.0"/>
      <point x="612.0" y="-19.0"/>
      <point x="557.0" y="-19.0" type="curve" smooth="yes"/>
      <point x="502.0" y="-19.0"/>
      <point x="457.0" y="25.0"/>
      <point x="457.0" y="78.0" type="curve" smooth="yes"/>
      <point x="457.0" y="80.0" type="line"/>
      <point x="464.0" y="589.0" type="line"/>
      <point x="41.0" y="1306.0" type="line"/>
      <point x="30.0" y="1322.0"/>
      <point x="25.0" y="1342.0"/>
    </contour>
  </outline>
</glyph>
<glyph name="Z" format="2">
  <advance width="1369"/>
  <unicode hex="005A"/>
  <outline>
    <contour>
      <point x="1207.0" y="-10.0" type="curve" smooth="yes"/>
      <point x="133.0" y="-17.0" type="line" smooth="yes"/>
      <point x="79.0" y="-17.0"/>
      <point x="33.0" y="26.0"/>
      <point x="33.0" y="82.0" type="curve" smooth="yes"/>
      <point x="33.0" y="107.0"/>
      <point x="40.0" y="130.0"/>
      <point x="56.0" y="148.0" type="curve" smooth="yes"/>
      <point x="1027.0" y="1233.0" type="line"/>
      <point x="126.0" y="1232.0" type="line"/>
      <point x="125.0" y="1232.0" type="line" smooth="yes"/>
      <point x="68.0" y="1232.0"/>
      <point x="25.0" y="1278.0"/>
      <point x="25.0" y="1333.0" type="curve" smooth="yes"/>
      <point x="25.0" y="1387.0"/>
      <point x="76.0" y="1435.0"/>
      <point x="118.0" y="1435.0" type="curve" smooth="yes"/>
      <point x="1244.0" y="1433.0" type="line" smooth="yes"/>
      <point x="1297.0" y="1433.0"/>
      <point x="1344.0" y="1389.0"/>
      <point x="1344.0" y="1334.0" type="curve" smooth="yes"/>
      <point x="1344.0" y="1309.0"/>
      <point x="1337.0" y="1286.0"/>
      <point x="1321.0" y="1268.0" type="curve" smooth="yes"/>
      <point x="350.0" y="183.0" type="line"/>
      <point x="1215.0" y="184.0" type="line"/>
      <point x="1216.0" y="184.0" type="line" smooth="yes"/>
      <point x="1275.0" y="184.0"/>
      <point x="1316.0" y="136.0"/>
      <point x="1316.0" y="79.0" type="curve" smooth="yes"/>
      <point x="1316.0" y="7.0"/>
      <point x="1241.0" y="-11.0"/>
      <point x="1214.0" y="-11.0" type="curve" smooth="yes"/>
      <point x="1209.0" y="-11.0"/>
      <point x="1209.0" y="-10.0"/>
    </contour>
  </outline>
</glyph>
<glyph name="bracketleft" format="2">
  <advance width="796"/>
  <unicode hex="005B"/>
  <outline>
    <contour>
      <point x="200.0" y="1383.0" type="curve" smooth="yes"/>
      <point x="645.0" y="1383.0" type="line" smooth="yes"/>
      <point x="700.0" y="1383.0"/>
      <point x="745.0" y="1338.0"/>
      <point x="745.0" y="1283.0" type="curve" smooth="yes"/>
      <point x="745.0" y="1228.0"/>
      <point x="700.0" y="1183.0"/>
      <point x="645.0" y="1183.0" type="curve" smooth="yes"/>
      <point x="300.0" y="1183.0" type="line"/>
      <point x="302.0" y="-280.0" type="line"/>
      <point x="645.0" y="-281.0" type="line"/>
      <point x="646.0" y="-281.0" type="line" smooth="yes"/>
      <point x="701.0" y="-281.0"/>
      <point x="746.0" y="-326.0"/>
      <point x="746.0" y="-381.0" type="curve" smooth="yes"/>
      <point x="746.0" y="-436.0"/>
      <point x="701.0" y="-481.0"/>
      <point x="646.0" y="-481.0" type="curve" smooth="yes"/>
      <point x="645.0" y="-481.0" type="line"/>
      <point x="202.0" y="-480.0" type="line" smooth="yes"/>
      <point x="147.0" y="-480.0"/>
      <point x="102.0" y="-435.0"/>
      <point x="102.0" y="-380.0" type="curve" smooth="yes"/>
      <point x="100.0" y="1283.0" type="line" smooth="yes"/>
      <point x="100.0" y="1338.0"/>
      <point x="145.0" y="1383.0"/>
    </contour>
  </outline>
</glyph>
<glyph name="backslash" format="2">
  <advance width="961"/>
  <unicode hex="005C"/>
  <outline>
    <contour>
      <point x="849.0" y="-137.0" type="curve" smooth="yes"/>
      <point x="797.0" y="-161.0"/>
      <point x="745.0" y="-129.0"/>
      <point x="722.0" y="-86.0" type="curve" smooth="yes"/>
      <point x="60.0" y="1245.0" type="line" smooth="yes"/>
      <point x="34.0" y="1300.0"/>
      <point x="62.0" y="1357.0"/>
      <point x="115.0" y="1381.0" type="curve" smooth="yes"/>
      <point x="159.0" y="1401.0"/>
      <point x="220.0" y="1381.0"/>
      <point x="241.0" y="1329.0" type="curve"/>
      <point x="903.0" y="-2.0" type="line" smooth="yes"/>
      <point x="923.0" y="-47.0"/>
      <point x="909.0" y="-110.0"/>
    </contour>
  </outline>
</glyph>
<glyph name="bracketright" format="2">
  <advance width="796"/>
  <unicode hex="005D"/>
  <outline>
    <contour>
      <point x="596.0" y="1384.0" type="line" smooth="yes"/>
      <point x="651.0" y="1384.0"/>
      <point x="696.0" y="1339.0"/>
      <point x="696.0" y="1284.0" type="curve" smooth="yes"/>
      <point x="694.0" y="-379.0" type="line" smooth="yes"/>
      <point x="694.0" y="-434.0"/>
      <point x="649.0" y="-479.0"/>
      <point x="594.0" y="-479.0" type="curve" smooth="yes"/>
      <point x="151.0" y="-480.0" type="line"/>
      <point x="150.0" y="-480.0" type="line" smooth="yes"/>
      <point x="95.0" y="-480.0"/>
      <point x="50.0" y="-435.0"/>
      <point x="50.0" y="-380.0" type="curve" smooth="yes"/>
      <point x="50.0" y="-325.0"/>
      <point x="95.0" y="-280.0"/>
      <point x="150.0" y="-280.0" type="curve" smooth="yes"/>
      <point x="151.0" y="-280.0" type="line"/>
      <point x="494.0" y="-279.0" type="line"/>
      <point x="496.0" y="1184.0" type="line"/>
      <point x="151.0" y="1184.0" type="line" smooth="yes"/>
      <point x="96.0" y="1184.0"/>
      <point x="51.0" y="1229.0"/>
      <point x="51.0" y="1284.0" type="curve" smooth="yes"/>
      <point x="51.0" y="1339.0"/>
      <point x="96.0" y="1384.0"/>
      <point x="151.0" y="1384.0" type="curve" smooth="yes"/>
    </contour>
  </outline>
</glyph>
<glyph name="asciicircum" format="2">
  <advance width="822"/>
  <unicode hex="005E"/>
  <outline>
    <contour>
      <point x="333.0" y="1402.0" type="line" smooth="yes"/>
      <point x="349.0" y="1418.0"/>
      <point x="380.0" y="1432.0"/>
      <point x="404.0" y="1432.0" type="curve" smooth="yes"/>
      <point x="426.0" y="1432.0"/>
      <point x="457.0" y="1419.0"/>
      <point x="473.0" y="1404.0" type="curve" smooth="yes"/>
      <point x="790.0" y="1101.0" type="line" smooth="yes"/>
      <point x="808.0" y="1085.0"/>
      <point x="822.0" y="1051.0"/>
      <point x="822.0" y="1027.0" type="curve" smooth="yes"/>
      <point x="822.0" y="972.0"/>
      <point x="777.0" y="927.0"/>
      <point x="722.0" y="927.0" type="curve" smooth="yes"/>
      <point x="699.0" y="927.0"/>
      <point x="668.0" y="940.0"/>
      <point x="652.0" y="956.0" type="curve" smooth="yes"/>
      <point x="406.0" y="1192.0" type="line"/>
      <point x="172.0" y="955.0" type="line" smooth="yes"/>
      <point x="156.0" y="938.0"/>
      <point x="124.0" y="924.0"/>
      <point x="100.0" y="924.0" type="curve" smooth="yes"/>
      <point x="45.0" y="924.0"/>
      <point x="0.0" y="969.0"/>
      <point x="0.0" y="1024.0" type="curve" smooth="yes"/>
      <point x="0.0" y="1047.0"/>
      <point x="14.0" y="1079.0"/>
      <point x="30.0" y="1095.0" type="curve" smooth="yes"/>
    </contour>
  </outline>
</glyph>
<glyph name="underscore" format="2">
  <advance width="1060"/>
  <unicode hex="005F"/>
  <outline>
    <contour>
      <point x="50.0" y="98.0" type="curve" smooth="yes"/>
      <point x="50.0" y="138.0"/>
      <point x="85.0" y="193.0"/>
      <point x="131.0" y="193.0" type="curve" smooth="yes"/>
      <point x="138.0" y="193.0"/>
      <point x="143.0" y="193.0"/>
      <point x="150.0" y="192.0" type="curve"/>
      <point x="931.0" y="192.0" type="line" smooth="yes"/>
      <point x="979.0" y="192.0"/>
      <point x="1010.0" y="135.0"/>
      <point x="1010.0" y="98.0" type="curve" smooth="yes"/>
      <point x="1010.0" y="58.0"/>
      <point x="977.0" y="0.0"/>
      <point x="929.0" y="0.0" type="curve" smooth="yes"/>
      <point x="131.0" y="0.0" type="line" smooth="yes"/>
      <point x="83.0" y="0.0"/>
      <point x="50.0" y="59.0"/>
    </contour>
  </outline>
</glyph>
<glyph name="grave" format="2">
  <advance width="512"/>
  <unicode hex="0060"/>
  <outline>
    <contour>
      <point x="0.0" y="1340.0" type="curve" smooth="yes"/>
      <point x="0.0" y="1401.0"/>
      <point x="51.0" y="1440.0"/>
      <point x="101.0" y="1440.0" type="curve" smooth="yes"/>
      <point x="125.0" y="1440.0"/>
      <point x="150.0" y="1430.0"/>
      <point x="170.0" y="1411.0" type="curve"/>
      <point x="470.0" y="1088.0" type="line"/>
      <point x="496.0" y="1064.0"/>
      <point x="513.0" y="1038.0"/>
      <point x="513.0" y="1012.0" type="curve" smooth="yes"/>
      <point x="513.0" y="979.0"/>
      <point x="477.0" y="943.0"/>
      <point x="445.0" y="943.0" type="curve" smooth="yes"/>
      <point x="420.0" y="943.0"/>
      <point x="394.0" y="959.0"/>
      <point x="370.0" y="983.0" type="curve"/>
      <point x="32.0" y="1267.0" type="line" smooth="yes"/>
      <point x="11.0" y="1286.0"/>
      <point x="0.0" y="1313.0"/>
    </contour>
  </outline>
</glyph>
<glyph name="a" format="2">
	<unicode hex="0061"/>
	<advance width="1276"/>
	<outline>
		<contour>
			<point x="623" y="1100" type="curve" smooth="yes"/>
			<point x="770" y="1100"/>
			<point x="922" y="998"/>
			<point x="976" y="905" type="curve"/>
			<point x="987" y="1001" type="line"/>
			<point x="987" y="1056"/>
			<point x="1021" y="1101"/>
			<point x="1076" y="1101" type="curve" smooth="yes"/>
			<point x="1131" y="1101"/>
			<point x="1176" y="1056"/>
			<point x="1176" y="1001" type="curve" smooth="yes"/>
			<point x="1176" y="999" type="line"/>
			<point x="1174" y="73" type="line"/>
			<point x="1174" y="18"/>
			<point x="1129" y="-27"/>
			<point x="1074" y="-27" type="curve" smooth="yes"/>
			<point x="1019" y="-27"/>
			<point x="985" y="18"/>
			<point x="985" y="73" type="curve"/>
			<point x="974" y="153" type="line"/>
			<point x="904" y="34"/>
			<point x="755" y="-23"/>
			<point x="621" y="-23" type="curve" smooth="yes"/>
			<point x="319" y="-23"/>
			<point x="75" y="237"/>
			<point x="75" y="536" type="curve" smooth="yes"/>
			<point x="75" y="833"/>
			<point x="312" y="1100"/>
		</contour>
		<contour>
			<point x="968" y="538" type="curve" smooth="yes"/>
			<point x="968" y="733"/>
			<point x="820" y="900"/>
			<point x="621" y="900" type="curve" smooth="yes"/>
			<point x="425" y="900"/>
			<point x="273" y="731"/>
			<point x="273" y="539" type="curve" smooth="yes"/>
			<point x="273" y="345"/>
			<point x="429" y="177"/>
			<point x="622" y="177" type="curve" smooth="yes"/>
			<point x="814" y="177"/>
			<point x="968" y="345"/>
		</contour>
	</outline>
</glyph>
<glyph name="b" format="2">
	<unicode hex="0062"/>
	<advance width="1211"/>
	<outline>
		<contour>
			<point x="1161" y="539" type="curve" smooth="yes"/>
			<point x="1161" y="244"/>
			<point x="938" y="-17"/>
			<point x="637" y="-17" type="curve" smooth="yes"/>
			<point x="513" y="-17"/>
			<point x="376" y="50"/>
			<point x="300" y="159" type="curve"/>
			<point x="288" y="78" type="line" smooth="yes"/>
			<point x="279.9624023438" y="23.7463092804"/>
			<point x="255" y="-22"/>
			<point x="200" y="-22" type="curve" smooth="yes"/>
			<point x="145" y="-22"/>
			<point x="100" y="23"/>
			<point x="100" y="78" type="curve" smooth="yes"/>
			<point x="100" y="1355" type="line" smooth="yes"/>
			<point x="100" y="1410"/>
			<point x="145" y="1455"/>
			<point x="200" y="1455" type="curve" smooth="yes"/>
			<point x="255" y="1455"/>
			<point x="300" y="1410"/>
			<point x="300" y="1355" type="curve" smooth="yes"/>
			<point x="300" y="934" type="line"/>
			<point x="386" y="1034"/>
			<point x="491" y="1097"/>
			<point x="630" y="1097" type="curve" smooth="yes"/>
			<point x="766" y="1097"/>
			<point x="898" y="1043"/>
			<point x="995" y="948" type="curve" smooth="yes"/>
			<point x="1105" y="839"/>
			<point x="1161" y="690"/>
		</contour>
		<contour>
			<point x="639" y="183" type="curve" smooth="yes"/>
			<point x="824" y="183"/>
			<point x="962" y="352"/>
			<point x="962" y="539" type="curve" smooth="yes"/>
			<point x="962" y="725"/>
			<point x="823" y="900"/>
			<point x="634" y="900" type="curve" smooth="yes"/>
			<point x="443" y="900"/>
			<point x="307" y="736"/>
			<point x="307" y="544" type="curve" smooth="yes"/>
			<point x="307" y="451"/>
			<point x="341" y="356"/>
			<point x="401" y="290" type="curve" smooth="yes"/>
			<point x="461" y="224"/>
			<point x="552" y="183"/>
		</contour>
	</outline>
</glyph>
<glyph name="c" format="2">
	<unicode hex="0063"/>
	<advance width="1098"/>
	<outline>
		<contour>
			<point x="60" y="539" type="curve" smooth="yes"/>
			<point x="60" y="834"/>
			<point x="284" y="1096"/>
			<point x="580" y="1096" type="curve" smooth="yes"/>
			<point x="799" y="1096"/>
			<point x="965" y="954"/>
			<point x="1030" y="790" type="curve" smooth="yes"/>
			<point x="1034" y="780"/>
			<point x="1037" y="763"/>
			<point x="1037" y="752" type="curve" smooth="yes"/>
			<point x="1037" y="697"/>
			<point x="992" y="652"/>
			<point x="937" y="652" type="curve" smooth="yes"/>
			<point x="899" y="652"/>
			<point x="858" y="681"/>
			<point x="844" y="717" type="curve" smooth="yes"/>
			<point x="806" y="813"/>
			<point x="709" y="896"/>
			<point x="580" y="896" type="curve" smooth="yes"/>
			<point x="397" y="896"/>
			<point x="260" y="726"/>
			<point x="260" y="539" type="curve" smooth="yes"/>
			<point x="260" y="348"/>
			<point x="401" y="174"/>
			<point x="590" y="174" type="curve" smooth="yes"/>
			<point x="712" y="174"/>
			<point x="805" y="246"/>
			<point x="850" y="329" type="curve" smooth="yes"/>
			<point x="866" y="358"/>
			<point x="906" y="382"/>
			<point x="939" y="382" type="curve" smooth="yes"/>
			<point x="994" y="382"/>
			<point x="1039" y="337"/>
			<point x="1039" y="282" type="curve" smooth="yes"/>
			<point x="1039" y="268"/>
			<point x="1033" y="246"/>
			<point x="1026" y="233" type="curve" smooth="yes"/>
			<point x="950" y="93"/>
			<point x="794" y="-26"/>
			<point x="590" y="-26" type="curve" smooth="yes"/>
			<point x="287" y="-26"/>
			<point x="60" y="238"/>
		</contour>
	</outline>
</glyph>
<glyph name="d" format="2">
	<unicode hex="0064"/>
	<advance width="1211"/>
	<outline>
		<contour>
			<point x="50" y="538" type="curve" smooth="yes"/>
			<point x="50" y="689"/>
			<point x="106" y="838"/>
			<point x="216" y="947" type="curve" smooth="yes"/>
			<point x="313" y="1042"/>
			<point x="445" y="1096"/>
			<point x="581" y="1096" type="curve" smooth="yes"/>
			<point x="720" y="1096"/>
			<point x="825" y="1033"/>
			<point x="911" y="933" type="curve"/>
			<point x="911" y="1354" type="line" smooth="yes"/>
			<point x="911" y="1409"/>
			<point x="956" y="1454"/>
			<point x="1011" y="1454" type="curve" smooth="yes"/>
			<point x="1066" y="1454"/>
			<point x="1111" y="1409"/>
			<point x="1111" y="1354" type="curve" smooth="yes"/>
			<point x="1111" y="77" type="line" smooth="yes"/>
			<point x="1111" y="22"/>
			<point x="1066" y="-23"/>
			<point x="1011" y="-23" type="curve" smooth="yes"/>
			<point x="956" y="-23"/>
			<point x="931.0375976562" y="22.7463092804"/>
			<point x="923" y="77" type="curve" smooth="yes"/>
			<point x="911" y="158" type="line"/>
			<point x="835" y="49"/>
			<point x="698" y="-18"/>
			<point x="574" y="-18" type="curve" smooth="yes"/>
			<point x="273" y="-18"/>
			<point x="50" y="243"/>
		</contour>
		<contour>
			<point x="572" y="182" type="curve" smooth="yes"/>
			<point x="659" y="182"/>
			<point x="750" y="223"/>
			<point x="810" y="289" type="curve" smooth="yes"/>
			<point x="870" y="355"/>
			<point x="904" y="450"/>
			<point x="904" y="543" type="curve" smooth="yes"/>
			<point x="904" y="735"/>
			<point x="768" y="899"/>
			<point x="577" y="899" type="curve" smooth="yes"/>
			<point x="388" y="899"/>
			<point x="249" y="724"/>
			<point x="249" y="538" type="curve" smooth="yes"/>
			<point x="249" y="351"/>
			<point x="387" y="182"/>
		</contour>
	</outline>
</glyph>
<glyph name="e" format="2">
	<unicode hex="0065"/>
	<advance width="1131"/>
	<outline>
		<contour>
			<point x="582" y="1092" type="curve" smooth="yes"/>
			<point x="847" y="1092"/>
			<point x="1072" y="873"/>
			<point x="1072" y="601" type="curve" smooth="yes"/>
			<point x="1072" y="582"/>
			<point x="1071" y="563"/>
			<point x="1069" y="544" type="curve" smooth="yes"/>
			<point x="1063" y="495"/>
			<point x="1018" y="456"/>
			<point x="969" y="456" type="curve" smooth="yes"/>
			<point x="270" y="455" type="line"/>
			<point x="304" y="311"/>
			<point x="436" y="179"/>
			<point x="596" y="179" type="curve" smooth="yes"/>
			<point x="710" y="179"/>
			<point x="805" y="244"/>
			<point x="856" y="318" type="curve" smooth="yes"/>
			<point x="872" y="343"/>
			<point x="909" y="363"/>
			<point x="939" y="363" type="curve" smooth="yes"/>
			<point x="994" y="363"/>
			<point x="1039" y="317"/>
			<point x="1039" y="262" type="curve" smooth="yes"/>
			<point x="1039" y="245"/>
			<point x="1031" y="219"/>
			<point x="1021" y="205" type="curve" smooth="yes"/>
			<point x="938" y="84"/>
			<point x="789" y="-19"/>
			<point x="599" y="-19" type="curve" smooth="yes"/>
			<point x="292" y="-19"/>
			<point x="60" y="242"/>
			<point x="60" y="543" type="curve" smooth="yes"/>
			<point x="60" y="833"/>
			<point x="290" y="1092"/>
		</contour>
		<contour>
			<point x="866" y="656" type="line"/>
			<point x="840" y="787"/>
			<point x="724" y="892"/>
			<point x="582" y="892" type="curve" smooth="yes"/>
			<point x="437" y="892"/>
			<point x="316" y="782"/>
			<point x="277" y="655" type="curve"/>
		</contour>
	</outline>
</glyph>
<glyph name="f" format="2">
	<unicode hex="0066"/>
	<advance width="811"/>
	<outline>
		<contour>
			<point x="35" y="982" type="curve" smooth="yes"/>
			<point x="35" y="1021"/>
			<point x="71" y="1066"/>
			<point x="116" y="1066" type="curve" smooth="yes"/>
			<point x="264" y="1067" type="line"/>
			<point x="264" y="1080" type="line" smooth="yes"/>
			<point x="268" y="1305"/>
			<point x="358" y="1442"/>
			<point x="577" y="1438" type="curve" smooth="yes"/>
			<point x="687" y="1436" type="line" smooth="yes"/>
			<point x="741" y="1436"/>
			<point x="786" y="1390"/>
			<point x="786" y="1336" type="curve" smooth="yes"/>
			<point x="786" y="1281"/>
			<point x="742" y="1239"/>
			<point x="686" y="1239" type="curve"/>
			<point x="574" y="1255" type="line"/>
			<point x="469.9580688477" y="1255"/>
			<point x="461.9431152344" y="1217.7366943359"/>
			<point x="463" y="1074" type="curve"/>
			<point x="464" y="1065" type="line"/>
			<point x="666" y="1064" type="line" smooth="yes"/>
			<point x="719" y="1064"/>
			<point x="761" y="1023"/>
			<point x="761" y="972" type="curve" smooth="yes"/>
			<point x="761" y="929"/>
			<point x="720" y="881"/>
			<point x="676" y="881" type="curve" smooth="yes"/>
			<point x="464" y="879" type="line"/>
			<point x="466" y="73" type="line"/>
			<point x="466" y="72" type="line" smooth="yes"/>
			<point x="466" y="19"/>
			<point x="421" y="-23"/>
			<point x="366" y="-23" type="curve" smooth="yes"/>
			<point x="311" y="-23"/>
			<point x="266" y="19"/>
			<point x="266" y="72" type="curve" smooth="yes"/>
			<point x="266" y="73" type="line"/>
			<point x="264" y="881" type="line"/>
			<point x="130" y="882" type="line" smooth="yes"/>
			<point x="76" y="882"/>
			<point x="35" y="923"/>
		</contour>
	</outline>
</glyph>
<glyph name="g" format="2">
	<unicode hex="0067"/>
	<advance width="1205"/>
	<outline>
		<contour>
			<point x="1006" y="1099" type="curve" smooth="yes"/>
			<point x="1061" y="1099"/>
			<point x="1106" y="1054"/>
			<point x="1106" y="999" type="curve" smooth="yes"/>
			<point x="1106" y="997" type="line"/>
			<point x="1099" y="42" type="line" smooth="yes"/>
			<point x="1097" y="-257"/>
			<point x="839" y="-506"/>
			<point x="539" y="-506" type="curve" smooth="yes"/>
			<point x="369" y="-506"/>
			<point x="207" y="-428"/>
			<point x="101" y="-295" type="curve" smooth="yes"/>
			<point x="89" y="-280"/>
			<point x="78" y="-251"/>
			<point x="78" y="-231" type="curve" smooth="yes"/>
			<point x="78" y="-176"/>
			<point x="123" y="-131"/>
			<point x="178" y="-131" type="curve" smooth="yes"/>
			<point x="205" y="-131"/>
			<point x="241" y="-148"/>
			<point x="258" y="-170" type="curve" smooth="yes"/>
			<point x="324" y="-253"/>
			<point x="434" y="-306"/>
			<point x="540" y="-306" type="curve" smooth="yes"/>
			<point x="734" y="-306"/>
			<point x="899" y="-145"/>
			<point x="899" y="45" type="curve" smooth="yes"/>
			<point x="899" y="143" type="line"/>
			<point x="820" y="20"/>
			<point x="702" y="-18"/>
			<point x="586" y="-18" type="curve" smooth="yes"/>
			<point x="294" y="-18"/>
			<point x="75" y="258"/>
			<point x="75" y="547" type="curve" smooth="yes"/>
			<point x="75" y="834"/>
			<point x="293" y="1096"/>
			<point x="586" y="1096" type="curve" smooth="yes"/>
			<point x="713" y="1096"/>
			<point x="828" y="1038"/>
			<point x="905" y="918" type="curve"/>
			<point x="920" y="998" type="line" smooth="yes"/>
			<point x="930" y="1053"/>
			<point x="950.4532470703" y="1099"/>
		</contour>
		<contour>
			<point x="897" y="546" type="curve" smooth="yes"/>
			<point x="897" y="727"/>
			<point x="767" y="896"/>
			<point x="589" y="896" type="curve" smooth="yes"/>
			<point x="408" y="896"/>
			<point x="276" y="728"/>
			<point x="276" y="547" type="curve" smooth="yes"/>
			<point x="276" y="367"/>
			<point x="406" y="182"/>
			<point x="586" y="182" type="curve" smooth="yes"/>
			<point x="764" y="182"/>
			<point x="897" y="364"/>
		</contour>
	</outline>
</glyph>
<glyph name="h" format="2">
	<unicode hex="0068"/>
	<advance width="1092"/>
	<outline>
		<contour>
			<point x="95" y="1362" type="line" smooth="yes"/>
			<point x="95" y="1415"/>
			<point x="139" y="1459"/>
			<point x="195" y="1459" type="curve" smooth="yes"/>
			<point x="250" y="1459"/>
			<point x="295" y="1415"/>
			<point x="295" y="1362" type="curve" smooth="yes"/>
			<point x="295" y="926" type="line"/>
			<point x="346" y="1034"/>
			<point x="456" y="1094"/>
			<point x="547" y="1094" type="curve" smooth="yes"/>
			<point x="861" y="1094"/>
			<point x="997" y="887"/>
			<point x="997" y="589" type="curve" smooth="yes"/>
			<point x="997" y="580" type="line"/>
			<point x="996" y="75" type="line"/>
			<point x="996" y="74" type="line" smooth="yes"/>
			<point x="996" y="21"/>
			<point x="951" y="-23"/>
			<point x="896" y="-23" type="curve" smooth="yes"/>
			<point x="841" y="-23"/>
			<point x="796" y="21"/>
			<point x="796" y="74" type="curve" smooth="yes"/>
			<point x="796" y="75" type="line"/>
			<point x="797" y="575" type="line"/>
			<point x="797" y="577" type="line" smooth="yes"/>
			<point x="797" y="782"/>
			<point x="744" y="893"/>
			<point x="547" y="893" type="curve" smooth="yes"/>
			<point x="380" y="893"/>
			<point x="297" y="764"/>
			<point x="297" y="582" type="curve" smooth="yes"/>
			<point x="297" y="73" type="line" smooth="yes"/>
			<point x="297" y="20"/>
			<point x="252" y="-24"/>
			<point x="197" y="-24" type="curve" smooth="yes"/>
			<point x="139" y="-24"/>
			<point x="95" y="22"/>
			<point x="95" y="73" type="curve" smooth="yes"/>
		</contour>
	</outline>
</glyph>
<glyph name="i" format="2">
	<unicode hex="0069"/>
	<advance width="392"/>
	<outline>
		<contour>
			<point x="203" y="1198" type="curve" smooth="yes"/>
			<point x="141" y="1198"/>
			<point x="99" y="1241"/>
			<point x="98" y="1297" type="curve" smooth="yes"/>
			<point x="96" y="1373" type="line" smooth="yes"/>
			<point x="96" y="1423"/>
			<point x="153" y="1458"/>
			<point x="195" y="1458" type="curve" smooth="yes"/>
			<point x="251" y="1458"/>
			<point x="294" y="1413"/>
			<point x="295" y="1359" type="curve" smooth="yes"/>
			<point x="296" y="1299" type="line" smooth="yes"/>
			<point x="296" y="1247"/>
			<point x="258" y="1198"/>
		</contour>
		<contour>
			<point x="95" y="1009" type="line" smooth="yes"/>
			<point x="95" y="1059"/>
			<point x="149" y="1095"/>
			<point x="189" y="1095" type="curve" smooth="yes"/>
			<point x="247" y="1095"/>
			<point x="295" y="1057"/>
			<point x="295" y="1000" type="curve" smooth="yes"/>
			<point x="295" y="999" type="line"/>
			<point x="297" y="73" type="line" smooth="yes"/>
			<point x="297" y="20"/>
			<point x="252" y="-23"/>
			<point x="197" y="-23" type="curve" smooth="yes"/>
			<point x="141" y="-23"/>
			<point x="97" y="21"/>
			<point x="97" y="74" type="curve" smooth="yes"/>
		</contour>
	</outline>
</glyph>
<glyph name="j" format="2">
	<unicode hex="006A"/>
	<advance width="516"/>
	<outline>
		<contour>
			<point x="408" y="1294" type="line" smooth="yes"/>
			<point x="408" y="1249"/>
			<point x="355" y="1217"/>
			<point x="318" y="1217" type="curve" smooth="yes"/>
			<point x="267" y="1217"/>
			<point x="229" y="1258"/>
			<point x="228" y="1306" type="curve" smooth="yes"/>
			<point x="226" y="1363" type="line"/>
			<point x="226" y="1378" type="line" smooth="yes"/>
			<point x="226" y="1423"/>
			<point x="278" y="1456"/>
			<point x="316" y="1456" type="curve" smooth="yes"/>
			<point x="367" y="1456"/>
			<point x="405" y="1415"/>
			<point x="406" y="1367" type="curve" smooth="yes"/>
			<point x="408" y="1309" type="line"/>
		</contour>
		<contour>
			<point x="313" y="1094" type="curve" smooth="yes"/>
			<point x="357" y="1094"/>
			<point x="417" y="1067"/>
			<point x="417" y="1011" type="curve" smooth="yes"/>
			<point x="421" y="27" type="line" smooth="yes"/>
			<point x="421" y="-239"/>
			<point x="308" y="-481"/>
			<point x="24" y="-481" type="curve" smooth="yes"/>
			<point x="-21" y="-481"/>
			<point x="-69" y="-473"/>
			<point x="-116" y="-453" type="curve" smooth="yes"/>
			<point x="-155" y="-437"/>
			<point x="-175" y="-402"/>
			<point x="-175" y="-357" type="curve" smooth="yes"/>
			<point x="-175" y="-314"/>
			<point x="-130" y="-270"/>
			<point x="-87" y="-270" type="curve" smooth="yes"/>
			<point x="-70" y="-270"/>
			<point x="-55" y="-272"/>
			<point x="-42" y="-278" type="curve" smooth="yes"/>
			<point x="-16" y="-289"/>
			<point x="6" y="-293"/>
			<point x="28" y="-293" type="curve" smooth="yes"/>
			<point x="183" y="-293"/>
			<point x="231" y="-144"/>
			<point x="231" y="45" type="curve" smooth="yes"/>
			<point x="227" y="1014" type="line" smooth="yes"/>
			<point x="227" y="1054"/>
			<point x="276" y="1094"/>
		</contour>
	</outline>
</glyph>
<glyph name="k" format="2">
	<unicode hex="006B"/>
	<advance width="932"/>
	<outline>
		<contour>
			<point x="95" y="1358" type="line" smooth="yes"/>
			<point x="95" y="1413"/>
			<point x="140" y="1458"/>
			<point x="195" y="1458" type="curve" smooth="yes"/>
			<point x="250" y="1458"/>
			<point x="295" y="1413"/>
			<point x="295" y="1358" type="curve" smooth="yes"/>
			<point x="295" y="1357" type="line"/>
			<point x="295" y="643" type="line"/>
			<point x="700" y="1064" type="line" smooth="yes"/>
			<point x="716" y="1082"/>
			<point x="747" y="1096"/>
			<point x="773" y="1096" type="curve" smooth="yes"/>
			<point x="828" y="1096"/>
			<point x="873" y="1051"/>
			<point x="873" y="996" type="curve" smooth="yes"/>
			<point x="873" y="973"/>
			<point x="860" y="941"/>
			<point x="844" y="925" type="curve" smooth="yes"/>
			<point x="520" y="588" type="line"/>
			<point x="861" y="140" type="line" smooth="yes"/>
			<point x="873" y="125"/>
			<point x="882" y="97"/>
			<point x="882" y="78" type="curve" smooth="yes"/>
			<point x="882" y="23"/>
			<point x="837" y="-22"/>
			<point x="782" y="-22" type="curve" smooth="yes"/>
			<point x="754" y="-22"/>
			<point x="719" y="-3"/>
			<point x="702" y="19" type="curve" smooth="yes"/>
			<point x="380" y="443" type="line"/>
			<point x="295" y="355" type="line"/>
			<point x="295" y="82" type="line"/>
			<point x="295" y="81" type="line" smooth="yes"/>
			<point x="295" y="26"/>
			<point x="250" y="-19"/>
			<point x="195" y="-19" type="curve" smooth="yes"/>
			<point x="140" y="-19"/>
			<point x="95" y="26"/>
			<point x="95" y="81" type="curve" smooth="yes"/>
			<point x="95" y="82" type="line"/>
			<point x="95" y="1357" type="line"/>
		</contour>
	</outline>
</glyph>
<glyph name="l" format="2">
  <advance width="390"/>
  <unicode hex="006C"/>
  <outline>
    <contour>
      <point x="190.0" y="1459.0" type="curve" smooth="yes"/>
      <point x="254.0" y="1459.0"/>
      <point x="296.0" y="1408.0"/>
      <point x="295.0" y="1359.0" type="curve"/>
      <point x="295.0" y="71.0" type="line" smooth="yes"/>
      <point x="295.0" y="18.0"/>
      <point x="242.0" y="-18.0"/>
      <point x="201.0" y="-18.0" type="curve" smooth="yes"/>
      <point x="143.0" y="-18.0"/>
      <point x="95.0" y="23.0"/>
      <point x="95.0" y="82.0" type="curve" smooth="yes"/>
      <point x="95.0" y="1359.0" type="line" smooth="yes"/>
      <point x="95.0" y="1410.0"/>
      <point x="136.0" y="1459.0"/>
    </contour>
  </outline>
</glyph>
<glyph name="m" format="2">
	<unicode hex="006D"/>
	<advance width="1593"/>
	<outline>
		<contour>
			<point x="516" y="1096" type="curve" smooth="yes"/>
			<point x="645" y="1096"/>
			<point x="744" y="1024"/>
			<point x="807" y="935" type="curve"/>
			<point x="882" y="1021"/>
			<point x="989" y="1097"/>
			<point x="1118" y="1097" type="curve" smooth="yes"/>
			<point x="1374.9426269531" y="1097"/>
			<point x="1497" y="866.5928955078"/>
			<point x="1497" y="609" type="curve" smooth="yes"/>
			<point x="1498" y="76" type="line" smooth="yes"/>
			<point x="1498" y="22"/>
			<point x="1454" y="-22"/>
			<point x="1398" y="-22" type="curve" smooth="yes"/>
			<point x="1342" y="-22"/>
			<point x="1298" y="22"/>
			<point x="1298" y="76" type="curve" smooth="yes"/>
			<point x="1297" y="607" type="line" smooth="yes"/>
			<point x="1297" y="759.0608520508"/>
			<point x="1264.8216552734" y="898"/>
			<point x="1125" y="898" type="curve" smooth="yes"/>
			<point x="976.7606201172" y="898"/>
			<point x="891" y="759.2109985352"/>
			<point x="891" y="606" type="curve" smooth="yes"/>
			<point x="892" y="73" type="line" smooth="yes"/>
			<point x="892" y="20"/>
			<point x="847" y="-24"/>
			<point x="792" y="-24" type="curve" smooth="yes"/>
			<point x="736" y="-24"/>
			<point x="692" y="20"/>
			<point x="692" y="74" type="curve" smooth="yes"/>
			<point x="692" y="605" type="line" smooth="yes"/>
			<point x="692" y="792.5317382812"/>
			<point x="582.8030395508" y="896.3251953125"/>
			<point x="477.6707458496" y="896.3251953125" type="curve" smooth="yes"/>
			<point x="380.0843200684" y="896.3251953125"/>
			<point x="286" y="806.8965454102"/>
			<point x="286" y="612" type="curve" smooth="yes"/>
			<point x="286" y="73" type="line" smooth="yes"/>
			<point x="286" y="20"/>
			<point x="241" y="-24"/>
			<point x="186" y="-24" type="curve" smooth="yes"/>
			<point x="131" y="-24"/>
			<point x="86" y="20"/>
			<point x="86" y="74" type="curve" smooth="yes"/>
			<point x="86" y="382.3333435059"/>
			<point x="86" y="690.6666870117"/>
			<point x="86" y="999" type="curve" smooth="yes"/>
			<point x="86" y="1053"/>
			<point x="103" y="1097"/>
			<point x="159" y="1097" type="curve" smooth="yes"/>
			<point x="203.4384765625" y="1097"/>
			<point x="242.1665496826" y="1071.1029052734"/>
			<point x="264.8427734375" y="1006" type="curve" smooth="yes"/>
			<point x="284" y="951" type="line"/>
			<point x="326" y="1039"/>
			<point x="426" y="1096"/>
		</contour>
	</outline>
</glyph>
<glyph name="n" format="2">
  <advance width="1086"/>
  <unicode hex="006E"/>
  <outline>
    <contour>
      <point x="295.0" y="937.0" type="line"/>
      <point x="367.0" y="1007.0"/>
      <point x="466.0" y="1094.0"/>
      <point x="600.0" y="1094.0" type="curve" smooth="yes"/>
      <point x="775.0" y="1094.0"/>
      <point x="891.0" y="986.0"/>
      <point x="946.0" y="863.0" type="curve" smooth="yes"/>
      <point x="989.0" y="766.0"/>
      <point x="991.0" y="668.0"/>
      <point x="991.0" y="584.0" type="curve" smooth="yes"/>
      <point x="991.0" y="79.0" type="line" smooth="yes"/>
      <point x="991.0" y="24.0"/>
      <point x="946.0" y="-21.0"/>
      <point x="891.0" y="-21.0" type="curve" smooth="yes"/>
      <point x="836.0" y="-21.0"/>
      <point x="791.0" y="24.0"/>
      <point x="791.0" y="79.0" type="curve" smooth="yes"/>
      <point x="791.0" y="584.0" type="line" smooth="yes"/>
      <point x="791.0" y="662.0"/>
      <point x="786.0" y="730.0"/>
      <point x="763.0" y="781.0" type="curve" smooth="yes"/>
      <point x="737.0" y="840.0"/>
      <point x="684.0" y="894.0"/>
      <point x="602.0" y="894.0" type="curve" smooth="yes"/>
      <point x="405.0" y="894.0"/>
      <point x="295.0" y="732.0"/>
      <point x="296.0" y="476.0" type="curve" smooth="yes"/>
      <point x="297.0" y="77.0" type="line" smooth="yes"/>
      <point x="297.0" y="22.0"/>
      <point x="252.0" y="-23.0"/>
      <point x="197.0" y="-23.0" type="curve" smooth="yes"/>
      <point x="141.0" y="-23.0"/>
      <point x="97.0" y="22.0"/>
      <point x="97.0" y="78.0" type="curve" smooth="yes"/>
      <point x="95.0" y="997.0" type="line" smooth="yes"/>
      <point x="95.0" y="1052.0"/>
      <point x="126.0" y="1097.0"/>
      <point x="181.0" y="1097.0" type="curve" smooth="yes"/>
      <point x="236.0" y="1097.0"/>
      <point x="262.64361572265625" y="1051.198974609375"/>
      <point x="278.0" y="997.0" type="curve" smooth="yes"/>
    </contour>
  </outline>
</glyph>
<glyph name="o" format="2">
	<unicode hex="006F"/>
	<advance width="1196"/>
	<outline>
		<contour>
			<point x="598" y="1095" type="curve" smooth="yes"/>
			<point x="297" y="1095"/>
			<point x="50" y="838"/>
			<point x="50" y="535" type="curve" smooth="yes"/>
			<point x="50" y="229"/>
			<point x="298" y="-19"/>
			<point x="598" y="-19" type="curve" smooth="yes"/>
			<point x="900" y="-19"/>
			<point x="1147" y="235"/>
			<point x="1147" y="535" type="curve" smooth="yes"/>
			<point x="1147" y="839"/>
			<point x="904" y="1095"/>
		</contour>
		<contour>
			<point x="252" y="533" type="curve" smooth="yes"/>
			<point x="252" y="728"/>
			<point x="400" y="893"/>
			<point x="598" y="893" type="curve" smooth="yes"/>
			<point x="794" y="893"/>
			<point x="945" y="729"/>
			<point x="945" y="535" type="curve" smooth="yes"/>
			<point x="945" y="345"/>
			<point x="791" y="183"/>
			<point x="599" y="183" type="curve" smooth="yes"/>
			<point x="410" y="183"/>
			<point x="252" y="339"/>
		</contour>
	</outline>
</glyph>
<glyph name="p" format="2">
  <advance width="1211"/>
  <unicode hex="0070"/>
  <outline>
    <contour>
      <point x="1161.0" y="536.0" type="curve" smooth="yes"/>
      <point x="1161.0" y="385.0"/>
      <point x="1105.0" y="236.0"/>
      <point x="995.0" y="127.0" type="curve" smooth="yes"/>
      <point x="898.0" y="32.0"/>
      <point x="766.0" y="-22.0"/>
      <point x="630.0" y="-22.0" type="curve" smooth="yes"/>
      <point x="491.0" y="-22.0"/>
      <point x="386.0" y="41.0"/>
      <point x="300.0" y="141.0" type="curve"/>
      <point x="300.0" y="-280.0" type="line" smooth="yes"/>
      <point x="300.0" y="-335.0"/>
      <point x="255.0" y="-380.0"/>
      <point x="200.0" y="-380.0" type="curve" smooth="yes"/>
      <point x="145.0" y="-380.0"/>
      <point x="100.0" y="-335.0"/>
      <point x="100.0" y="-280.0" type="curve" smooth="yes"/>
      <point x="100.0" y="997.0" type="line" smooth="yes"/>
      <point x="100.0" y="1052.0"/>
      <point x="145.0" y="1097.0"/>
      <point x="200.0" y="1097.0" type="curve" smooth="yes"/>
      <point x="255.0" y="1097.0"/>
      <point x="279.96240234375" y="1051.2536907196045"/>
      <point x="288.0" y="997.0" type="curve" smooth="yes"/>
      <point x="300.0" y="916.0" type="line"/>
      <point x="376.0" y="1025.0"/>
      <point x="513.0" y="1092.0"/>
      <point x="637.0" y="1092.0" type="curve" smooth="yes"/>
      <point x="938.0" y="1092.0"/>
      <point x="1161.0" y="831.0"/>
    </contour>
    <contour>
      <point x="639.0" y="892.0" type="curve" smooth="yes"/>
      <point x="552.0" y="892.0"/>
      <point x="461.0" y="851.0"/>
      <point x="401.0" y="785.0" type="curve" smooth="yes"/>
      <point x="341.0" y="719.0"/>
      <point x="307.0" y="624.0"/>
      <point x="307.0" y="531.0" type="curve" smooth="yes"/>
      <point x="307.0" y="339.0"/>
      <point x="443.0" y="175.0"/>
      <point x="634.0" y="175.0" type="curve" smooth="yes"/>
      <point x="823.0" y="175.0"/>
      <point x="962.0" y="350.0"/>
      <point x="962.0" y="536.0" type="curve" smooth="yes"/>
      <point x="962.0" y="723.0"/>
      <point x="824.0" y="892.0"/>
    </contour>
  </outline>
</glyph>
<glyph name="q" format="2">
  <advance width="1211"/>
  <unicode hex="0071"/>
  <outline>
    <contour>
      <point x="50.0" y="537.0" type="curve" smooth="yes"/>
      <point x="50.0" y="832.0"/>
      <point x="273.0" y="1093.0"/>
      <point x="574.0" y="1093.0" type="curve" smooth="yes"/>
      <point x="698.0" y="1093.0"/>
      <point x="835.0" y="1026.0"/>
      <point x="911.0" y="917.0" type="curve"/>
      <point x="923.0" y="998.0" type="line" smooth="yes"/>
      <point x="931.03759765625" y="1052.2536907196045"/>
      <point x="956.0" y="1098.0"/>
      <point x="1011.0" y="1098.0" type="curve" smooth="yes"/>
      <point x="1066.0" y="1098.0"/>
      <point x="1111.0" y="1053.0"/>
      <point x="1111.0" y="998.0" type="curve" smooth="yes"/>
      <point x="1111.0" y="-279.0" type="line" smooth="yes"/>
      <point x="1111.0" y="-334.0"/>
      <point x="1066.0" y="-379.0"/>
      <point x="1011.0" y="-379.0" type="curve" smooth="yes"/>
      <point x="956.0" y="-379.0"/>
      <point x="911.0" y="-334.0"/>
      <point x="911.0" y="-279.0" type="curve" smooth="yes"/>
      <point x="911.0" y="142.0" type="line"/>
      <point x="825.0" y="42.0"/>
      <point x="720.0" y="-21.0"/>
      <point x="581.0" y="-21.0" type="curve" smooth="yes"/>
      <point x="445.0" y="-21.0"/>
      <point x="313.0" y="33.0"/>
      <point x="216.0" y="128.0" type="curve" smooth="yes"/>
      <point x="106.0" y="237.0"/>
      <point x="50.0" y="386.0"/>
    </contour>
    <contour>
      <point x="572.0" y="893.0" type="curve" smooth="yes"/>
      <point x="387.0" y="893.0"/>
      <point x="249.0" y="724.0"/>
      <point x="249.0" y="537.0" type="curve" smooth="yes"/>
      <point x="249.0" y="351.0"/>
      <point x="388.0" y="176.0"/>
      <point x="577.0" y="176.0" type="curve" smooth="yes"/>
      <point x="768.0" y="176.0"/>
      <point x="904.0" y="340.0"/>
      <point x="904.0" y="532.0" type="curve" smooth="yes"/>
      <point x="904.0" y="625.0"/>
      <point x="870.0" y="720.0"/>
      <point x="810.0" y="786.0" type="curve" smooth="yes"/>
      <point x="750.0" y="852.0"/>
      <point x="659.0" y="893.0"/>
    </contour>
  </outline>
</glyph>
<glyph name="r" format="2">
	<unicode hex="0072"/>
	<advance width="788"/>
	<outline>
		<contour>
			<point x="763" y="969" type="curve" smooth="yes"/>
			<point x="763" y="915.4017333984"/>
			<point x="734.4328613281" y="885.5037231445"/>
			<point x="686" y="880" type="curve" smooth="yes"/>
			<point x="648" y="876"/>
			<point x="586" y="920"/>
			<point x="528" y="920" type="curve" smooth="yes"/>
			<point x="353" y="920"/>
			<point x="295" y="773"/>
			<point x="295" y="588" type="curve" smooth="yes"/>
			<point x="295" y="72" type="line" smooth="yes"/>
			<point x="295" y="13"/>
			<point x="257" y="-24"/>
			<point x="195" y="-24" type="curve" smooth="yes"/>
			<point x="133" y="-24"/>
			<point x="95" y="13"/>
			<point x="95" y="73" type="curve" smooth="yes"/>
			<point x="95" y="994" type="line" smooth="yes"/>
			<point x="95" y="1054"/>
			<point x="127" y="1097"/>
			<point x="179" y="1097" type="curve" smooth="yes"/>
			<point x="210.02734375" y="1097"/>
			<point x="258.3171691895" y="1073.9992675781"/>
			<point x="275.4356994629" y="1011" type="curve"/>
			<point x="285" y="939" type="line"/>
			<point x="311" y="995"/>
			<point x="418" y="1096"/>
			<point x="529" y="1096" type="curve" smooth="yes"/>
			<point x="665" y="1096"/>
			<point x="763" y="1076"/>
		</contour>
	</outline>
</glyph>
<glyph name="s" format="2">
	<unicode hex="0073"/>
	<advance width="1183"/>
	<outline>
		<contour>
			<point x="602" y="1097" type="curve" smooth="yes"/>
			<point x="792" y="1097"/>
			<point x="959" y="1007"/>
			<point x="1034" y="866" type="curve" smooth="yes"/>
			<point x="1041" y="854"/>
			<point x="1046" y="832"/>
			<point x="1046" y="818" type="curve" smooth="yes"/>
			<point x="1046" y="763"/>
			<point x="1001" y="718"/>
			<point x="946" y="718" type="curve" smooth="yes"/>
			<point x="912" y="718"/>
			<point x="872" y="743"/>
			<point x="857" y="773" type="curve" smooth="yes"/>
			<point x="813" y="855"/>
			<point x="722" y="897"/>
			<point x="601" y="897" type="curve" smooth="yes"/>
			<point x="495" y="897"/>
			<point x="316" y="859"/>
			<point x="316" y="754" type="curve" smooth="yes"/>
			<point x="316" y="651"/>
			<point x="572" y="642"/>
			<point x="674" y="631" type="curve" smooth="yes"/>
			<point x="870" y="610"/>
			<point x="1083" y="557"/>
			<point x="1083" y="331" type="curve" smooth="yes"/>
			<point x="1083" y="89"/>
			<point x="843" y="-18"/>
			<point x="606" y="-18" type="curve" smooth="yes"/>
			<point x="389" y="-18"/>
			<point x="197" y="70"/>
			<point x="112" y="235" type="curve" smooth="yes"/>
			<point x="106" y="247"/>
			<point x="100" y="268"/>
			<point x="100" y="282" type="curve" smooth="yes"/>
			<point x="100" y="337"/>
			<point x="145" y="382"/>
			<point x="200" y="382" type="curve" smooth="yes"/>
			<point x="234" y="382"/>
			<point x="275" y="357"/>
			<point x="290" y="326" type="curve" smooth="yes"/>
			<point x="342" y="225"/>
			<point x="454" y="182"/>
			<point x="605" y="182" type="curve" smooth="yes"/>
			<point x="724" y="182"/>
			<point x="883" y="218"/>
			<point x="883" y="332" type="curve" smooth="yes"/>
			<point x="883" y="420"/>
			<point x="745" y="422"/>
			<point x="653" y="432" type="curve" smooth="yes"/>
			<point x="419" y="457"/>
			<point x="116" y="486"/>
			<point x="116" y="754" type="curve" smooth="yes"/>
			<point x="116" y="995"/>
			<point x="378" y="1097"/>
		</contour>
	</outline>
</glyph>
<glyph name="t" format="2">
  <advance width="766"/>
  <unicode hex="0074"/>
  <outline>
    <contour>
      <point x="250.0" y="1274.0" type="line" smooth="yes"/>
      <point x="250.0" y="1328.0"/>
      <point x="294.0" y="1374.0"/>
      <point x="350.0" y="1374.0" type="curve" smooth="yes"/>
      <point x="405.0" y="1374.0"/>
      <point x="450.0" y="1329.0"/>
      <point x="450.0" y="1274.0" type="curve" smooth="yes"/>
      <point x="450.0" y="1075.0" type="line"/>
      <point x="584.0" y="1075.0" type="line" smooth="yes"/>
      <point x="636.0" y="1075.0"/>
      <point x="679.0" y="1032.0"/>
      <point x="679.0" y="980.0" type="curve" smooth="yes"/>
      <point x="679.0" y="928.0"/>
      <point x="636.0" y="885.0"/>
      <point x="584.0" y="885.0" type="curve" smooth="yes"/>
      <point x="449.0" y="885.0" type="line"/>
      <point x="448.0" y="266.0" type="line"/>
      <point x="448.0" y="264.0" type="line" smooth="yes"/>
      <point x="448.0" y="199.0"/>
      <point x="458.0" y="178.0"/>
      <point x="504.0" y="178.0" type="curve" smooth="yes"/>
      <point x="535.0" y="178.0"/>
      <point x="560.0" y="187.0"/>
      <point x="580.0" y="201.0" type="curve" smooth="yes"/>
      <point x="596.0" y="212.0"/>
      <point x="620.0" y="222.0"/>
      <point x="642.0" y="222.0" type="curve" smooth="yes"/>
      <point x="697.0" y="222.0"/>
      <point x="742.0" y="177.0"/>
      <point x="742.0" y="123.0" type="curve" smooth="yes"/>
      <point x="742.0" y="94.0"/>
      <point x="726.0" y="62.0"/>
      <point x="702.0" y="44.0" type="curve" smooth="yes"/>
      <point x="651.0" y="5.0"/>
      <point x="584.0" y="-23.0"/>
      <point x="510.0" y="-23.0" type="curve" smooth="yes"/>
      <point x="342.0" y="-23.0"/>
      <point x="248.0" y="93.0"/>
      <point x="248.0" y="248.0" type="curve" smooth="yes"/>
      <point x="248.0" y="257.0" type="line"/>
      <point x="249.0" y="884.0" type="line"/>
      <point x="120.0" y="884.0" type="line" smooth="yes"/>
      <point x="68.0" y="884.0"/>
      <point x="25.0" y="927.0"/>
      <point x="25.0" y="979.0" type="curve" smooth="yes"/>
      <point x="25.0" y="1031.0"/>
      <point x="68.0" y="1074.0"/>
      <point x="120.0" y="1074.0" type="curve" smooth="yes"/>
      <point x="250.0" y="1074.0" type="line"/>
    </contour>
  </outline>
</glyph>
<glyph name="v" format="2">
	<unicode hex="0076"/>
	<advance width="1050"/>
	<outline>
		<contour>
			<point x="930" y="1095" type="curve" smooth="yes"/>
			<point x="978" y="1095"/>
			<point x="1025" y="1049"/>
			<point x="1025" y="1002" type="curve" smooth="yes"/>
			<point x="1025" y="983"/>
			<point x="1022" y="965"/>
			<point x="1015" y="951" type="curve" smooth="yes"/>
			<point x="593" y="38" type="line" smooth="yes"/>
			<point x="576" y="2"/>
			<point x="542" y="-19"/>
			<point x="501" y="-19" type="curve" smooth="yes"/>
			<point x="458" y="-19"/>
			<point x="426" y="3"/>
			<point x="411" y="42" type="curve" smooth="yes"/>
			<point x="33" y="955" type="line" smooth="yes"/>
			<point x="27" y="968"/>
			<point x="25" y="984"/>
			<point x="25" y="1002" type="curve" smooth="yes"/>
			<point x="25" y="1045"/>
			<point x="69" y="1095"/>
			<point x="114" y="1095" type="curve" smooth="yes"/>
			<point x="163" y="1095"/>
			<point x="201" y="1074"/>
			<point x="218" y="1033" type="curve" smooth="yes"/>
			<point x="509" y="325" type="line"/>
			<point x="834" y="1037" type="line" smooth="yes"/>
			<point x="852" y="1076"/>
			<point x="888" y="1095"/>
		</contour>
	</outline>
</glyph>
<glyph name="w" format="2">
  <advance width="1502"/>
  <unicode hex="0077"/>
  <outline>
    <contour>
      <point x="50.0" y="1013.0" type="curve" smooth="yes"/>
      <point x="50.0" y="1057.0"/>
      <point x="97.0" y="1096.0"/>
      <point x="141.0" y="1096.0" type="curve" smooth="yes"/>
      <point x="186.0" y="1096.0"/>
      <point x="225.0" y="1067.0"/>
      <point x="236.0" y="1030.0" type="curve" smooth="yes"/>
      <point x="436.0" y="351.0" type="line"/>
      <point x="673.0" y="1017.0" type="line"/>
      <point x="674.0" y="1017.0" type="line"/>
      <point x="688.0" y="1042.0"/>
      <point x="723.0" y="1061.0"/>
      <point x="762.0" y="1061.0" type="curve" smooth="yes"/>
      <point x="801.0" y="1061.0"/>
      <point x="838.0" y="1042.0"/>
      <point x="851.0" y="1016.0" type="curve"/>
      <point x="851.0" y="1015.0" type="line"/>
      <point x="1081.0" y="367.0" type="line"/>
      <point x="1266.0" y="1029.0" type="line" smooth="yes"/>
      <point x="1277.0" y="1065.0"/>
      <point x="1312.0" y="1096.0"/>
      <point x="1360.0" y="1096.0" type="curve" smooth="yes"/>
      <point x="1402.0" y="1096.0"/>
      <point x="1452.0" y="1060.0"/>
      <point x="1452.0" y="1014.0" type="curve" smooth="yes"/>
      <point x="1452.0" y="1000.0"/>
      <point x="1451.0" y="989.0"/>
      <point x="1448.0" y="979.0" type="curve" smooth="yes"/>
      <point x="1186.0" y="55.0" type="line" smooth="yes"/>
      <point x="1176.0" y="21.0"/>
      <point x="1139.0" y="-13.0"/>
      <point x="1095.0" y="-13.0" type="curve" smooth="yes"/>
      <point x="1053.0" y="-13.0"/>
      <point x="1018.0" y="14.0"/>
      <point x="1005.0" y="46.0" type="curve" smooth="yes"/>
      <point x="763.0" y="715.0" type="line"/>
      <point x="517.0" y="40.0" type="line" smooth="yes"/>
      <point x="503.0" y="4.0"/>
      <point x="466.0" y="-20.0"/>
      <point x="426.0" y="-20.0" type="curve" smooth="yes"/>
      <point x="384.0" y="-20.0"/>
      <point x="347.0" y="8.0"/>
      <point x="336.0" y="46.0" type="curve" smooth="yes"/>
      <point x="53.0" y="978.0" type="line"/>
      <point x="51.0" y="988.0"/>
      <point x="50.0" y="999.0"/>
    </contour>
  </outline>
</glyph>
<glyph name="x" format="2">
	<unicode hex="0078"/>
	<advance width="1133"/>
	<outline>
		<contour>
			<point x="978" y="1092" type="curve" smooth="yes"/>
			<point x="1034" y="1092"/>
			<point x="1079" y="1045"/>
			<point x="1079" y="991" type="curve" smooth="yes"/>
			<point x="1079" y="969"/>
			<point x="1066" y="938"/>
			<point x="1051" y="922" type="curve" smooth="yes"/>
			<point x="703" y="547" type="line"/>
			<point x="1056" y="165" type="line" smooth="yes"/>
			<point x="1071" y="149"/>
			<point x="1084" y="118"/>
			<point x="1084" y="96" type="curve" smooth="yes"/>
			<point x="1084" y="41"/>
			<point x="1039" y="-4"/>
			<point x="984" y="-4" type="curve" smooth="yes"/>
			<point x="959" y="-4"/>
			<point x="925" y="11"/>
			<point x="909" y="29" type="curve" smooth="yes"/>
			<point x="567" y="400" type="line"/>
			<point x="224" y="30" type="line" smooth="yes"/>
			<point x="208" y="12"/>
			<point x="175" y="-3"/>
			<point x="150" y="-3" type="curve" smooth="yes"/>
			<point x="95" y="-3"/>
			<point x="50" y="42"/>
			<point x="50" y="97" type="curve" smooth="yes"/>
			<point x="50" y="119"/>
			<point x="63" y="150"/>
			<point x="78" y="166" type="curve" smooth="yes"/>
			<point x="431" y="547" type="line"/>
			<point x="83" y="924" type="line" smooth="yes"/>
			<point x="68" y="940"/>
			<point x="55" y="970"/>
			<point x="55" y="992" type="curve" smooth="yes"/>
			<point x="55" y="1047"/>
			<point x="100" y="1092"/>
			<point x="155" y="1092" type="curve" smooth="yes"/>
			<point x="181" y="1092"/>
			<point x="213" y="1077"/>
			<point x="229" y="1059" type="curve" smooth="yes"/>
			<point x="567" y="694" type="line"/>
			<point x="904" y="1058" type="line" smooth="yes"/>
			<point x="920" y="1076"/>
			<point x="953" y="1092"/>
		</contour>
	</outline>
</glyph>
<glyph name="y" format="2">
	<unicode hex="0079"/>
	<advance width="1065"/>
	<outline>
		<contour>
			<point x="125" y="1101" type="curve" smooth="yes"/>
			<point x="164" y="1101"/>
			<point x="201" y="1075"/>
			<point x="216" y="1042" type="curve" smooth="yes"/>
			<point x="556" y="269" type="line"/>
			<point x="847" y="1035" type="line" smooth="yes"/>
			<point x="861" y="1071"/>
			<point x="899" y="1098"/>
			<point x="940" y="1098" type="curve" smooth="yes"/>
			<point x="995" y="1098"/>
			<point x="1040" y="1053"/>
			<point x="1040" y="998" type="curve" smooth="yes"/>
			<point x="1040" y="985"/>
			<point x="1037" y="970"/>
			<point x="1032" y="959" type="curve"/>
			<point x="664" y="-1" type="line"/>
			<point x="661" y="-18"/>
			<point x="653" y="-32"/>
			<point x="647" y="-42" type="curve"/>
			<point x="591" y="-182" type="line" smooth="yes"/>
			<point x="563" y="-252"/>
			<point x="529" y="-334"/>
			<point x="461" y="-403" type="curve" smooth="yes"/>
			<point x="396" y="-471"/>
			<point x="297" y="-524"/>
			<point x="194" y="-524" type="curve" smooth="yes"/>
			<point x="138" y="-524"/>
			<point x="94" y="-477"/>
			<point x="94" y="-422" type="curve" smooth="yes"/>
			<point x="94" y="-369"/>
			<point x="136" y="-324"/>
			<point x="188" y="-322" type="curve" smooth="yes"/>
			<point x="305" y="-314"/>
			<point x="360" y="-219"/>
			<point x="406" y="-106" type="curve" smooth="yes"/>
			<point x="454" y="16" type="line"/>
			<point x="34" y="958" type="line" smooth="yes"/>
			<point x="28" y="972"/>
			<point x="25" y="987"/>
			<point x="25" y="1001" type="curve" smooth="yes"/>
			<point x="25" y="1056"/>
			<point x="70" y="1101"/>
		</contour>
	</outline>
</glyph>
<glyph name="z" format="2">
	<unicode hex="007A"/>
	<advance width="971"/>
	<outline>
		<contour>
			<point x="851" y="1075" type="line"/>
			<point x="894" y="1071"/>
			<point x="939" y="1030"/>
			<point x="939" y="981" type="curve" smooth="yes"/>
			<point x="939" y="952"/>
			<point x="929" y="928"/>
			<point x="913" y="910" type="curve"/>
			<point x="355" y="197" type="line"/>
			<point x="860" y="197" type="line" smooth="yes"/>
			<point x="909" y="197"/>
			<point x="946" y="140"/>
			<point x="946" y="97" type="curve" smooth="yes"/>
			<point x="946" y="54"/>
			<point x="909" y="-3"/>
			<point x="860" y="-3" type="curve" smooth="yes"/>
			<point x="132" y="-3" type="line" smooth="yes"/>
			<point x="79" y="-3"/>
			<point x="32" y="40"/>
			<point x="32" y="95" type="curve" smooth="yes"/>
			<point x="32" y="121"/>
			<point x="42" y="146"/>
			<point x="58" y="164" type="curve"/>
			<point x="615" y="874" type="line"/>
			<point x="127" y="869" type="line"/>
			<point x="110" y="869" type="line" smooth="yes"/>
			<point x="66" y="869"/>
			<point x="25" y="922"/>
			<point x="25" y="961" type="curve" smooth="yes"/>
			<point x="25" y="1012"/>
			<point x="59" y="1069"/>
			<point x="125" y="1069" type="curve" smooth="yes"/>
			<point x="838" y="1075" type="line"/>
		</contour>
	</outline>
</glyph>
<glyph name="braceleft" format="2">
  <advance width="718"/>
  <unicode hex="007B"/>
  <outline>
    <contour>
      <point x="427.0" y="-227.0" type="line"/>
      <point x="427.0" y="-295.0"/>
      <point x="431.0" y="-357.0"/>
      <point x="489.0" y="-357.0" type="curve" smooth="yes"/>
      <point x="498.0" y="-357.0"/>
      <point x="507.0" y="-356.0"/>
      <point x="517.0" y="-356.0" type="curve" smooth="yes"/>
      <point x="572.0" y="-356.0"/>
      <point x="617.0" y="-401.0"/>
      <point x="617.0" y="-456.0" type="curve" smooth="yes"/>
      <point x="617.0" y="-522.0"/>
      <point x="561.0" y="-558.0"/>
      <point x="489.0" y="-558.0" type="curve" smooth="yes"/>
      <point x="368.0" y="-558.0"/>
      <point x="280.0" y="-471.0"/>
      <point x="248.0" y="-383.0" type="curve" smooth="yes"/>
      <point x="228.0" y="-329.0"/>
      <point x="227.0" y="-278.0"/>
      <point x="227.0" y="-237.0" type="curve" smooth="yes"/>
      <point x="227.0" y="-226.0" type="line"/>
      <point x="229.0" y="186.0" type="line" smooth="yes"/>
      <point x="229.0" y="262.0"/>
      <point x="220.0" y="307.0"/>
      <point x="150.0" y="307.0" type="curve" smooth="yes"/>
      <point x="95.0" y="307.0"/>
      <point x="50.0" y="352.0"/>
      <point x="50.0" y="407.0" type="curve" smooth="yes"/>
      <point x="50.0" y="459.0"/>
      <point x="92.0" y="503.0"/>
      <point x="144.0" y="507.0" type="curve" smooth="yes"/>
      <point x="201.0" y="510.0"/>
      <point x="222.0" y="554.0"/>
      <point x="223.0" y="620.0" type="curve" smooth="yes"/>
      <point x="229.0" y="1084.0" type="line" smooth="yes"/>
      <point x="230.0" y="1189.0"/>
      <point x="257.0" y="1274.0"/>
      <point x="324.0" y="1330.0" type="curve" smooth="yes"/>
      <point x="367.0" y="1366.0"/>
      <point x="419.0" y="1387.0"/>
      <point x="476.0" y="1387.0" type="curve" smooth="yes"/>
      <point x="551.0" y="1387.0"/>
      <point x="618.0" y="1352.0"/>
      <point x="618.0" y="1281.0" type="curve" smooth="yes"/>
      <point x="618.0" y="1226.0"/>
      <point x="573.0" y="1181.0"/>
      <point x="518.0" y="1181.0" type="curve" smooth="yes"/>
      <point x="504.0" y="1181.0"/>
      <point x="490.0" y="1185.0"/>
      <point x="477.0" y="1185.0" type="curve" smooth="yes"/>
      <point x="432.0" y="1185.0"/>
      <point x="430.0" y="1134.0"/>
      <point x="429.0" y="1081.0" type="curve" smooth="yes"/>
      <point x="423.0" y="617.0" type="line" smooth="yes"/>
      <point x="422.0" y="537.0"/>
      <point x="401.0" y="467.0"/>
      <point x="361.0" y="416.0" type="curve"/>
      <point x="409.0" y="359.0"/>
      <point x="429.0" y="283.0"/>
      <point x="429.0" y="192.0" type="curve" smooth="yes"/>
      <point x="429.0" y="185.0" type="line"/>
    </contour>
  </outline>
</glyph>
<glyph name="bar" format="2">
	<unicode hex="007C"/>
	<advance width="350"/>
	<outline>
		<contour>
			<point x="275" y="-295" type="line" smooth="yes"/>
			<point x="275" y="-341"/>
			<point x="236" y="-395"/>
			<point x="186" y="-395" type="curve" smooth="yes"/>
			<point x="119" y="-395"/>
			<point x="75" y="-360"/>
			<point x="75" y="-294" type="curve" smooth="yes"/>
			<point x="75" y="1211" type="line" smooth="yes"/>
			<point x="75" y="1265"/>
			<point x="118" y="1311"/>
			<point x="174" y="1311" type="curve" smooth="yes"/>
			<point x="175" y="1311" type="line" smooth="yes"/>
			<point x="232" y="1311"/>
			<point x="275" y="1265"/>
			<point x="275" y="1210" type="curve" smooth="yes"/>
		</contour>
	</outline>
</glyph>
<glyph name="asciitilde" format="2">
	<unicode hex="007E"/>
	<advance width="822"/>
	<outline>
		<contour>
			<point x="623" y="1309" type="curve" smooth="yes"/>
			<point x="623" y="1317"/>
			<point x="620" y="1326"/>
			<point x="620" y="1334" type="curve" smooth="yes"/>
			<point x="620" y="1389"/>
			<point x="665" y="1434"/>
			<point x="720" y="1434" type="curve" smooth="yes"/>
			<point x="721" y="1434" type="line" smooth="yes"/>
			<point x="787" y="1434"/>
			<point x="823" y="1378"/>
			<point x="823" y="1306" type="curve" smooth="yes"/>
			<point x="823" y="1172"/>
			<point x="709" y="1060"/>
			<point x="577" y="1060" type="curve" smooth="yes"/>
			<point x="437" y="1060"/>
			<point x="376" y="1158"/>
			<point x="294" y="1211" type="curve" smooth="yes"/>
			<point x="277" y="1222"/>
			<point x="265" y="1228"/>
			<point x="251" y="1228" type="curve" smooth="yes"/>
			<point x="222" y="1228"/>
			<point x="200" y="1206"/>
			<point x="200" y="1178" type="curve" smooth="yes"/>
			<point x="200" y="1173"/>
			<point x="201" y="1167"/>
			<point x="201" y="1162" type="curve" smooth="yes"/>
			<point x="201" y="1107"/>
			<point x="156" y="1062"/>
			<point x="101" y="1062" type="curve" smooth="yes"/>
			<point x="39" y="1062"/>
			<point x="0" y="1113"/>
			<point x="0" y="1180" type="curve" smooth="yes"/>
			<point x="0" y="1313"/>
			<point x="113" y="1428"/>
			<point x="248" y="1428" type="curve" smooth="yes"/>
			<point x="390" y="1428"/>
			<point x="450" y="1329"/>
			<point x="533" y="1276" type="curve" smooth="yes"/>
			<point x="550" y="1265"/>
			<point x="561" y="1260"/>
			<point x="574" y="1260" type="curve" smooth="yes"/>
			<point x="602" y="1260"/>
			<point x="623" y="1281"/>
		</contour>
	</outline>
</glyph>
<glyph name="cent" format="2">
	<unicode hex="00A2"/>
	<advance width="1179"/>
	<outline>
		<contour>
			<point x="727.096359743" y="1205.1370449679" type="curve" smooth="yes"/>
			<point x="739" y="747" type="line" smooth="yes"/>
			<point x="740.4285667111" y="692.0185558841"/>
			<point x="694" y="647"/>
			<point x="639" y="647" type="curve" smooth="yes"/>
			<point x="584" y="647"/>
			<point x="540.4285667111" y="692.0185558841"/>
			<point x="539" y="747" type="curve" smooth="yes"/>
			<point x="527.096359743" y="1205.1370449679" type="line" smooth="yes"/>
			<point x="525.6677930319" y="1260.1184890845"/>
			<point x="572.096359743" y="1305.1370449679"/>
			<point x="627.096359743" y="1305.1370449679" type="curve" smooth="yes"/>
			<point x="682.096359743" y="1305.1370449679"/>
			<point x="725.6677930319" y="1260.1184890845"/>
		</contour>
		<contour>
			<point x="727.096359743" y="323.1370449679" type="curve" smooth="yes"/>
			<point x="739" y="-135" type="line" smooth="yes"/>
			<point x="740.428566711" y="-189.9814441136"/>
			<point x="694" y="-235"/>
			<point x="639" y="-235" type="curve" smooth="yes"/>
			<point x="584" y="-235"/>
			<point x="540.428566711" y="-189.9814441136"/>
			<point x="539" y="-135" type="curve" smooth="yes"/>
			<point x="527.096359743" y="323.1370449679" type="line" smooth="yes"/>
			<point x="525.667793032" y="378.1184890822"/>
			<point x="572.096359743" y="423.1370449679"/>
			<point x="627.096359743" y="423.1370449679" type="curve" smooth="yes"/>
			<point x="682.096359743" y="423.1370449679"/>
			<point x="725.667793032" y="378.1184890822"/>
		</contour>
		<component base="c" xOffset="40"/>
	</outline>
</glyph>
<glyph name="pound" format="2">
	<unicode hex="00A3"/>
	<advance width="1145"/>
	<outline>
		<contour>
			<point x="180" y="579.954" type="curve" smooth="yes"/>
			<point x="122.951" y="579.954"/>
			<point x="80" y="622.904"/>
			<point x="80" y="679.954" type="curve" smooth="yes"/>
			<point x="80" y="734.266"/>
			<point x="124.949" y="779.24"/>
			<point x="178.69" y="779.946" type="curve" smooth="yes"/>
			<point x="287.94" y="781.381" type="line"/>
			<point x="287.54" y="918.645" type="line" smooth="yes"/>
			<point x="287.538" y="919.375"/>
			<point x="287.537" y="920.103"/>
			<point x="287.537" y="920.829" type="curve" smooth="yes"/>
			<point x="287.537" y="1067.99"/>
			<point x="331.2" y="1144.31"/>
			<point x="416.24" y="1212.61" type="curve" smooth="yes"/>
			<point x="490.53" y="1272.27"/>
			<point x="584.265" y="1307.5"/>
			<point x="683.454" y="1307.5" type="curve" smooth="yes"/>
			<point x="732.882" y="1307.5"/>
			<point x="783.665" y="1298.75"/>
			<point x="834.07" y="1279.91" type="curve" smooth="yes"/>
			<point x="905.851" y="1253.09"/>
			<point x="966.946" y="1208.29"/>
			<point x="1012.75" y="1153.56" type="curve" smooth="yes"/>
			<point x="1023.5" y="1140.71"/>
			<point x="1036.06" y="1111.85"/>
			<point x="1036.06" y="1089.38" type="curve" smooth="yes"/>
			<point x="1036.06" y="1033.77"/>
			<point x="992.26" y="989.381"/>
			<point x="936.06" y="989.381" type="curve" smooth="yes"/>
			<point x="907.076" y="989.381"/>
			<point x="873.273" y="1008.59"/>
			<point x="859.37" y="1025.2" type="curve" smooth="yes"/>
			<point x="822.048" y="1069.8"/>
			<point x="758.731" y="1106.61"/>
			<point x="684.895" y="1106.61" type="curve" smooth="yes"/>
			<point x="663.831" y="1106.61"/>
			<point x="641.912" y="1103.62"/>
			<point x="619.495" y="1096.95" type="curve" smooth="yes"/>
			<point x="568.493" y="1081.79"/>
			<point x="515.855" y="1046.47"/>
			<point x="497.6" y="1001.44" type="curve" smooth="yes"/>
			<point x="490.885" y="984.897"/>
			<point x="487.527" y="958.106"/>
			<point x="487.527" y="921.067" type="curve" smooth="yes"/>
			<point x="487.527" y="920.457"/>
			<point x="487.528" y="919.845"/>
			<point x="487.53" y="919.229" type="curve" smooth="yes"/>
			<point x="487.93" y="784.008" type="line"/>
			<point x="610.82" y="785.621" type="line" smooth="yes"/>
			<point x="611.193" y="785.626"/>
			<point x="611.617" y="785.629"/>
			<point x="612.09" y="785.629" type="curve" smooth="yes"/>
			<point x="666.732" y="785.519"/>
			<point x="712.13" y="740.352"/>
			<point x="712.13" y="685.628" type="curve" smooth="yes"/>
			<point x="712.13" y="631.318"/>
			<point x="667.181" y="586.343"/>
			<point x="613.44" y="585.637" type="curve" smooth="yes"/>
			<point x="488.51" y="583.996" type="line"/>
			<point x="489.32" y="308.184" type="line" smooth="yes"/>
			<point x="489.322" y="307.439"/>
			<point x="489.323" y="306.696"/>
			<point x="489.323" y="305.956" type="curve" smooth="yes"/>
			<point x="489.323" y="261.045"/>
			<point x="485.278" y="227.553"/>
			<point x="476.34" y="197.774" type="curve"/>
			<point x="965.06" y="199.804" type="line"/>
			<point x="965.48" y="199.804" type="line" smooth="yes"/>
			<point x="1020.09" y="199.804"/>
			<point x="1065.26" y="154.646"/>
			<point x="1065.48" y="100.214" type="curve" smooth="yes"/>
			<point x="1065.48" y="43.2174"/>
			<point x="1022.38" y="0.0387347"/>
			<point x="965.89" y="-0.195702" type="curve" smooth="yes"/>
			<point x="216.57" y="-3.3057" type="line" smooth="yes"/>
			<point x="216.433" y="-3.30627"/>
			<point x="216.296" y="-3.30656"/>
			<point x="216.159" y="-3.30656" type="curve" smooth="yes"/>
			<point x="161.452" y="-3.30656"/>
			<point x="116.43" y="42.0599"/>
			<point x="116.43" y="96.7043" type="curve" smooth="yes"/>
			<point x="116.43" y="148.995"/>
			<point x="159.871" y="192.92"/>
			<point x="209.29" y="196.454" type="curve" smooth="yes"/>
			<point x="267.494" y="200.486"/>
			<point x="289.321" y="241.093"/>
			<point x="289.321" y="306.724" type="curve" smooth="yes"/>
			<point x="289.321" y="307.013"/>
			<point x="289.321" y="307.304"/>
			<point x="289.32" y="307.594" type="curve" smooth="yes"/>
			<point x="288.52" y="581.371" type="line"/>
			<point x="181.31" y="579.963" type="line" smooth="yes"/>
			<point x="180.877" y="579.958"/>
			<point x="180.44" y="579.954"/>
		</contour>
	</outline>
</glyph>
<glyph name="currency" format="2">
	<unicode hex="00A4"/>
	<advance width="1485.4627996556"/>
	<outline>
		<contour>
			<point x="279.6431816443" y="2.7781745931" type="curve" smooth="yes"/>
			<point x="455.220628184" y="178.3556211328" type="line"/>
			<point x="321.0783123413" y="327.0560177647" type="line"/>
			<point x="138.9289321881" y="144.9066376115" type="line" smooth="yes"/>
			<point x="92.2598846298" y="98.2375900532"/>
			<point x="98.6238456605" y="42.3761543395"/>
			<point x="146" y="-5" type="curve" smooth="yes"/>
			<point x="181.3553390593" y="-40.3553390593"/>
			<point x="247.1162697096" y="-29.7487373416"/>
		</contour>
		<contour>
			<point x="980.537962278" y="919.545104953" type="line"/>
			<point x="1126.5212977488" y="782.6857279491" type="line"/>
			<point x="1374" y="1030.1644302003" type="line" smooth="yes"/>
			<point x="1412.8908729642" y="1069.0553031645"/>
			<point x="1415.0121933088" y="1131.9878066912"/>
			<point x="1374.7071067812" y="1172.2928932188" type="curve" smooth="yes"/>
			<point x="1374" y="1173" type="line" smooth="yes"/>
			<point x="1334.4020202535" y="1212.5979797465"/>
			<point x="1271.4695167281" y="1210.476659403"/>
			<point x="1233.2857505439" y="1172.2928932188" type="curve" smooth="yes"/>
		</contour>
		<contour>
			<point x="120.7781745931" y="1006.3568183557" type="curve" smooth="yes"/>
			<point x="371.2891356891" y="755.8458572597" type="line"/>
			<point x="504.62927157" y="905.3484338534" type="line"/>
			<point x="262.9066376115" y="1147.0710678119" type="line" smooth="yes"/>
			<point x="216.2375900532" y="1193.7401153702"/>
			<point x="160.3761543395" y="1187.3761543395"/>
			<point x="113" y="1140" type="curve" smooth="yes"/>
			<point x="77.6446609407" y="1104.6446609407"/>
			<point x="88.2512626584" y="1038.8837302903"/>
		</contour>
		<contour>
			<point x="1117.5983504537" y="388.4087922213" type="line"/>
			<point x="976.1769942164" y="246.987435984" type="line"/>
			<point x="1218.1644302003" y="5" type="line" smooth="yes"/>
			<point x="1257.0553031658" y="-33.8908729655"/>
			<point x="1319.9878066915" y="-36.0121933085"/>
			<point x="1360.2928932188" y="4.2928932188" type="curve" smooth="yes"/>
			<point x="1361" y="5" type="line" smooth="yes"/>
			<point x="1400.5979797461" y="44.5979797461"/>
			<point x="1398.4766594009" y="107.530483274"/>
			<point x="1360.2928932188" y="145.7142494561" type="curve" smooth="yes"/>
		</contour>
		<contour>
			<point x="719.1000450072" y="1095" type="curve" smooth="yes"/>
			<point x="418.1000450072" y="1095"/>
			<point x="171.1000450072" y="838"/>
			<point x="171.1000450072" y="535" type="curve" smooth="yes"/>
			<point x="171.1000450072" y="229"/>
			<point x="419.1000450072" y="-19"/>
			<point x="719.1000450072" y="-19" type="curve" smooth="yes"/>
			<point x="1021.1000450072" y="-19"/>
			<point x="1268.1000450072" y="235"/>
			<point x="1268.1000450072" y="535" type="curve" smooth="yes"/>
			<point x="1268.1000450072" y="839"/>
			<point x="1025.1000450072" y="1095"/>
		</contour>
		<contour>
			<point x="373.1000450072" y="533" type="curve" smooth="yes"/>
			<point x="373.1000450072" y="728"/>
			<point x="521.1000450072" y="893"/>
			<point x="719.1000450072" y="893" type="curve" smooth="yes"/>
			<point x="915.1000450072" y="893"/>
			<point x="1066.1000450072" y="729"/>
			<point x="1066.1000450072" y="535" type="curve" smooth="yes"/>
			<point x="1066.1000450072" y="345"/>
			<point x="912.1000450072" y="183"/>
			<point x="720.1000450072" y="183" type="curve" smooth="yes"/>
			<point x="531.1000450072" y="183"/>
			<point x="373.1000450072" y="339"/>
		</contour>
	</outline>
</glyph>
<glyph name="yen" format="2">
	<unicode hex="00A5"/>
	<advance width="1279"/>
	<outline>
		<contour>
			<point x="370" y="457" type="curve" smooth="yes"/>
			<point x="922" y="460" type="line" smooth="yes"/>
			<point x="976.9991877551" y="460.2989086291"/>
			<point x="1022" y="415"/>
			<point x="1022" y="360" type="curve" smooth="yes"/>
			<point x="1022" y="305"/>
			<point x="976.9991877551" y="260.2989086291"/>
			<point x="922" y="260" type="curve" smooth="yes"/>
			<point x="370" y="257" type="line" smooth="yes"/>
			<point x="315.0008122451" y="256.7010913709"/>
			<point x="270" y="302"/>
			<point x="270" y="357" type="curve" smooth="yes"/>
			<point x="270" y="412"/>
			<point x="315.0008122451" y="456.7010913709"/>
		</contour>
		<component base="Y" xOffset="75"/>
		<component base="hyphen" xOffset="81.8650963597" yOffset="114.2419700214"/>
	</outline>
</glyph>
<glyph name="brokenbar" format="2">
	<unicode hex="00A6"/>
	<advance width="362.7179076838"/>
	<outline>
		<contour>
			<point x="282.7178214267" y="1204.6059957173" type="curve" smooth="yes"/>
			<point x="282.000476673" y="657" type="line" smooth="yes"/>
			<point x="281.9284286532" y="602.0000471906"/>
			<point x="237.000476673" y="557"/>
			<point x="182.000476673" y="557" type="curve" smooth="yes"/>
			<point x="127.000476673" y="557"/>
			<point x="81.9284286532" y="602.0000471906"/>
			<point x="82.000476673" y="657" type="curve" smooth="yes"/>
			<point x="82.7178214267" y="1204.6059957173" type="line" smooth="yes"/>
			<point x="82.7898694465" y="1259.6059485272"/>
			<point x="127.7178214267" y="1304.6059957173"/>
			<point x="182.7178214267" y="1304.6059957173" type="curve" smooth="yes"/>
			<point x="237.7178214267" y="1304.6059957173"/>
			<point x="282.7898694465" y="1259.6059485272"/>
		</contour>
		<contour>
			<point x="280.000476673" y="103" type="curve" smooth="yes"/>
			<point x="281.9019756023" y="-513.2334047109" type="line" smooth="yes"/>
			<point x="282.0716871798" y="-568.2331428737"/>
			<point x="236.9019756023" y="-613.2334047109"/>
			<point x="181.9019756023" y="-613.2334047109" type="curve" smooth="yes"/>
			<point x="126.9019756023" y="-613.2334047109"/>
			<point x="82.0716871798" y="-568.2331428737"/>
			<point x="81.9019756023" y="-513.2334047109" type="curve" smooth="yes"/>
			<point x="80.000476673" y="103" type="line" smooth="yes"/>
			<point x="79.8307650955" y="157.9997381649"/>
			<point x="125.000476673" y="203"/>
			<point x="180.000476673" y="203" type="curve" smooth="yes"/>
			<point x="235.000476673" y="203"/>
			<point x="279.8307650955" y="157.9997381649"/>
		</contour>
	</outline>
</glyph>
<glyph name="section" format="2">
	<unicode hex="00A7"/>
	<advance width="1252.1220956368"/>
	<outline>
		<contour>
			<point x="85.3020956368" y="1023.4" type="curve" smooth="yes"/>
			<point x="85.3020956368" y="1253.8"/>
			<point x="333.2420956368" y="1429"/>
			<point x="615.4820956368" y="1429" type="curve" smooth="yes"/>
			<point x="879.1020956368" y="1429"/>
			<point x="1079.0220956368" y="1290.6"/>
			<point x="1158.4020956368" y="1129.8" type="curve" smooth="yes"/>
			<point x="1162.3220956368" y="1121"/>
			<point x="1166.2420956368" y="1108.2"/>
			<point x="1166.2420956368" y="1098.6" type="curve" smooth="yes"/>
			<point x="1166.2420956368" y="1054.6"/>
			<point x="1122.1420956368" y="1018.6"/>
			<point x="1068.2420956368" y="1018.6" type="curve" smooth="yes"/>
			<point x="1031.0020956368" y="1018.6"/>
			<point x="990.8220956368" y="1041.8"/>
			<point x="977.1020956368" y="1069.8" type="curve" smooth="yes"/>
			<point x="924.1820956368" y="1176.2"/>
			<point x="790.9020956368" y="1269"/>
			<point x="615.4820956368" y="1269" type="curve" smooth="yes"/>
			<point x="440.0620956368" y="1269"/>
			<point x="281.3020956368" y="1164.2"/>
			<point x="281.3020956368" y="1024.2" type="curve" smooth="yes"/>
			<point x="281.3020956368" y="887.4"/>
			<point x="404.7820956368" y="848.2"/>
			<point x="576.2820956368" y="848.2" type="curve" smooth="yes"/>
			<point x="674.2820956368" y="848.2" type="line" smooth="yes"/>
			<point x="962.4020956368" y="848.2"/>
			<point x="1172.1220956368" y="731.4"/>
			<point x="1172.1220956368" y="498.6" type="curve" smooth="yes"/>
			<point x="1172.1220956368" y="266.6"/>
			<point x="920.2549828933" y="121.8744225439"/>
			<point x="806.5749828933" y="136.2744225439" type="curve" smooth="yes"/>
			<point x="505.3604198937" y="174.4296803482"/>
			<point x="617.5029809767" y="243.8191923896"/>
			<point x="635.0820956368" y="245.8" type="curve" smooth="yes"/>
			<point x="877.1349828933" y="273.0744225439"/>
			<point x="976.1220956368" y="355.4"/>
			<point x="976.1220956368" y="500.2" type="curve" smooth="yes"/>
			<point x="976.1220956368" y="641.8"/>
			<point x="848.7220956368" y="688.2"/>
			<point x="670.3620956368" y="688.2" type="curve" smooth="yes"/>
			<point x="572.3620956368" y="688.2" type="line" smooth="yes"/>
			<point x="293.0620956368" y="688.2"/>
			<point x="85.3020956368" y="796.2"/>
		</contour>
		<contour>
			<point x="83.92" y="444.0033925482" type="curve" smooth="yes"/>
			<point x="83.92" y="674.4033925482"/>
			<point x="331.86" y="849.6033925482"/>
			<point x="614.1" y="849.6033925482" type="curve" smooth="yes"/>
			<point x="957.2184944134" y="849.6033925482"/>
			<point x="788.9349828933" y="797.0744225439"/>
			<point x="786.9749828933" y="749.8744225439" type="curve"/>
			<point x="786.9749828933" y="698.6744225439"/>
			<point x="789.52" y="689.6033925482"/>
			<point x="614.1" y="689.6033925482" type="curve" smooth="yes"/>
			<point x="438.68" y="689.6033925482"/>
			<point x="279.92" y="584.8033925482"/>
			<point x="279.92" y="444.8033925482" type="curve" smooth="yes"/>
			<point x="279.92" y="308.0033925482"/>
			<point x="403.4" y="268.8033925482"/>
			<point x="574.9" y="268.8033925482" type="curve" smooth="yes"/>
			<point x="672.9" y="268.8033925482" type="line" smooth="yes"/>
			<point x="961.02" y="268.8033925482"/>
			<point x="1170.74" y="152.0033925482"/>
			<point x="1170.74" y="-80.7966074518" type="curve" smooth="yes"/>
			<point x="1170.74" y="-312.7966074518"/>
			<point x="913" y="-493.5966074518"/>
			<point x="633.7" y="-493.5966074518" type="curve" smooth="yes"/>
			<point x="378.9" y="-493.5966074518"/>
			<point x="80" y="-321.5966074518"/>
			<point x="80" y="-115.1966074518" type="curve" smooth="yes"/>
			<point x="80" y="-71.1966074518"/>
			<point x="124.1" y="-35.1966074518"/>
			<point x="178" y="-35.1966074518" type="curve" smooth="yes"/>
			<point x="222.1" y="-35.1966074518"/>
			<point x="265.22" y="-63.1966074518"/>
			<point x="274.04" y="-98.3966074518" type="curve" smooth="yes"/>
			<point x="309.32" y="-223.9966074518"/>
			<point x="450.44" y="-333.5966074518"/>
			<point x="633.7" y="-333.5966074518" type="curve" smooth="yes"/>
			<point x="810.1" y="-333.5966074518"/>
			<point x="974.74" y="-223.9966074518"/>
			<point x="974.74" y="-79.1966074518" type="curve" smooth="yes"/>
			<point x="974.74" y="62.4033925482"/>
			<point x="847.34" y="108.8033925482"/>
			<point x="668.98" y="108.8033925482" type="curve" smooth="yes"/>
			<point x="570.98" y="108.8033925482" type="line" smooth="yes"/>
			<point x="291.68" y="108.8033925482"/>
			<point x="83.92" y="216.8033925482"/>
		</contour>
	</outline>
</glyph>
<glyph name="dieresis" format="2">
	<unicode hex="00A8"/>
	<advance width="556"/>
	<outline>
		<contour>
			<point x="429.100372" y="1110.045592" type="curve" smooth="yes"/>
			<point x="361.185889" y="1110.045592"/>
			<point x="302.973475" y="1163.963538"/>
			<point x="302.973475" y="1231.914922" type="curve" smooth="yes"/>
			<point x="302.973475" y="1299.866306"/>
			<point x="361.185889" y="1353.04565"/>
			<point x="429.100372" y="1353.04565" type="curve" smooth="yes"/>
			<point x="497.014855" y="1353.04565"/>
			<point x="555.973582" y="1299.866306"/>
			<point x="555.973582" y="1231.914922" type="curve" smooth="yes"/>
			<point x="555.973582" y="1163.963538"/>
			<point x="497.014855" y="1110.045592"/>
		</contour>
		<contour>
			<point x="132.100372" y="1110.045592" type="curve" smooth="yes"/>
			<point x="64.185889" y="1110.045592"/>
			<point x="5.973475" y="1163.963538"/>
			<point x="5.973475" y="1231.914922" type="curve" smooth="yes"/>
			<point x="5.973475" y="1299.866306"/>
			<point x="64.185889" y="1353.04565"/>
			<point x="132.100372" y="1353.04565" type="curve" smooth="yes"/>
			<point x="200.014855" y="1353.04565"/>
			<point x="258.973582" y="1299.866306"/>
			<point x="258.973582" y="1231.914922" type="curve" smooth="yes"/>
			<point x="258.973582" y="1163.963538"/>
			<point x="200.014855" y="1110.045592"/>
		</contour>
	</outline>
</glyph>
<glyph name="uni00AA" format="2">
	<unicode hex="00AA"/>
	<advance width="551"/>
	<outline>
		<contour>
			<point x="274" y="1631" type="curve" smooth="yes"/>
			<point x="348" y="1631"/>
			<point x="424" y="1580"/>
			<point x="451" y="1534" type="curve"/>
			<point x="456" y="1582" type="line"/>
			<point x="456" y="1609"/>
			<point x="473" y="1632"/>
			<point x="501" y="1632" type="curve" smooth="yes"/>
			<point x="528" y="1632"/>
			<point x="551" y="1609"/>
			<point x="551" y="1582" type="curve" smooth="yes"/>
			<point x="551" y="1581" type="line"/>
			<point x="550" y="1118" type="line" smooth="yes"/>
			<point x="550" y="1090"/>
			<point x="527" y="1068"/>
			<point x="500" y="1068" type="curve" smooth="yes"/>
			<point x="472" y="1068"/>
			<point x="455" y="1090"/>
			<point x="455" y="1118" type="curve"/>
			<point x="450" y="1158" type="line"/>
			<point x="415" y="1098"/>
			<point x="340" y="1070"/>
			<point x="273" y="1070" type="curve" smooth="yes"/>
			<point x="122" y="1070"/>
			<point x="0" y="1200"/>
			<point x="0" y="1349" type="curve" smooth="yes"/>
			<point x="0" y="1498"/>
			<point x="119" y="1631"/>
		</contour>
		<contour>
			<point x="447" y="1350" type="curve" smooth="yes"/>
			<point x="447" y="1448"/>
			<point x="373" y="1531"/>
			<point x="273" y="1531" type="curve" smooth="yes"/>
			<point x="175" y="1531"/>
			<point x="99" y="1447"/>
			<point x="99" y="1351" type="curve" smooth="yes"/>
			<point x="99" y="1254"/>
			<point x="177" y="1170"/>
			<point x="274" y="1170" type="curve" smooth="yes"/>
			<point x="370" y="1170"/>
			<point x="447" y="1254"/>
		</contour>
	</outline>
</glyph>
<glyph name="guillemotleft" format="2">
	<unicode hex="00AB"/>
	<advance width="1089"/>
	<outline>
		<contour>
			<point x="435" y="924" type="line" smooth="yes"/>
			<point x="450.1960530301" y="938.801350354"/>
			<point x="478" y="950"/>
			<point x="499" y="950" type="curve" smooth="yes"/>
			<point x="549" y="950"/>
			<point x="589" y="910"/>
			<point x="589" y="860" type="curve" smooth="yes"/>
			<point x="589" y="839"/>
			<point x="576.7014873742" y="810.3121942988"/>
			<point x="561" y="795" type="curve" smooth="yes"/>
			<point x="319" y="559" type="line"/>
			<point x="547" y="340" type="line" smooth="yes"/>
			<point x="562.8170995882" y="324.8072596061"/>
			<point x="575" y="296"/>
			<point x="575" y="274" type="curve" smooth="yes"/>
			<point x="575" y="224"/>
			<point x="535" y="184"/>
			<point x="485" y="184" type="curve" smooth="yes"/>
			<point x="465" y="184"/>
			<point x="435.757423808" y="195.7445293828"/>
			<point x="421" y="210" type="curve" smooth="yes"/>
			<point x="127" y="494" type="line" smooth="yes"/>
			<point x="111.7427677004" y="508.73827882"/>
			<point x="100" y="538"/>
			<point x="100" y="559" type="curve" smooth="yes"/>
			<point x="100" y="580"/>
			<point x="112" y="609"/>
			<point x="127" y="624" type="curve" smooth="yes"/>
		</contour>
		<contour>
			<point x="835" y="924" type="line" smooth="yes"/>
			<point x="850.196053029" y="938.8013503529"/>
			<point x="878" y="950"/>
			<point x="899" y="950" type="curve" smooth="yes"/>
			<point x="949" y="950"/>
			<point x="989" y="910"/>
			<point x="989" y="860" type="curve" smooth="yes"/>
			<point x="989" y="839"/>
			<point x="976.7014873744" y="810.312194299"/>
			<point x="961" y="795" type="curve" smooth="yes"/>
			<point x="719" y="559" type="line"/>
			<point x="947" y="340" type="line" smooth="yes"/>
			<point x="962.8170995888" y="324.8072596055"/>
			<point x="975" y="296"/>
			<point x="975" y="274" type="curve" smooth="yes"/>
			<point x="975" y="224"/>
			<point x="935" y="184"/>
			<point x="885" y="184" type="curve" smooth="yes"/>
			<point x="865" y="184"/>
			<point x="835.7574238088" y="195.744529382"/>
			<point x="821" y="210" type="curve" smooth="yes"/>
			<point x="527" y="494" type="line" smooth="yes"/>
			<point x="511.7427676999" y="508.7382788205"/>
			<point x="500" y="538"/>
			<point x="500" y="559" type="curve" smooth="yes"/>
			<point x="500" y="580"/>
			<point x="512" y="609"/>
			<point x="527" y="624" type="curve" smooth="yes"/>
		</contour>
	</outline>
</glyph>
<glyph name="logicalnot" format="2">
	<unicode hex="00AC"/>
	<advance width="1219.0002364707"/>
	<outline>
		<contour>
			<point x="1137.8898053419" y="582.3542355108" type="curve" smooth="yes"/>
			<point x="1139" y="71" type="line" smooth="yes"/>
			<point x="1139.119409517" y="16.0001296237"/>
			<point x="1094" y="-29"/>
			<point x="1039" y="-29" type="curve" smooth="yes"/>
			<point x="984" y="-29"/>
			<point x="939.119409517" y="16.0001296237"/>
			<point x="939" y="71" type="curve" smooth="yes"/>
			<point x="937.8898053419" y="582.3542355108" type="line" smooth="yes"/>
			<point x="937.7703958248" y="637.3541058868"/>
			<point x="982.8898053419" y="682.3542355108"/>
			<point x="1037.8898053419" y="682.3542355108" type="curve" smooth="yes"/>
			<point x="1092.8898053419" y="682.3542355108"/>
			<point x="1137.7703958248" y="637.3541058868"/>
		</contour>
		<contour>
			<point x="180" y="676" type="curve" smooth="yes"/>
			<point x="1039" y="682" type="line" smooth="yes"/>
			<point x="1093.9986583693" y="682.3841582657"/>
			<point x="1139" y="637"/>
			<point x="1139" y="582" type="curve" smooth="yes"/>
			<point x="1139" y="527"/>
			<point x="1093.9986583693" y="482.3841582657"/>
			<point x="1039" y="482" type="curve" smooth="yes"/>
			<point x="180" y="476" type="line" smooth="yes"/>
			<point x="125.0013416304" y="475.6158417343"/>
			<point x="80" y="521"/>
			<point x="80" y="576" type="curve" smooth="yes"/>
			<point x="80" y="631"/>
			<point x="125.0013416304" y="675.6158417343"/>
		</contour>
	</outline>
</glyph>
<glyph name="macron" format="2">
	<unicode hex="00AF"/>
	<advance width="893.913490364"/>
	<outline>
		<contour>
			<point x="184" y="1406" type="curve" smooth="yes"/>
			<point x="733" y="1406" type="line" smooth="yes"/>
			<point x="788" y="1406"/>
			<point x="833" y="1361"/>
			<point x="833" y="1306" type="curve" smooth="yes"/>
			<point x="833" y="1251"/>
			<point x="788" y="1206"/>
			<point x="733" y="1206" type="curve" smooth="yes"/>
			<point x="184" y="1206" type="line" smooth="yes"/>
			<point x="129" y="1206"/>
			<point x="84" y="1251"/>
			<point x="84" y="1306" type="curve" smooth="yes"/>
			<point x="84" y="1361"/>
			<point x="129" y="1406"/>
		</contour>
	</outline>
</glyph>
<glyph name="acute" format="2">
	<unicode hex="00B4"/>
	<advance width="512"/>
	<outline>
		<contour>
			<point x="402" y="1436" type="curve" smooth="yes"/>
			<point x="463" y="1436"/>
			<point x="502" y="1384"/>
			<point x="502" y="1334" type="curve" smooth="yes"/>
			<point x="502" y="1310"/>
			<point x="493" y="1286"/>
			<point x="474" y="1266" type="curve"/>
			<point x="150" y="966" type="line"/>
			<point x="126" y="940"/>
			<point x="100" y="923"/>
			<point x="74" y="923" type="curve" smooth="yes"/>
			<point x="41" y="923"/>
			<point x="5" y="959"/>
			<point x="5" y="991" type="curve" smooth="yes"/>
			<point x="5" y="1016"/>
			<point x="21" y="1042"/>
			<point x="45" y="1066" type="curve"/>
			<point x="329" y="1404" type="line" smooth="yes"/>
			<point x="348" y="1425"/>
			<point x="375" y="1436"/>
		</contour>
	</outline>
</glyph>
<glyph name="uni00B5" format="2">
	<unicode hex="00B5"/>
	<advance width="1056"/>
	<outline>
		<contour>
			<point x="776" y="135" type="line"/>
			<point x="704" y="65"/>
			<point x="605" y="-22"/>
			<point x="471" y="-22" type="curve" smooth="yes"/>
			<point x="296" y="-22"/>
			<point x="180" y="86"/>
			<point x="125" y="209" type="curve" smooth="yes"/>
			<point x="82" y="306"/>
			<point x="80" y="404"/>
			<point x="80" y="488" type="curve" smooth="yes"/>
			<point x="80" y="993" type="line" smooth="yes"/>
			<point x="80" y="1048"/>
			<point x="125" y="1093"/>
			<point x="180" y="1093" type="curve" smooth="yes"/>
			<point x="235" y="1093"/>
			<point x="280" y="1048"/>
			<point x="280" y="993" type="curve" smooth="yes"/>
			<point x="280" y="488" type="line" smooth="yes"/>
			<point x="280" y="410"/>
			<point x="285" y="342"/>
			<point x="308" y="291" type="curve" smooth="yes"/>
			<point x="334" y="232"/>
			<point x="387" y="178"/>
			<point x="469" y="178" type="curve" smooth="yes"/>
			<point x="666" y="178"/>
			<point x="776" y="340"/>
			<point x="775" y="596" type="curve" smooth="yes"/>
			<point x="774" y="995" type="line" smooth="yes"/>
			<point x="774" y="1050"/>
			<point x="819" y="1095"/>
			<point x="874" y="1095" type="curve" smooth="yes"/>
			<point x="930" y="1095"/>
			<point x="974" y="1050"/>
			<point x="974" y="994" type="curve" smooth="yes"/>
			<point x="976" y="75" type="line" smooth="yes"/>
			<point x="976" y="20"/>
			<point x="945" y="-25"/>
			<point x="890" y="-25" type="curve" smooth="yes"/>
			<point x="835" y="-25"/>
			<point x="808.3563842773" y="20.8010253906"/>
			<point x="793" y="75" type="curve" smooth="yes"/>
		</contour>
		<contour>
			<point x="281" y="-396" type="line" smooth="yes"/>
			<point x="281" y="-441.9999999998"/>
			<point x="242" y="-496"/>
			<point x="192" y="-496" type="curve" smooth="yes"/>
			<point x="125" y="-496"/>
			<point x="81" y="-460.9999999998"/>
			<point x="81" y="-395" type="curve" smooth="yes"/>
			<point x="81" y="700" type="line" smooth="yes"/>
			<point x="81" y="753.9999999998"/>
			<point x="124" y="800"/>
			<point x="180" y="800" type="curve" smooth="yes"/>
			<point x="181" y="800" type="line" smooth="yes"/>
			<point x="238" y="800"/>
			<point x="281" y="754"/>
			<point x="281" y="699" type="curve" smooth="yes"/>
		</contour>
	</outline>
</glyph>
<glyph name="paragraph" format="2">
  <advance width="1317.4564643799472"/>
  <unicode hex="00B6"/>
  <outline>
    <contour>
      <point x="1108.4941" y="1431.76953" type="line"/>
      <point x="368.61519999999973" y="1432.7597640000001" type="line"/>
      <point x="242.0" y="1432.0"/>
      <point x="91.03710000000001" y="1281.8263"/>
      <point x="91.03710000000001" y="1122.62891" type="curve" smooth="yes"/>
      <point x="91.03710000000001" y="982.44283"/>
      <point x="171.529" y="865.78709"/>
      <point x="278.0" y="827.0" type="curve"/>
      <point x="278.5936999999999" y="82.45503000000008" type="line" smooth="yes"/>
      <point x="278.6375569742908" y="27.45504748846895"/>
      <point x="323.5936999999999" y="-17.54496999999992"/>
      <point x="378.5936999999999" y="-17.54496999999992" type="curve" smooth="yes"/>
      <point x="433.5936999999999" y="-17.54496999999992"/>
      <point x="478.5936999999999" y="27.45503000000008"/>
      <point x="478.5936999999999" y="82.45503000000008" type="curve"/>
      <point x="477.9218999999998" y="923.1464800000001" type="line"/>
      <point x="477.6758" y="1231.76953" type="line"/>
      <point x="753.3026999999997" y="1231.76953" type="line"/>
      <point x="754.2343999999998" y="71.57612999999992" type="line" smooth="yes"/>
      <point x="754.2785680529923" y="16.576147716566766"/>
      <point x="799.2343999999998" y="-28.42387000000008"/>
      <point x="854.2343999999998" y="-28.42387000000008" type="curve" smooth="yes"/>
      <point x="909.2343999999998" y="-28.42387000000008"/>
      <point x="954.2343999999998" y="16.57612999999992"/>
      <point x="954.2343999999998" y="71.57612999999992" type="curve"/>
      <point x="953.3027000000002" y="1231.76953" type="line"/>
      <point x="1108.4941000000003" y="1231.76953" type="line" smooth="yes"/>
      <point x="1163.4941000000003" y="1231.76953"/>
      <point x="1208.4941000000003" y="1276.76953"/>
      <point x="1208.4941000000003" y="1331.76953" type="curve" smooth="yes"/>
      <point x="1208.4941000000003" y="1386.76953"/>
      <point x="1163.4940000000001" y="1431.86353"/>
      <point x="1108.4941000000003" y="1431.76953" type="curve" smooth="yes"/>
    </contour>
  </outline>
</glyph>
<glyph name="cedilla" format="2">
	<unicode hex="00B8"/>
	<advance width="702"/>
	<outline>
		<contour>
			<point x="329" y="-565" type="curve" smooth="yes"/>
			<point x="420" y="-565"/>
			<point x="504" y="-505"/>
			<point x="504" y="-417" type="curve" smooth="yes"/>
			<point x="504" y="-328"/>
			<point x="420" y="-272"/>
			<point x="339" y="-272" type="curve" smooth="yes"/>
			<point x="304" y="-272"/>
			<point x="269" y="-283"/>
			<point x="239" y="-305" type="curve" smooth="yes"/>
			<point x="224" y="-316"/>
			<point x="197" y="-325"/>
			<point x="179" y="-325" type="curve" smooth="yes"/>
			<point x="124" y="-325"/>
			<point x="79" y="-280"/>
			<point x="79" y="-225" type="curve" smooth="yes"/>
			<point x="79" y="-209"/>
			<point x="87" y="-184"/>
			<point x="96" y="-170" type="curve" smooth="yes"/>
			<point x="258" y="77" type="line" smooth="yes"/>
			<point x="274" y="102"/>
			<point x="311" y="124"/>
			<point x="342" y="124" type="curve" smooth="yes"/>
			<point x="397" y="124"/>
			<point x="442" y="79"/>
			<point x="442" y="24" type="curve" smooth="yes"/>
			<point x="442" y="7"/>
			<point x="434" y="-18"/>
			<point x="425" y="-32" type="curve" smooth="yes"/>
			<point x="397" y="-75" type="line"/>
			<point x="561" y="-100"/>
			<point x="703" y="-229"/>
			<point x="703" y="-414" type="curve" smooth="yes"/>
			<point x="703" y="-613"/>
			<point x="537" y="-765"/>
			<point x="332" y="-765" type="curve" smooth="yes"/>
			<point x="196" y="-765"/>
			<point x="96" y="-706"/>
			<point x="27" y="-625" type="curve" smooth="yes"/>
			<point x="13" y="-609"/>
			<point x="2" y="-580"/>
			<point x="2" y="-559" type="curve" smooth="yes"/>
			<point x="2" y="-504"/>
			<point x="47" y="-459"/>
			<point x="102" y="-459" type="curve" smooth="yes"/>
			<point x="128" y="-459"/>
			<point x="161" y="-475"/>
			<point x="178" y="-495" type="curve" smooth="yes"/>
			<point x="210" y="-532"/>
			<point x="264" y="-565"/>
		</contour>
	</outline>
</glyph>
<glyph name="AE" format="2">
  <advance width="2054.0"/>
  <unicode hex="00C6"/>
  <outline>
    <contour>
      <point x="700.0" y="1449.0" type="curve" smooth="yes"/>
      <point x="1093.11" y="1448.4"/>
      <point x="1488.51" y="1450.63"/>
      <point x="1879.0" y="1447.0" type="curve" smooth="yes"/>
      <point x="1934.0" y="1447.0"/>
      <point x="1979.0" y="1402.0"/>
      <point x="1979.0" y="1347.0" type="curve" smooth="yes"/>
      <point x="1979.0" y="1292.0"/>
      <point x="1934.0" y="1247.0"/>
      <point x="1879.0" y="1247.0" type="curve" smooth="yes"/>
      <point x="1877.0" y="1247.0" type="line"/>
      <point x="1040.0" y="1248.0" type="line"/>
      <point x="1041.0" y="815.0" type="line"/>
      <point x="1795.0" y="810.0" type="line"/>
      <point x="1796.0" y="810.0" type="line" smooth="yes"/>
      <point x="1851.0" y="810.0"/>
      <point x="1896.0" y="765.0"/>
      <point x="1896.0" y="710.0" type="curve" smooth="yes"/>
      <point x="1896.0" y="655.0"/>
      <point x="1851.0" y="610.0"/>
      <point x="1796.0" y="610.0" type="curve" smooth="yes"/>
      <point x="1794.0" y="610.0" type="line"/>
      <point x="1042.0" y="615.0" type="line"/>
      <point x="1043.0" y="200.0" type="line"/>
      <point x="1877.0" y="201.0" type="line"/>
      <point x="1879.0" y="201.0" type="line" smooth="yes"/>
      <point x="1934.0" y="201.0"/>
      <point x="1979.0" y="156.0"/>
      <point x="1979.0" y="101.0" type="curve" smooth="yes"/>
      <point x="1979.0" y="46.0"/>
      <point x="1934.0" y="1.0"/>
      <point x="1879.0" y="1.0" type="curve" smooth="yes"/>
      <point x="1877.0" y="1.0" type="line"/>
      <point x="943.0" y="0.0" type="line" smooth="yes"/>
      <point x="888.0000315186363" y="-0.05888647589003093"/>
      <point x="843.1466661452022" y="45.00019555518827"/>
      <point x="843.0" y="100.0" type="curve" smooth="yes"/>
      <point x="842.0" y="475.0" type="line"/>
      <point x="746.0" y="477.0"/>
      <point x="661.0" y="479.0"/>
      <point x="476.0" y="481.0" type="curve"/>
      <point x="431.0" y="481.0" type="line"/>
      <point x="242.0" y="47.0" type="line" smooth="yes"/>
      <point x="227.31913959056845" y="13.288394615422362"/>
      <point x="187.0" y="-14.0"/>
      <point x="150.0" y="-14.0" type="curve" smooth="yes"/>
      <point x="95.0" y="-14.0"/>
      <point x="50.0" y="31.0"/>
      <point x="50.0" y="86.0" type="curve" smooth="yes"/>
      <point x="50.0" y="98.0"/>
      <point x="54.17992688686991" y="115.9199776523833"/>
      <point x="59.0" y="127.0" type="curve" smooth="yes"/>
      <point x="608.0" y="1389.0" type="line" smooth="yes"/>
      <point x="622.2997604348886" y="1421.871216154516"/>
      <point x="664.0" y="1449.0"/>
    </contour>
    <contour>
      <point x="766.0" y="1249.0" type="line"/>
      <point x="518.0" y="681.0" type="line"/>
      <point x="673.0" y="679.0"/>
      <point x="755.0" y="677.0"/>
      <point x="842.0" y="675.0" type="curve"/>
      <point x="840.0" y="1249.0" type="line"/>
    </contour>
  </outline>
</glyph>
<glyph name="Thorn" format="2">
  <advance width="1322.4940633245383"/>
  <unicode hex="00DE"/>
  <outline>
    <contour>
      <point x="223.60470562634106" y="448.4479476967732" type="line"/>
      <point x="723.7440633245383" y="453.2902374670185" type="line" smooth="yes"/>
      <point x="939.7391482697917" y="455.3814761871032"/>
      <point x="1073.2440633245383" y="532.7902374670185"/>
      <point x="1073.2440633245383" y="730.0402374670185" type="curve" smooth="yes"/>
      <point x="1073.2440633245383" y="949.0402374670185"/>
      <point x="935.2433299745376" y="1030.582184061468"/>
      <point x="734.9940633245383" y="1030.0402374670184" type="curve" smooth="yes"/>
      <point x="235.074518013765" y="1028.6872752334305" type="line"/>
      <point x="233.16375586357583" y="1178.682104023281" type="line"/>
      <point x="734.9940633245383" y="1180.0402374670184" type="line" smooth="yes"/>
      <point x="1034.9929646728629" y="1180.8521424774308"/>
      <point x="1222.4940633245383" y="1032.2902374670184"/>
      <point x="1222.4940633245383" y="733.0402374670185" type="curve" smooth="yes"/>
      <point x="1222.4940633245383" y="444.2902374670185"/>
      <point x="1013.9962640914191" y="306.07094837097964"/>
      <point x="725.9940633245383" y="303.2902374670185" type="curve" smooth="yes"/>
      <point x="228.86637453078777" y="298.4903839200444" type="line"/>
    </contour>
    <contour>
      <point x="201.0" y="-10.0" type="curve" smooth="yes"/>
      <point x="146.0" y="-10.0"/>
      <point x="101.0" y="35.0"/>
      <point x="101.0" y="90.0" type="curve" smooth="yes"/>
      <point x="100.0" y="1341.0" type="line" smooth="yes"/>
      <point x="100.0" y="1392.0"/>
      <point x="143.0" y="1441.0"/>
      <point x="195.0" y="1441.0" type="curve" smooth="yes"/>
      <point x="256.0" y="1441.0"/>
      <point x="300.0" y="1398.0"/>
      <point x="300.0" y="1341.0" type="curve" smooth="yes"/>
      <point x="301.0" y="90.0" type="line" smooth="yes"/>
      <point x="301.0" y="35.0"/>
      <point x="256.0" y="-10.0"/>
    </contour>
  </outline>
</glyph>
<glyph name="germandbls" format="2">
  <advance width="1323.1722811"/>
  <unicode hex="00DF"/>
  <outline>
    <contour>
      <point x="884.725" y="1421.594" type="line"/>
      <point x="1015.3620000000001" y="1383.834"/>
      <point x="1169.8850000000002" y="1293.624"/>
      <point x="1169.8850000000002" y="1116.454" type="curve" smooth="yes"/>
      <point x="1169.8850000000002" y="1003.2440000000001"/>
      <point x="1097.982" y="922.2440000000001"/>
      <point x="1032.725" y="871.594" type="curve" smooth="yes"/>
      <point x="951.725" y="810.594"/>
      <point x="875.725" y="788.594"/>
      <point x="810.725" y="745.594" type="curve"/>
      <point x="814.725" y="743.594"/>
      <point x="818.725" y="742.594"/>
      <point x="824.725" y="740.594" type="curve" smooth="yes"/>
      <point x="953.725" y="694.594"/>
      <point x="1082.725" y="690.594"/>
      <point x="1180.725" y="588.594" type="curve" smooth="yes"/>
      <point x="1240.495" y="527.3140000000001"/>
      <point x="1267.975" y="447.36400000000003"/>
      <point x="1267.975" y="366.4860000000001" type="curve" smooth="yes"/>
      <point x="1267.975" y="286.346"/>
      <point x="1240.995" y="205.296"/>
      <point x="1191.725" y="140.594" type="curve" smooth="yes"/>
      <point x="1101.7579999999998" y="22.444999999999993"/>
      <point x="954.8720000000001" y="-49.0"/>
      <point x="762.0" y="-49.0" type="curve" smooth="yes"/>
      <point x="671.147" y="-49.0"/>
      <point x="580.5580000000001" y="-32.339"/>
      <point x="495.72500000000014" y="1.593999999999994" type="curve" smooth="yes"/>
      <point x="463.7250000000001" y="13.593999999999994"/>
      <point x="438.7250000000001" y="51.593999999999994"/>
      <point x="438.7250000000001" y="85.594" type="curve" smooth="yes"/>
      <point x="438.7250000000001" y="135.594"/>
      <point x="478.72500000000014" y="175.594"/>
      <point x="528.7250000000001" y="175.594" type="curve" smooth="yes"/>
      <point x="538.7250000000001" y="175.594"/>
      <point x="554.7250000000001" y="172.594"/>
      <point x="563.725" y="168.594" type="curve" smooth="yes"/>
      <point x="625.398" y="143.507"/>
      <point x="695.811" y="129.892"/>
      <point x="764.687" y="129.892" type="curve" smooth="yes"/>
      <point x="827.5930000000001" y="129.892"/>
      <point x="889.216" y="141.24899999999997"/>
      <point x="941.725" y="165.594" type="curve" smooth="yes"/>
      <point x="1013.7249999999999" y="197.594"/>
      <point x="1088.725" y="268.594"/>
      <point x="1088.725" y="362.59400000000005" type="curve" smooth="yes"/>
      <point x="1088.725" y="562.594"/>
      <point x="805.725" y="515.594"/>
      <point x="685.725" y="612.594" type="curve" smooth="yes"/>
      <point x="653.2870000000001" y="638.8530000000001"/>
      <point x="620.2520000000001" y="687.78"/>
      <point x="620.2520000000001" y="744.6310000000001" type="curve" smooth="yes"/>
      <point x="620.2520000000001" y="761.3889999999999"/>
      <point x="623.1230000000002" y="778.836"/>
      <point x="629.725" y="796.594" type="curve" smooth="yes"/>
      <point x="686.725" y="949.594"/>
      <point x="902.725" y="949.594"/>
      <point x="974.725" y="1067.594" type="curve" smooth="yes"/>
      <point x="984.931" y="1084.294"/>
      <point x="990.8330000000001" y="1101.854"/>
      <point x="990.8330000000001" y="1116.284" type="curve" smooth="yes"/>
      <point x="990.8330000000001" y="1117.404"/>
      <point x="990.797" y="1118.5140000000001"/>
      <point x="990.7249999999999" y="1119.594" type="curve" smooth="yes"/>
      <point x="990.7249999999999" y="1149.594"/>
      <point x="967.725" y="1177.594"/>
      <point x="947.725" y="1194.594" type="curve" smooth="yes"/>
      <point x="892.6220000000001" y="1239.5240000000001"/>
      <point x="774.994" y="1272.954"/>
      <point x="674.044" y="1272.954" type="curve" smooth="yes"/>
      <point x="496.83400000000006" y="1272.954"/>
      <point x="379.01500000000004" y="1165.2740000000001"/>
      <point x="341.725" y="1021.594" type="curve" smooth="yes"/>
      <point x="328.538" y="970.394"/>
      <point x="323.5037650834926" y="912.566474837419"/>
      <point x="324.97900000000004" y="850.4840000000002" type="curve" smooth="yes"/>
      <point x="343.725" y="61.593999999999994" type="line" smooth="yes"/>
      <point x="343.7487557957649" y="60.5942822075275"/>
      <point x="343.725" y="59.593999999999994"/>
      <point x="343.725" y="58.593999999999994" type="curve" smooth="yes"/>
      <point x="343.725" y="8.593999999999994"/>
      <point x="303.725" y="-31.406000000000006"/>
      <point x="253.72500000000008" y="-31.406000000000006" type="curve" smooth="yes"/>
      <point x="204.72500000000005" y="-31.406000000000006"/>
      <point x="163.72500000000005" y="8.593999999999994"/>
      <point x="163.72500000000005" y="57.593999999999994" type="curve"/>
      <point x="145.23368600000006" y="880.4749999999999"/>
      <point x="144.80271890000006" y="833.894"/>
      <point x="144.80271890000006" y="855.7740000000001" type="curve" smooth="yes"/>
      <point x="144.80271890000006" y="922.954"/>
      <point x="148.86643000000007" y="994.424"/>
      <point x="167.72500000000005" y="1067.594" type="curve" smooth="yes"/>
      <point x="224.81820000000005" y="1280.594"/>
      <point x="407.9190000000001" y="1453.594"/>
      <point x="671.725" y="1453.594" type="curve" smooth="yes"/>
      <point x="678.725" y="1453.594" type="line" smooth="yes"/>
      <point x="749.62" y="1453.594"/>
      <point x="819.518" y="1440.544"/>
      <point x="884.436" y="1421.594" type="curve"/>
    </contour>
  </outline>
</glyph>
